<svg width="14" height="13" viewBox="0 0 14 13" fill="none" xmlns="http://www.w3.org/2000/svg">
<path d="M7.44549 7.49219C7.63484 7.49219 7.82234 7.45723 7.99728 7.38931C8.17221 7.32139 8.33117 7.22183 8.46506 7.09633C8.59895 6.97083 8.70516 6.82184 8.77762 6.65787C8.85009 6.49389 8.88738 6.31814 8.88738 6.14066C8.88738 5.96317 8.85009 5.78743 8.77762 5.62345C8.70516 5.45948 8.59895 5.31049 8.46506 5.18499C8.33117 5.05948 8.17221 4.95993 7.99728 4.89201C7.82234 4.82409 7.63484 4.78913 7.44549 4.78913C7.06307 4.78921 6.69636 4.93168 6.42601 5.1852C6.15566 5.43872 6.00383 5.78252 6.00392 6.14097C6.00401 6.49941 6.156 6.84315 6.42647 7.09655C6.69694 7.34995 7.06373 7.49227 7.44614 7.49219L7.44549 7.49219ZM12.0312 7.49219C12.2206 7.49219 12.4081 7.45723 12.583 7.38931C12.758 7.32139 12.9169 7.22183 13.0508 7.09633C13.1847 6.97083 13.2909 6.82184 13.3634 6.65787C13.4358 6.49389 13.4731 6.31814 13.4731 6.14066C13.4731 5.96317 13.4358 5.78743 13.3634 5.62345C13.2909 5.45948 13.1847 5.31049 13.0508 5.18499C12.9169 5.05948 12.758 4.95993 12.583 4.89201C12.4081 4.82409 12.2206 4.78913 12.0312 4.78913C11.6488 4.78921 11.2821 4.93168 11.0118 5.1852C10.7414 5.43872 10.5896 5.78252 10.5897 6.14097C10.5898 6.49941 10.7418 6.84315 11.0122 7.09655C11.2827 7.34995 11.6495 7.49227 12.0319 7.49219L12.0312 7.49219ZM2.85972 7.49219C3.04908 7.49219 3.23657 7.45723 3.41151 7.38931C3.58645 7.32139 3.7454 7.22183 3.8793 7.09633C4.01319 6.97083 4.1194 6.82184 4.19186 6.65787C4.26432 6.49389 4.30162 6.31814 4.30162 6.14066C4.30162 5.96317 4.26432 5.78743 4.19186 5.62345C4.1194 5.45948 4.01319 5.31049 3.8793 5.18499C3.7454 5.05948 3.58645 4.95993 3.41151 4.89201C3.23657 4.82409 3.04908 4.78913 2.85972 4.78913C2.47731 4.78921 2.11059 4.93168 1.84024 5.1852C1.5699 5.43872 1.41807 5.78252 1.41815 6.14097C1.41824 6.49941 1.57024 6.84315 1.84071 7.09655C2.11118 7.34995 2.47796 7.49227 2.86038 7.49219L2.85972 7.49219Z" fill="#425662"/>
</svg>
