<svg width="77" height="30" viewBox="0 0 77 30" fill="none" xmlns="http://www.w3.org/2000/svg">
<rect x="0.5" y="0.5" width="76" height="29" rx="3.5" fill="white"/>
<path d="M14.2784 19V18.233L17.1591 15.0795C17.4972 14.7102 17.7756 14.3892 17.9943 14.1165C18.2131 13.8409 18.375 13.5824 18.4801 13.3409C18.5881 13.0966 18.642 12.8409 18.642 12.5739C18.642 12.267 18.5682 12.0014 18.4205 11.777C18.2756 11.5526 18.0767 11.3793 17.8239 11.2571C17.571 11.1349 17.2869 11.0739 16.9716 11.0739C16.6364 11.0739 16.3438 11.1435 16.0938 11.2827C15.8466 11.419 15.6548 11.6108 15.5185 11.858C15.3849 12.1051 15.3182 12.3949 15.3182 12.7273H14.3125C14.3125 12.2159 14.4304 11.767 14.6662 11.3807C14.902 10.9943 15.223 10.6932 15.6293 10.4773C16.0384 10.2614 16.4972 10.1534 17.0057 10.1534C17.517 10.1534 17.9702 10.2614 18.3651 10.4773C18.7599 10.6932 19.0696 10.9844 19.294 11.3509C19.5185 11.7173 19.6307 12.125 19.6307 12.5739C19.6307 12.8949 19.5724 13.2088 19.456 13.5156C19.3423 13.8196 19.1435 14.1591 18.8594 14.5341C18.5781 14.9062 18.1875 15.3608 17.6875 15.8977L15.7273 17.9943V18.0625H19.7841V19H14.2784ZM24.3906 19.1193C23.7486 19.1193 23.2017 18.9446 22.75 18.5952C22.2983 18.2429 21.9531 17.733 21.7145 17.0653C21.4759 16.3949 21.3565 15.5852 21.3565 14.6364C21.3565 13.6932 21.4759 12.8878 21.7145 12.2202C21.956 11.5497 22.3026 11.0384 22.7543 10.6861C23.2088 10.331 23.7543 10.1534 24.3906 10.1534C25.027 10.1534 25.571 10.331 26.0227 10.6861C26.4773 11.0384 26.8239 11.5497 27.0625 12.2202C27.304 12.8878 27.4247 13.6932 27.4247 14.6364C27.4247 15.5852 27.3054 16.3949 27.0668 17.0653C26.8281 17.733 26.483 18.2429 26.0312 18.5952C25.5795 18.9446 25.0327 19.1193 24.3906 19.1193ZM24.3906 18.1818C25.027 18.1818 25.5213 17.875 25.8736 17.2614C26.2259 16.6477 26.402 15.7727 26.402 14.6364C26.402 13.8807 26.321 13.2372 26.1591 12.706C26 12.1747 25.7699 11.7699 25.4688 11.4915C25.1705 11.2131 24.8111 11.0739 24.3906 11.0739C23.7599 11.0739 23.267 11.3849 22.9119 12.0071C22.5568 12.6264 22.3793 13.5028 22.3793 14.6364C22.3793 15.392 22.4588 16.0341 22.6179 16.5625C22.777 17.0909 23.0057 17.4929 23.304 17.7685C23.6051 18.044 23.9673 18.1818 24.3906 18.1818ZM29.044 19V18.233L31.9247 15.0795C32.2628 14.7102 32.5412 14.3892 3599 14.1165C32.9787 13.8409 33.1406 13.5824 33.2457 13.3409C33.3537 13.0966 33.4077 12.8409 33.4077 12.5739C33.4077 12.267 33.3338 12.0014 33.1861 11.777C33.0412 11.5526 32.8423 11.3793 32.5895 11.2571C32.3366 11.1349 32.0526 11.0739 31.7372 11.0739C31.402 11.0739 31.1094 11.1435 30.8594 11.2827C30.6122 11.419 30.4205 11.6108 30.2841 11.858C30.1506 12.1051 30.0838 12.3949 30.0838 12.7273H29.0781C29.0781 12.2159 29.196 11.767 29.4318 11.3807C29.6676 10.9943 29.9886 10.6932 30.3949 10.4773C30.804 10.2614 31.2628 10.1534 31.7713 10.1534C32.2827 10.1534 32.7358 10.2614 33.1307 10.4773C33.5256 10.6932 33.8352 10.9844 34.0597 11.3509C34.2841 11.7173 34.3963 12.125 34.3963 12.5739C34.3963 12.8949 34.3381 13.2088 34.2216 13.5156C34.108 13.8196 33.9091 14.1591 33.625 14.5341C33.3438 14.9062 32.9531 15.3608 32.4531 15.8977L30.4929 17.9943V18.0625H34.5497V19H29.044ZM39.1562 19.1193C38.5142 19.1193 37.9673 18.9446 37.5156 18.5952C37.0639 18.2429 36.7188 17.733 36.4801 17.0653C36.2415 16.3949 36.1222 15.5852 36.1222 14.6364C36.1222 13.6932 36.2415 12.8878 36.4801 12.2202C36.7216 11.5497 37.0682 11.0384 37.5199 10.6861C37.9744 10.331 38.5199 10.1534 39.1562 10.1534C39.7926 10.1534 40.3366 10.331 40.7884 10.6861C41.2429 11.0384 41.5895 11.5497 41.8281 12.2202C42.0696 12.8878 42.1903 13.6932 42.1903 14.6364C42.1903 15.5852 42.071 16.3949 41.8324 17.0653C41.5938 17.733 41.2486 18.2429 40.7969 18.5952C40.3452 18.9446 39.7983 19.1193 39.1562 19.1193ZM39.1562 18.1818C39.7926 18.1818 40.2869 17.875 40.6392 17.2614C40.9915 16.6477 41.1676 15.7727 41.1676 14.6364C41.1676 13.8807 41.0866 13.2372 40.9247 12.706C40.7656 12.1747 40.5355 11.7699 40.2344 11.4915C39.9361 11.2131 39.5767 11.0739 39.1562 11.0739C38.5256 11.0739 38.0327 11.3849 37.6776 12.0071C37.3224 12.6264 37.1449 13.5028 37.1449 14.6364C37.1449 15.392 37.2244 16.0341 37.3835 16.5625C37.5426 17.0909 37.7713 17.4929 38.0696 17.7685C38.3707 18.044 38.733 18.1818 39.1562 18.1818Z" fill="#11263C"/>
<path fill-rule="evenodd" clip-rule="evenodd" d="M54.75 11.4997C54.75 10.8553 55.2723 10.333 55.9167 10.333H64.0833C64.7277 10.333 65.25 10.8553 65.25 11.4997V19.6663C65.25 20.3107 64.7277 20.833 64.0833 20.833H55.9167C55.2723 20.833 54.75 20.3107 54.75 19.6663V11.4997Z" stroke="#422F8A" stroke-opacity="0.87" stroke-width="1.16667" stroke-linecap="round" stroke-linejoin="round"/>
<path d="M62.3335 9.16699V11.5003" stroke="#422F8A" stroke-opacity="0.87" stroke-width="1.16667" stroke-linecap="round" stroke-linejoin="round"/>
<path d="M57.6665 9.16699V11.5003" stroke="#422F8A" stroke-opacity="0.87" stroke-width="1.16667" stroke-linecap="round" stroke-linejoin="round"/>
<path d="M54.75 13.833H65.25" stroke="#422F8A" stroke-opacity="0.87" stroke-width="1.16667" stroke-linecap="round" stroke-linejoin="round"/>
<rect x="0.5" y="0.5" width="76" height="29" rx="3.5" stroke="#ECE9F1"/>
</svg>
