<svg xmlns="http://www.w3.org/2000/svg" width="19" height="19" viewBox="0 0 19 19" fill="none">
  <g clip-path="url(#clip0_5038_37343)">
    <path d="M12.6667 2.375C12.8606 2.37503 13.0477 2.44622 13.1926 2.57507C13.3375 2.70392 13.4301 2.88147 13.4528 3.07404L13.4583 3.16667V3.95833H15.0417C15.4411 3.95821 15.8259 4.10907 16.1188 4.38069C16.4117 4.6523 16.5911 5.02459 16.621 5.42292L16.625 5.54167V15.0417C16.6251 15.4411 16.4743 15.8259 16.2026 16.1188C15.931 16.4117 15.5587 16.5911 15.1604 16.621L15.0417 16.625H3.95833C3.55888 16.6251 3.17413 16.4743 2.88123 16.2026C2.58833 15.931 2.40892 15.5587 2.37896 15.1604L2.375 15.0417V5.54167C2.37487 5.14221 2.52574 4.75747 2.79735 4.46457C3.06897 4.17166 3.44125 3.99225 3.83958 3.96229L3.95833 3.95833H5.54167V3.16667C5.54189 2.96489 5.61915 2.77081 5.75767 2.62408C5.89619 2.47736 6.0855 2.38906 6.28694 2.37724C6.48837 2.36541 6.68672 2.43095 6.84145 2.56046C6.99618 2.68997 7.09563 2.87367 7.11946 3.07404L7.125 3.16667V3.95833H11.875V3.16667C11.875 2.9567 11.9584 2.75534 12.1069 2.60687C12.2553 2.45841 12.4567 2.375 12.6667 2.375ZM15.0417 9.5H3.95833V15.0417H15.0417V9.5ZM15.0417 5.54167H3.95833V7.91667H15.0417V5.54167Z" fill="#D7D7D7"/>
  </g>
  <defs>
    <clipPath id="clip0_5038_37343">
      <rect width="19" height="19" fill="white"/>
    </clipPath>
  </defs>
</svg>