
<svg *ngFor="let item of cards" width="350" height="150" viewBox="0 0 350 150" fill="none" xmlns="http://www.w3.org/2000/svg" xmlns:xlink="http://www.w3.org/1999/xlink">
<g clip-path="url(#clip0_5023_5471)">
<rect width="234.732" height="137.336" rx="8.40833" fill="red"/>
<rect x="209.324" y="-11.9119" width="84.1908" height="95.1245" rx="11.2111" transform="rotate(45.1654 209.324 -11.9119)" fill="white" fill-opacity="0.35"/>
<rect x="179.957" y="-71.4707" width="92.6944" height="101.601" rx="11.2111" transform="rotate(45.1654 179.957 -71.4707)" fill="white" fill-opacity="0.35"/>

 
<path fill-rule="evenodd" clip-rule="evenodd" d="M180.779 78.7315L180.779 78.8649C187.56 78.8649 194.322 78.8649 201.089 78.8658L201.089 73.1987L200.925 73.1987L186.365 73.1987L186.333 73.199C186.297 73.1995 186.26 73.1999 186.225 73.1953C185.586 73.1069 185.125 72.5748 185.125 71.928L185.125 66.0663L185.125 65.8657C184.971 65.8699 184.817 65.8717 184.665 65.8734L184.665 65.8734C184.328 65.8773 183.997 65.8811 183.669 65.9116C182.914 65.9813 182.272 66.3145 181.738 66.8542C181.106 67.4943 180.783 68.267 180.782 69.1654C180.778 71.6453 180.779 74.1257 180.779 76.6058L180.779 78.7315ZM196.756 71.9519L201.088 71.9519L201.09 71.9286L201.09 71.9286C201.092 71.9034 201.093 71.8829 201.093 71.8618C201.093 71.6159 201.094 71.3701 201.094 71.1242C201.095 70.4478 201.095 69.7714 201.091 69.095C201.089 68.9131 201.071 68.7287 201.035 68.5501C200.853 67.6372 200.367 66.9241 199.593 66.4098C199.089 66.0749 198.529 65.899 197.924 65.882C197.663 65.8743 197.401 65.8761 197.14 65.8778L197.14 65.8778L197.139 65.8778L197.139 65.8778L197.139 65.8778L197.139 65.8778L197.139 65.8778L197.139 65.8778L197.139 65.8778C197.025 65.8786 196.912 65.8794 196.798 65.8794C196.788 65.8794 196.778 65.8825 196.767 65.8855L196.761 65.8875L196.756 65.8888L196.756 71.9519ZM201.089 80.1219L201.091 80.1417C201.092 80.1598 201.094 80.1742 201.094 80.1882C201.094 80.4771 201.095 80.766 201.096 81.0549L201.096 81.055L201.096 81.0551L201.096 81.0552L201.096 81.0553L201.096 81.0553L201.096 81.0554L201.096 81.0555L201.096 81.0556L201.096 81.0557L201.096 81.0558C201.1 81.747 201.103 82.4383 201.084 83.1292C201.065 83.7736 200.829 84.3601 200.435 84.8743C199.868 85.6155 199.124 86.0652 198.194 86.1604C197.87 86.1937 197.542 86.1961 197.211 86.1985C197.061 86.1995 196.91 86.2006 196.758 86.2046L196.758 80.1219L201.089 80.1219ZM185.117 80.1197L180.785 80.1197L180.784 80.1428C180.782 80.1643 180.78 80.1815 180.78 80.1987L180.78 80.7453C180.78 81.4732 180.78 82.2008 180.782 82.929C180.783 83.0531 180.795 83.1772 180.808 83.3013C180.876 83.9388 181.122 84.5066 181.532 84.9928C182.19 85.774 183.036 86.1803 184.063 86.1922C184.305 86.1951 184.548 86.1944 184.791 86.1937C184.899 86.1933 185.008 86.193 185.117 86.193L185.117 80.1197ZM195.495 86.1895L191.572 86.1895L191.572 80.1204L195.495 80.1204L195.495 86.1895ZM190.307 80.121L186.382 80.121L186.382 86.1876L190.307 86.1876L190.307 80.121ZM195.494 71.9519L191.57 71.9519L191.57 65.8811L195.494 65.8811L195.494 71.9519ZM190.304 65.8794L186.379 65.8794L186.379 71.9485L190.304 71.9485L190.304 65.8794Z" fill="url(#paint2_linear_5023_5471)"/>
 




</g>
<defs>
<pattern id="pattern0" patternContentUnits="objectBoundingBox" width="1" height="1">
<use xlink:href="#image0_5023_5471" transform="matrix(0.000260417 0 0 0.000477431 0 -0.015625)"/>
</pattern>
<linearGradient id="paint0_linear_5023_5471" x1="262.737" y1="23.5273" x2="215.683" y2="71.599" gradientUnits="userSpaceOnUse">
<stop stop-color="#3F444F"/>
<stop offset="1" stop-color="#232528"/>
</linearGradient>
<linearGradient id="paint1_linear_5023_5471" x1="212.435" y1="-6.74443" x2="288.549" y2="14.0932" gradientUnits="userSpaceOnUse">
<stop stop-color="#878899"/>
<stop offset="1" stop-color="#2F2F2F"/>
</linearGradient>
<linearGradient id="paint2_linear_5023_5471" x1="180.078" y1="84.4529" x2="204.602" y2="65.1835" gradientUnits="userSpaceOnUse">
<stop stop-color="#FEFEFE"/>
<stop offset="1" stop-color="#929090"/>
</linearGradient>
<clipPath id="clip0_5023_5471">
<rect width="234.732" height="137.336" rx="8.40833" fill="white"/>
</clipPath>

</defs>
</svg>