<svg width="30" height="31" viewBox="0 0 30 31" fill="none" xmlns="http://www.w3.org/2000/svg">
<path fill-rule="evenodd" clip-rule="evenodd" d="M0.500474 19.7273L0.500474 19.9251C10.0713 19.9251 19.617 19.9251 29.1675 19.9264L29.1675 11.5271L28.9371 11.5271L8.3856 11.5271C8.37039 11.5271 8.35511 11.5273 8.33981 11.5275L8.33979 11.5275L8.33977 11.5275L8.33975 11.5275L8.33973 11.5275L8.33971 11.5275L8.33969 11.5275C8.28868 11.5282 8.23745 11.5288 8.18763 11.522C7.28538 11.391 6.63508 10.6024 6.63508 9.64362L6.63508 0.955806L6.63508 0.658485C6.41666 0.664747 6.20044 0.667362 5.98598 0.669954L5.98593 0.669954C5.51009 0.675709 5.04296 0.681358 4.57981 0.726517C3.51319 0.829822 2.60733 1.32368 1.85385 2.12367C0.961198 3.07233 0.505272 4.21752 0.504072 5.54916C0.499406 9.22466 0.499821 12.9009 0.500236 16.5768L0.500474 19.7273ZM23.0522 9.67846L29.1676 9.67846L29.17 9.64398C29.1726 9.60663 29.1748 9.57616 29.1748 9.54492C29.1748 9.18051 29.1751 8.81611 29.1755 8.4517L29.1755 8.45089C29.1764 7.44865 29.1773 6.4464 29.1712 5.44416C29.1688 5.17455 29.1424 4.90117 29.092 4.6366C28.8352 3.28354 28.1489 2.22654 27.0571 1.46434C26.3456 0.967963 25.555 0.707179 24.7007 0.681981C24.3319 0.670566 23.9626 0.673228 23.5934 0.675889L23.5934 0.675889L23.5934 0.675889L23.5934 0.675889L23.5934 0.675889L23.5933 0.675889L23.5933 0.675889C23.4329 0.677047 23.2725 0.678203 23.1122 0.678203C23.0974 0.678203 23.0827 0.682792 23.0685 0.687242L23.0684 0.687276C23.0629 0.688981 23.0575 0.690665 23.0522 0.692059L23.0522 9.67846ZM29.1684 21.7882L29.1711 21.8175C29.1736 21.8444 29.1756 21.8658 29.1756 21.8865C29.1752 22.3148 29.1773 22.7432 29.1793 23.1717C29.1842 24.1963 29.1891 25.2212 29.1612 26.2455C29.1348 27.2005 28.8012 28.0697 28.2457 28.8319C27.4455 29.9305 26.3956 30.597 25.083 30.7381C24.6249 30.7875 24.1622 30.791 23.6945 30.7945C23.4825 30.7961 23.2695 30.7977 23.0554 30.8036L23.0554 21.7882L29.1684 21.7882ZM6.62376 21.7845L0.509549 21.7845L0.506906 21.8188L0.506905 21.8188L0.506905 21.8188L0.506905 21.8188C0.504374 21.8507 0.50235 21.8762 0.50235 21.9017L0.502254 22.7118C0.502062 23.7907 0.501869 24.8691 0.504748 25.9483C0.505948 26.1322 0.522745 26.3162 0.541942 26.5001C0.637927 27.445 0.984672 28.2866 1.56298 29.0072C2.49163 30.165 3.68664 30.7672 5.136 30.7848C5.4779 30.7892 5.8198 30.7881 6.16329 30.787C6.31642 30.7865 6.46986 30.7861 6.62376 30.7861L6.62376 21.7845ZM21.2729 30.7809L15.7346 30.7809L15.7346 21.7856L21.2729 21.7856L21.2729 30.7809ZM13.9493 21.7873L8.40856 21.7873L8.40856 30.7788L13.9493 30.7788L13.9493 21.7873ZM21.2717 9.67846L15.7322 9.67846L15.7322 0.680723L21.2717 0.680722L21.2717 9.67846ZM13.9453 0.679113L8.40456 0.679113L8.40456 9.67433L13.9453 9.67433L13.9453 0.679113Z" fill="url(#paint0_linear_5044_3137)"/>
<defs>
<linearGradient id="paint0_linear_5044_3137" x1="-0.489073" y1="28.2073" x2="35.4019" y2="1.34991" gradientUnits="userSpaceOnUse">
<stop stop-color="#FEFEFE"/>
<stop offset="1" stop-color="#929090"/>
</linearGradient>
</defs>
</svg>