<svg xmlns="http://www.w3.org/2000/svg" width="17" height="16" viewBox="0 0 17 16" fill="none">
  <path d="M11.3147 9.81894C10.9995 9.81843 10.6875 9.88147 10.3972 10.0043C10.1069 10.1271 9.84439 10.3072 9.62527 10.5337L6.90205 8.78518C7.11462 8.23393 7.11462 7.62333 6.90205 7.07209L9.62527 5.32355C10.0084 5.71535 10.5157 5.96182 11.0605 6.02077C11.6053 6.07972 12.1536 5.9475 12.6117 5.64672C13.0697 5.34595 13.409 4.89532 13.5714 4.37198C13.7338 3.84864 13.7093 3.28511 13.5021 2.77785C13.2948 2.2706 12.9177 1.85115 12.4352 1.59129C11.9528 1.33144 11.395 1.24734 10.8574 1.35339C10.3198 1.45944 9.83578 1.74905 9.48816 2.17264C9.14054 2.59623 8.95096 3.12748 8.95185 3.67544C8.9528 3.96825 9.00684 4.25846 9.11134 4.53199L6.38812 6.28052C6.06026 5.94369 5.63939 5.7123 5.17932 5.61594C4.71926 5.51957 4.2409 5.56262 3.80543 5.73956C3.36995 5.91651 2.99715 6.21932 2.73469 6.60926C2.47223 6.99921 2.33203 7.45858 2.33203 7.92863C2.33203 8.39868 2.47223 8.85805 2.73469 9.248C2.99715 9.63795 3.36995 9.94076 3.80543 10.1177C4.2409 10.2946 4.71926 10.3377 5.17932 10.2413C5.63939 10.145 6.06026 9.91357 6.38812 9.57674L9.11134 11.3253C9.00684 11.5988 8.9528 11.889 8.95185 12.1818C8.95185 12.6492 9.09043 13.106 9.35006 13.4946C9.6097 13.8831 9.97873 14.186 10.4105 14.3648C10.8423 14.5437 11.3174 14.5905 11.7757 14.4993C12.2341 14.4081 12.6551 14.1831 12.9855 13.8526C13.316 13.5222 13.541 13.1012 13.6322 12.6428C13.7234 12.1844 13.6766 11.7093 13.4977 11.2776C13.3189 10.8458 13.0161 10.4768 12.6275 10.2172C12.2389 9.95752 11.7821 9.81894 11.3147 9.81894ZM11.3147 2.25771C11.5951 2.25771 11.8692 2.34086 12.1024 2.49664C12.3355 2.65243 12.5172 2.87385 12.6245 3.1329C12.7318 3.39196 12.7599 3.67702 12.7052 3.95203C12.6505 4.22704 12.5155 4.47966 12.3172 4.67793C12.1189 4.8762 11.8663 5.01123 11.5913 5.06593C11.3163 5.12064 11.0312 5.09256 10.7722 4.98526C10.5131 4.87795 10.2917 4.69624 10.1359 4.46309C9.98015 4.22995 9.897 3.95584 9.897 3.67544C9.89855 3.29992 10.0484 2.94022 10.314 2.67468C10.5795 2.40914 10.9392 2.25927 11.3147 2.25771ZM4.69866 9.34636C4.41826 9.34636 4.14415 9.26321 3.91101 9.10743C3.67787 8.95165 3.49615 8.73023 3.38885 8.47117C3.28154 8.21212 3.25347 7.92706 3.30817 7.65205C3.36287 7.37703 3.4979 7.12442 3.69617 6.92615C3.89445 6.72787 4.14706 6.59285 4.42207 6.53814C4.69709 6.48344 4.98214 6.51152 5.2412 6.61882C5.50026 6.72613 5.72168 6.90784 5.87746 7.14098C6.03324 7.37413 6.11639 7.64823 6.11639 7.92863C6.11483 8.30416 5.96497 8.66386 5.69943 8.9294C5.43389 9.19494 5.07419 9.34481 4.69866 9.34636ZM11.3147 13.5996C11.0343 13.5996 10.7602 13.5164 10.5271 13.3606C10.2939 13.2048 10.1122 12.9834 10.0049 12.7244C9.89761 12.4653 9.86954 12.1802 9.92424 11.9052C9.97894 11.6302 10.114 11.3776 10.3122 11.1793C10.5105 10.9811 10.7631 10.846 11.0381 10.7913C11.3132 10.7366 11.5982 10.7647 11.8573 10.872C12.1163 10.9793 12.3377 11.161 12.4935 11.3942C12.6493 11.6273 12.7325 11.9014 12.7325 12.1818C12.7309 12.5573 12.581 12.9171 12.3155 13.1826C12.05 13.4481 11.6903 13.598 11.3147 13.5996Z" fill="white"/>
</svg>