<svg xmlns="http://www.w3.org/2000/svg" width="10" height="10" viewBox="0 0 10 10" fill="none">
<path d="M6.91699 2.5C6.91699 3.64695 6.07527 4.5 5.12533 4.5C4.17539 4.5 3.33366 3.64695 3.33366 2.5C3.33366 1.35305 4.17539 0.5 5.12533 0.5C6.07527 0.5 6.91699 1.35305 6.91699 2.5ZM1.04199 8.75C1.04199 8.50189 1.15221 8.25761 1.39778 8.01035C1.64792 7.75851 2.01602 7.52886 2.46025 7.33472C3.35139 6.94528 4.42903 6.75 5.12533 6.75C5.82163 6.75 6.89926 6.94528 7.7904 7.33472C8.23463 7.52886 8.60273 7.75851 8.85287 8.01035C9.09844 8.25761 9.20866 8.50189 9.20866 8.75V9.375C9.20866 9.4215 9.19129 9.45727 9.17179 9.47854C9.15281 9.49925 9.13921 9.5 9.13574 9.5H1.11491C1.11144 9.5 1.09784 9.49925 1.07886 9.47854C1.05936 9.45727 1.04199 9.4215 1.04199 9.375V8.75Z" stroke="#33A3AA"/>
</svg>