<svg width="44" height="44" viewBox="0 0 44 44" fill="none" xmlns="http://www.w3.org/2000/svg">
<path d="M37.8126 39.875V1.375H6.18756V39.875H1.37506V42.625H42.6251V39.875H37.8126ZM35.0626 39.875H23.3751V34.375H20.6251V39.875H8.93756V4.125H35.0626V39.875Z" fill="#22282F"/>
<path d="M13.7501 26.125H16.5001V28.875H13.7501V26.125ZM20.6251 26.125H23.3751V28.875H20.6251V26.125ZM27.5001 26.125H30.2501V28.875H27.5001V26.125ZM13.7501 17.875H16.5001V20.625H13.7501V17.875ZM20.6251 17.875H23.3751V20.625H20.6251V17.875ZM27.5001 17.875H30.2501V20.625H27.5001V17.875ZM13.7501 9.625H16.5001V12.375H13.7501V9.625ZM20.6251 9.625H23.3751V12.375H20.6251V9.625ZM27.5001 9.625H30.2501V12.375H27.5001V9.625Z" fill="#22282F"/>
</svg>
