<svg width="44" height="44" viewBox="0 0 44 44" fill="none" xmlns="http://www.w3.org/2000/svg">
<g id="Phone">
<path id="Union" fill-rule="evenodd" clip-rule="evenodd" d="M10.0129 4.12504C10.0523 4.12506 10.0923 4.12508 10.1327 4.12508C10.17 4.12508 10.2068 4.12507 10.2431 4.12505C10.852 4.12478 11.3256 4.12458 11.7632 4.2018C13.4121 4.49279 14.809 5.58344 15.4913 7.11256C15.6723 7.51837 15.787 7.9779 15.9344 8.56871C15.9432 8.60393 15.9521 8.63962 15.9611 8.67579L16.7194 11.709L16.736 11.7753C16.9929 12.8025 17.2108 13.6743 17.3157 14.4129C17.4273 15.1992 17.4305 15.9504 17.1795 16.7213C16.9285 17.4923 16.4836 18.0976 15.9305 18.6675C15.4109 19.2028 14.7215 19.7792 13.9092 20.4583L13.8567 20.5021L10.9009 22.9732C13.2903 27.2988 16.7012 30.7096 21.0268 33.099L23.4979 30.1433L23.5417 30.0909C24.2208 29.2785 24.7971 28.5891 25.3325 28.0695C25.9024 27.5163 26.5077 27.0715 27.2786 26.8205C28.0496 26.5695 28.8008 26.5727 29.5871 26.6843C30.3257 26.7892 31.1975 27.0071 32.2247 27.264L32.291 27.2805L35.3242 28.0388C35.3604 28.0479 35.3961 28.0568 35.4313 28.0656C36.0221 28.213 36.4816 28.3277 36.8874 28.5087C38.4165 29.1909 39.5072 30.5878 39.7982 32.2368C39.8754 32.6744 39.8752 33.148 39.8749 33.7569C39.8749 33.7932 39.8749 33.83 39.8749 33.8673C39.8749 33.9077 39.8749 33.9476 39.8749 33.9871C39.8753 34.6893 39.8756 35.2434 39.7536 35.7894C39.3097 37.7767 37.4703 39.4454 35.4493 39.6943C34.8949 39.7625 34.4185 39.7158 33.8259 39.6577C33.7976 39.655 33.769 39.6521 33.7401 39.6493C28.9007 39.1772 24.5453 37.9682 20.7517 36.062C15.1157 33.2302 10.7697 28.8843 7.93793 23.2483C6.03179 19.4547 4.82281 15.0993 4.35065 10.2599C4.34783 10.231 4.34503 10.2024 4.34225 10.1741C4.28416 9.58151 4.23746 9.1051 4.30572 8.55068C4.55454 6.52968 6.22325 4.69024 8.21054 4.24634C8.75659 4.12437 9.31067 4.12466 10.0129 4.12504ZM23.5723 34.3418C26.6531 35.662 30.1397 36.535 34.0071 36.9123C34.7157 36.9815 34.8912 36.9922 35.1133 36.9649C35.98 36.8582 36.8794 36.0423 37.0698 35.19C37.1173 34.9771 37.1249 34.7444 37.1249 33.8673C37.1249 33.0961 37.1198 32.8833 37.09 32.7147C36.9578 31.9652 36.462 31.3302 35.7669 31.0201C35.6106 30.9503 35.4054 30.8938 34.6572 30.7067L31.624 29.9484C30.5126 29.6706 29.7804 29.4893 29.2007 29.407C28.6527 29.3293 28.3611 29.3601 28.13 29.4354C27.8989 29.5106 27.6449 29.6574 27.2478 30.0428C26.8276 30.4507 26.3425 31.0282 25.6077 31.9072L23.5723 34.3418ZM9.65823 20.4277L12.0928 18.3923C12.9717 17.6575 13.5493 17.1724 13.9572 16.7522C14.3426 16.3551 14.4894 16.1011 14.5646 15.87C14.6398 15.6389 14.6707 15.3472 14.5929 14.7993C14.5107 14.2195 14.3294 13.4874 14.0515 12.376L13.2932 9.34276C13.1062 8.59462 13.0496 8.38941 12.9799 8.23303C12.6698 7.53797 12.0348 7.04222 11.2853 6.90996C11.1167 6.8802 10.9039 6.87508 10.1327 6.87508C9.25559 6.87508 9.02287 6.88266 8.81003 6.9302C7.95772 7.12058 7.14182 8.01996 7.03511 8.88672C7.00777 9.1088 7.01852 9.2843 7.08765 9.99284C7.46499 13.8603 8.33794 17.3469 9.65823 20.4277Z" fill="#22282F"/>
</g>
</svg>
