<svg width="66" height="12" viewBox="0 0 66 12" fill="none" xmlns="http://www.w3.org/2000/svg">
<path d="M0.483488 6.16512C0.483488 5.21656 0.695302 4.3693 1.11893 3.62335C1.55177 2.86819 2.13656 2.28339 2.8733 1.86898C3.61926 1.44535 4.4527 1.23353 5.37363 1.23353C6.45112 1.23353 7.39507 1.50981 8.20549 2.06237C9.01591 2.61493 9.58228 3.3793 9.9046 4.35549H7.68056C7.45954 3.89502 7.14642 3.54967 6.74121 3.31944C6.34521 3.08921 5.88474 2.97409 5.35981 2.97409C4.79805 2.97409 4.29614 3.10763 3.85409 3.3747C3.42126 3.63256 3.08051 4.00093 2.83186 4.47981C2.59242 4.9587 2.4727 5.52046 2.4727 6.16512C2.4727 6.80056 2.59242 7.36233 2.83186 7.85042C3.08051 8.3293 3.42126 8.70228 3.85409 8.96935C4.29614 9.22721 4.79805 9.35614 5.35981 9.35614C5.88474 9.35614 6.34521 9.24102 6.74121 9.01079C7.14642 8.77135 7.45954 8.4214 7.68056 7.96093H9.9046C9.58228 8.94633 9.01591 9.7153 8.20549 10.2679C7.40428 10.8112 6.46033 11.0829 5.37363 11.0829C4.4527 11.0829 3.61926 10.8757 2.8733 10.4613C2.13656 10.0376 1.55177 9.45284 1.11893 8.70688C0.695302 7.96093 0.483488 7.11367 0.483488 6.16512ZM13.8741 4.53507C14.1228 4.12986 14.4451 3.81214 14.8411 3.58191C15.2463 3.35167 15.7068 3.23656 16.2225 3.23656V5.26721H15.7114C15.1036 5.26721 14.6431 5.40995 14.33 5.69544C14.0261 5.98093 13.8741 6.47823 13.8741 7.18735V11H11.9402V3.34707H13.8741V4.53507ZM25.023 7.00777C25.023 7.28405 25.0046 7.5327 24.9678 7.75372H19.3731C19.4192 8.30628 19.6126 8.73912 19.9533 9.05223C20.294 9.36535 20.7131 9.52191 21.2104 9.52191C21.9287 9.52191 22.4398 9.2134 22.7437 8.59637H24.8296C24.6086 9.33312 24.185 9.94093 23.5587 10.4198C22.9325 10.8895 22.1635 11.1243 21.2518 11.1243C20.5151 11.1243 19.852 10.9632 19.2626 10.6408C18.6824 10.3093 18.2266 9.84423 17.895 9.24563C17.5727 8.64702 17.4115 7.95633 17.4115 7.17353C17.4115 6.38153 17.5727 5.68623 17.895 5.08763C18.2173 4.48902 18.6686 4.02856 19.2488 3.70623C19.829 3.38391 20.4966 3.22274 21.2518 3.22274C21.9793 3.22274 22.6286 3.3793 23.1996 3.69242C23.7798 4.00553 24.2264 4.45219 24.5395 5.03237C24.8619 5.60335 25.023 6.26181 25.023 7.00777ZM23.02 6.45521C23.0108 5.95791 22.8312 5.56191 22.4813 5.26721C22.1313 4.9633 21.7031 4.81135 21.1966 4.81135C20.7177 4.81135 20.3125 4.9587 19.9809 5.2534C19.6586 5.53888 19.4606 5.93949 19.3869 6.45521H23.02ZM26.321 7.14591C26.321 6.37233 26.473 5.68623 26.7769 5.08763C27.09 4.48902 27.5137 4.02856 28.0478 3.70623C28.5819 3.38391 29.1759 3.22274 29.8298 3.22274C30.3271 3.22274 30.8014 3.33326 31.2526 3.55428C31.7039 3.76609 32.063 4.05158 32.3301 4.41074V0.777674H34.2917V11H32.3301V9.86726C32.0907 10.2448 31.7545 10.5487 31.3217 10.779C30.8889 11.0092 30.387 11.1243 29.816 11.1243C29.1713 11.1243 28.5819 10.9586 28.0478 10.627C27.5137 10.2955 27.09 9.83042 26.7769 9.23181C26.473 8.624 26.321 7.9287 26.321 7.14591ZM32.3439 7.17353C32.3439 6.70386 32.2518 6.30326 32.0677 5.97172C31.8835 5.63098 31.6348 5.37312 31.3217 5.19814C31.0086 5.01395 30.6724 4.92186 30.3133 4.92186C29.9541 4.92186 29.6226 5.00935 29.3187 5.18433C29.0148 5.3593 28.7661 5.61716 28.5727 5.95791C28.3885 6.28944 28.2964 6.68544 28.2964 7.14591C28.2964 7.60637 28.3885 8.01158 28.5727 8.36153C28.7661 8.70228 29.0148 8.96474 29.3187 9.14893C29.6318 9.33312 29.9633 9.42521 30.3133 9.42521C30.6724 9.42521 31.0086 9.33772 31.3217 9.16274C31.6348 8.97856 31.8835 8.7207 32.0677 8.38916C32.2518 8.04842 32.3439 7.64321 32.3439 7.17353ZM37.5451 2.43535C37.2043 2.43535 36.9188 2.32944 36.6886 2.11763C36.4676 1.8966 36.3571 1.62493 36.3571 1.3026C36.3571 0.980279 36.4676 0.713209 36.6886 0.501395C36.9188 0.280372 37.2043 0.16986 37.5451 0.16986C37.8858 0.16986 38.1667 0.280372 38.3877 0.501395C38.6179 0.713209 38.7331 0.980279 38.7331 1.3026C38.7331 1.62493 38.6179 1.8966 38.3877 2.11763C38.1667 2.32944 37.8858 2.43535 37.5451 2.43535ZM38.4982 3.34707V11H36.5643V3.34707H38.4982ZM42.7266 0.777674V11H40.7927V0.777674H42.7266ZM46.0019 2.43535C45.6612 2.43535 45.3757 2.32944 45.1454 2.11763C44.9244 1.8966 44.8139 1.62493 44.8139 1.3026C44.8139 0.980279 44.9244 0.713209 45.1454 0.501395C45.3757 0.280372 45.6612 0.16986 46.0019 0.16986C46.3426 0.16986 46.6235 0.280372 46.8446 0.501395C47.0748 0.713209 47.1899 0.980279 47.1899 1.3026C47.1899 1.62493 47.0748 1.8966 46.8446 2.11763C46.6235 2.32944 46.3426 2.43535 46.0019 2.43535ZM46.9551 3.34707V11H45.0211V3.34707H46.9551ZM53.4904 3.23656C54.4021 3.23656 55.1389 3.52665 55.7007 4.10684C56.2624 4.67781 56.5433 5.47902 56.5433 6.51046V11H54.6094V6.77293C54.6094 6.16512 54.4574 5.70005 54.1535 5.37772C53.8496 5.04619 53.4352 4.88042 52.9102 4.88042C52.3761 4.88042 51.9525 5.04619 51.6394 5.37772C51.3354 5.70005 51.1835 6.16512 51.1835 6.77293V11H49.2495V3.34707H51.1835V4.30023C51.4414 3.9687 51.7683 3.71084 52.1643 3.52665C52.5695 3.33326 53.0115 3.23656 53.4904 3.23656ZM63.2971 11L60.7001 7.73991V11H58.7661V0.777674H60.7001V6.59335L63.2695 3.34707H65.7836L62.413 7.18735L65.8112 11H63.2971Z" fill="url(#paint0_radial_515_2175)"/>
<defs>
<radialGradient id="paint0_radial_515_2175" cx="0" cy="0" r="1" gradientUnits="userSpaceOnUse" gradientTransform="translate(15.5 6) rotate(16.607) scale(29.7405 93.4703)">
<stop stop-color="#33A3AA"/>
<stop offset="0.984375" stop-color="#80DEE3"/>
</radialGradient>
</defs>
</svg>
