<svg width="13" height="4" viewBox="0 0 13 4" fill="none" xmlns="http://www.w3.org/2000/svg">
<path d="M6.42901 0.789307C6.24329 0.789307 6.05938 0.824265 5.88779 0.892186C5.71621 0.960106 5.5603 1.05966 5.42897 1.18516C5.29765 1.31066 5.19347 1.45965 5.1224 1.62363C5.05133 1.7876 5.01474 1.96335 5.01474 2.14083C5.01474 2.31832 5.05133 2.49407 5.1224 2.65804C5.19347 2.82202 5.29765 2.97101 5.42897 3.09651C5.5603 3.22201 5.71621 3.32156 5.88779 3.38948C6.05938 3.4574 6.24329 3.49236 6.42901 3.49236C6.8041 3.49228 7.16379 3.34981 7.42896 3.09629C7.69412 2.84277 7.84304 2.49897 7.84296 2.14053C7.84287 1.78208 7.69379 1.43835 7.4285 1.18494C7.16321 0.93154 6.80346 0.789225 6.42837 0.789307H6.42901ZM1.93111 0.789307C1.74539 0.789307 1.56148 0.824265 1.3899 0.892186C1.21831 0.960106 1.0624 1.05966 0.931075 1.18516C0.799748 1.31066 0.695574 1.45965 0.6245 1.62363C0.553427 1.7876 0.516846 1.96335 0.516846 2.14083C0.516846 2.31832 0.553427 2.49407 0.6245 2.65804C0.695574 2.82202 0.799748 2.97101 0.931075 3.09651C1.0624 3.22201 1.21831 3.32156 1.3899 3.38948C1.56148 3.4574 1.74539 3.49236 1.93111 3.49236C2.3062 3.49228 2.66589 3.34981 2.93106 3.09629C3.19622 2.84277 3.34514 2.49897 3.34506 2.14053C3.34497 1.78208 3.19589 1.43835 2.9306 1.18494C2.66532 0.93154 2.30556 0.789225 1.93047 0.789307H1.93111ZM10.9269 0.789307C10.7412 0.789307 10.5573 0.824265 10.3857 0.892186C10.2141 0.960106 10.0582 1.05966 9.92687 1.18516C9.79554 1.31066 9.69137 1.45965 9.6203 1.62363C9.54922 1.7876 9.51264 1.96335 9.51264 2.14083C9.51264 2.31832 9.54922 2.49407 9.6203 2.65804C9.69137 2.82202 9.79554 2.97101 9.92687 3.09651C10.0582 3.22201 10.2141 3.32156 10.3857 3.38948C10.5573 3.4574 10.7412 3.49236 10.9269 3.49236C11.302 3.49228 11.6617 3.34981 11.9269 3.09629C12.192 2.84277 12.3409 2.49897 12.3409 2.14053C12.3408 1.78208 12.1917 1.43835 11.9264 1.18494C11.6611 0.93154 11.3014 0.789225 10.9263 0.789307H10.9269Z" fill="#646464"/>
</svg>
