<svg width="19" height="19" viewBox="0 0 19 19" fill="none" xmlns="http://www.w3.org/2000/svg">
<g clip-path="url(#clip0_3326_3416)">
<path d="M17 8.4998V8.49555C17 5.98025 15.9049 3.72138 14.166 2.168L14.1575 2.16092C14.136 2.13777 14.112 2.1171 14.0859 2.0993L14.0845 2.09859C12.54 0.742505 10.5539 -0.00350084 8.49859 0.000504325C6.35092 0.000504325 4.39025 0.798088 2.89567 2.11417L2.90488 2.10638C2.88686 2.12004 2.87025 2.13547 2.85529 2.15242C1.95679 2.94801 1.2376 3.92615 0.745351 5.02067C0.253106 6.11519 -0.000954046 7.30181 2.69214e-06 8.50192C2.69214e-06 11.0165 1.09367 13.2754 2.83121 14.8295L2.83971 14.8365C2.86221 14.8621 2.88738 14.8851 2.91479 14.9053L2.91621 14.906C4.46026 16.26 6.4449 17.0049 8.49859 17.0012C10.5619 17.0044 12.555 16.2526 14.1022 14.8875L14.093 14.8953C15.0071 14.1006 15.7398 13.1189 16.2416 12.0164C16.7433 10.914 17.0025 9.7167 17.0014 8.50546V8.5005L17 8.4998ZM13.8394 14.0283C13.4184 13.6877 12.9655 13.3884 12.4872 13.1344L12.4412 13.1118C12.8754 11.8601 13.1368 10.4173 13.1615 8.9163V8.90496H16.1798C16.078 10.8468 15.2422 12.6774 13.8415 14.0262L13.8394 14.0283ZM8.90517 12.9623C9.81396 13.0112 10.6633 13.2109 11.4467 13.536L11.3957 13.5176C10.7681 14.9485 9.88479 15.9316 8.90517 16.1477V12.9623ZM8.90517 12.152V8.90496H12.3533C12.326 10.2496 12.0928 11.582 11.662 12.856L11.6896 12.7633C10.8102 12.4018 9.87486 12.1952 8.925 12.1527L8.90588 12.152H8.90517ZM8.90517 8.09463V4.84763C9.88066 4.80311 10.841 4.58956 11.7435 4.2165L11.6875 4.23705C12.0806 5.38384 12.3222 6.70559 12.3533 8.07975V8.09463H8.90517ZM8.90517 4.0373V0.853338C9.88479 1.06938 10.7681 2.0483 11.3957 3.48338C10.6633 3.78796 9.81396 3.987 8.92571 4.03659L8.90517 4.0373ZM10.9268 1.20396C11.7614 1.48236 12.542 1.90214 13.2345 2.44496L13.2182 2.43221C12.9044 2.67871 12.5524 2.91105 12.1812 3.11292L12.1415 3.13275C11.8416 2.42494 11.4292 1.77025 10.9204 1.19405L10.9268 1.20184V1.20396ZM8.09342 0.855463V4.0373C7.21968 3.99272 6.36006 3.79866 5.55192 3.46355L5.60292 3.48196C6.23334 2.05113 7.11521 1.06867 8.09484 0.852629L8.09342 0.855463ZM4.85775 3.13063C4.47378 2.92405 4.10793 2.68544 3.76409 2.41734L3.78109 2.43009C4.45339 1.9032 5.20959 1.49325 6.018 1.21742L6.07184 1.20113C5.5763 1.76173 5.17252 2.39716 4.87546 3.08388L4.85775 3.13063ZM8.09484 4.84692V8.09392H4.64667C4.67784 6.70488 4.91938 5.38313 5.34013 4.14355L5.3125 4.23634C6.19159 4.59721 7.1264 4.80354 8.07571 4.84621L8.09484 4.84692ZM8.09484 8.90425V12.1513C7.11934 12.1958 6.15898 12.4093 5.25654 12.7824L5.3125 12.7618C4.91938 11.6158 4.67784 10.2933 4.64667 8.91913V8.90425H8.09484ZM8.09484 12.9616V16.1455C7.11521 15.9295 6.23192 14.9506 5.60434 13.5155C6.33675 13.2109 7.18604 13.0126 8.07429 12.963L8.09484 12.9616ZM6.07609 15.7949C5.24163 15.5173 4.46104 15.0985 3.76834 14.5568L3.78534 14.5695C4.09913 14.323 4.45117 14.0907 4.82234 13.8888L4.862 13.869C5.15942 14.5771 5.57179 15.2312 6.08246 15.8048L6.07609 15.7978V15.7949ZM12.1423 13.8683C12.5531 14.0914 12.9051 14.323 13.2359 14.5815L13.2189 14.5688C12.5466 15.0957 11.7904 15.5056 10.982 15.7815L10.9282 15.7978C11.4237 15.2374 11.8275 14.6022 12.1245 13.9157L12.1423 13.8697V13.8683ZM16.1798 8.09463H13.1615C13.1398 6.62905 12.8869 5.17609 12.4121 3.78938L12.4412 3.88713C12.9415 3.62367 13.4153 3.31245 13.8557 2.9578L13.8387 2.97055C15.2364 4.31427 16.0725 6.1381 16.1783 8.07409L16.179 8.09392L16.1798 8.09463ZM3.16059 2.97125C3.56859 3.30275 4.02688 3.60663 4.51279 3.86517L4.55884 3.88784C4.12463 5.13946 3.86325 6.58234 3.83846 8.0833V8.09463H0.819544C0.921326 6.1528 1.75713 4.32219 3.15775 2.97338L3.16059 2.97125ZM0.820253 8.90496H3.83846C3.86017 10.3705 4.11309 11.8235 4.58788 13.2102L4.55884 13.1125C4.02688 13.3951 3.56929 13.699 3.14429 14.0418L3.16129 14.029C1.76357 12.6853 0.927469 10.8615 0.821669 8.9255L0.820961 8.90567L0.820253 8.90496Z" fill="#9595A6"/>
</g>
<defs>
<clipPath id="clip0_3326_3416">
<rect width="19" height="19" fill="white"/>
</clipPath>
</defs>
</svg>
