<svg width="24" height="24" viewBox="0 0 24 24" fill="none" xmlns="http://www.w3.org/2000/svg">
<path d="M7.87322 10.7283C8.21745 7.63026 10.8361 5.2865 13.9531 5.2865V5.2865C17.0702 5.2865 19.6888 7.63026 20.033 10.7283L20.3088 13.2099C20.4502 14.483 20.8646 15.7105 21.5236 16.8089L22.1566 17.8639C22.4386 18.3339 22.5796 18.5689 22.6324 18.7514C22.8601 19.5385 22.3956 20.3589 21.6035 20.5686C21.4198 20.6172 21.1458 20.6172 20.5976 20.6172H7.3086C6.76049 20.6172 6.48644 20.6172 6.30278 20.5686C5.51063 20.3589 5.04613 19.5385 5.27387 18.7514C5.32667 18.5689 5.46767 18.3339 5.74967 17.8639L6.38265 16.8089C7.04167 15.7105 7.45604 14.483 7.59749 13.2099L7.87322 10.7283Z" stroke="#9595A6" stroke-width="1.45"/>
<path d="M10.7799 21.0616C10.9671 21.8766 11.3795 22.5967 11.9532 23.1103C12.527 23.6239 13.2299 23.9023 13.9531 23.9023C14.6763 23.9023 15.3793 23.6239 15.953 23.1103C16.5267 22.5967 16.9392 21.8766 17.1263 21.0616" stroke="#9595A6" stroke-width="1.46007" stroke-linecap="round"/>
</svg>
