<svg width="26" height="24" viewBox="0 0 26 24" fill="none" xmlns="http://www.w3.org/2000/svg">
<path d="M9.83256 21.0999L0.75433 12.6999C0.646576 12.5999 0.570431 12.4916 0.525893 12.3749C0.480636 12.2582 0.458008 12.1332 0.458008 11.9999C0.458008 11.8666 0.480636 11.7416 0.525893 11.6249C0.570431 11.5082 0.646576 11.3999 0.75433 11.2999L9.83256 2.8749C10.084 2.64157 10.3983 2.5249 10.7754 2.5249C11.1525 2.5249 11.4758 2.6499 11.7452 2.8999C12.0146 3.1499 12.1493 3.44157 12.1493 3.7749C12.1493 4.10824 12.0146 4.3999 11.7452 4.6499L3.8253 11.9999L11.7452 19.3499C11.9966 19.5832 12.1223 19.8706 12.1223 20.2119C12.1223 20.5539 11.9876 20.8499 11.7182 21.0999C11.4489 21.3499 11.1346 21.4749 10.7754 21.4749C10.4162 21.4749 10.1019 21.3499 9.83256 21.0999Z" fill="black"/>
</svg>
