<svg width="27" height="19" viewBox="0 0 27 19" fill="none" xmlns="http://www.w3.org/2000/svg">
<g clip-path="url(#clip0_1509_1481)">
<path d="M11.2323 8.29966L6.15282 13.3943C6.09235 13.4547 6.02684 13.4975 5.95629 13.5225C5.88575 13.5478 5.81016 13.5605 5.72953 13.5605C5.64891 13.5605 5.57332 13.5478 5.50277 13.5225C5.43222 13.4975 5.36671 13.4547 5.30624 13.3943L0.211645 8.29966C0.0705481 8.15856 -1.59819e-07 7.98219 -1.65882e-07 7.77054C-1.71946e-07 7.5589 0.0755873 7.37749 0.226762 7.22632C0.377937 7.07514 0.554308 6.99955 0.755875 6.99955C0.957441 6.99955 1.13381 7.07514 1.28499 7.22631L5.72953 11.6709L10.1741 7.22631C10.3152 7.08522 10.4889 7.01467 10.6953 7.01467C10.9021 7.01467 11.0811 7.09026 11.2323 7.24143C11.3835 7.39261 11.4591 7.56898 11.4591 7.77054C11.4591 7.97211 11.3835 8.14848 11.2323 8.29966Z" fill="#757575"/>
</g>
<defs>
<clipPath id="clip0_1509_1481">
<rect width="27" height="19" fill="white"/>
</clipPath>
</defs>
</svg>
