<svg width="19" height="19" viewBox="0 0 19 19" fill="none" xmlns="http://www.w3.org/2000/svg">
<path d="M13.2316 11.3739L8.15209 16.4685C8.09162 16.5289 8.02611 16.5717 7.95556 16.5967C7.88501 16.6221 7.80943 16.6348 7.7288 16.6348C7.64817 16.6348 7.57259 16.6221 7.50204 16.5967C7.43149 16.5717 7.36598 16.5289 7.30551 16.4685L2.21091 11.3739C2.06982 11.2328 1.99927 11.0564 1.99927 10.8448C1.99927 10.6331 2.07485 10.4517 2.22603 10.3005C2.3772 10.1494 2.55358 10.0738 2.75514 10.0738C2.95671 10.0738 3.13308 10.1494 3.28425 10.3005L7.7288 14.7451L12.1733 10.3005C12.3144 10.1594 12.4882 10.0889 12.6946 10.0889C12.9014 10.0889 13.0804 10.1645 13.2316 10.3157C13.3827 10.4668 13.4583 10.6432 13.4583 10.8448C13.4583 11.0463 13.3827 11.2227 13.2316 11.3739Z" fill="#757575"/>
</svg>
