<svg width="30" height="29" viewBox="0 0 30 29" fill="none" xmlns="http://www.w3.org/2000/svg">
<g id="Frame 1">
<g id="Group">
<path id="Vector" d="M14.7293 24.7193C15.1987 24.7225 15.6506 24.541 15.9874 24.2139C18.2306 22.006 22.7071 16.9336 22.7071 11.583C22.7163 9.46175 21.88 7.42366 20.3825 5.92094C18.8853 4.41786 16.8508 3.57375 14.7292 3.5752H14.2238C12.1847 3.72005 10.2774 4.6371 8.88989 6.13873C7.50275 7.64046 6.73975 9.61431 6.75662 11.6588C6.80702 16.9991 11.243 22.0261 13.4763 24.2184C13.8121 24.543 14.2622 24.7224 14.7292 24.7189L14.7293 24.7193ZM11.5413 11.548C11.5413 10.7025 11.8771 9.89161 12.4752 9.29354C13.0729 8.69583 13.8839 8.35993 14.7293 8.35993C15.5748 8.35993 16.3857 8.6958 16.9834 9.29354C17.5815 9.8916 17.9174 10.7025 17.9174 11.548C17.9174 12.3934 17.5815 13.2043 16.9834 13.8021C16.3857 14.4001 15.5748 14.736 14.7293 14.736C13.8839 14.736 13.0729 14.4002 12.4752 13.8021C11.8772 13.2043 11.5413 12.3934 11.5413 11.548Z" fill="#28B1B9"/>
</g>
</g>
</svg>
