<svg width="24" height="24" viewBox="0 0 24 24" fill="none" xmlns="http://www.w3.org/2000/svg">
<path d="M2 21C1.45 21 0.979333 20.8043 0.588 20.413C0.196 20.021 0 19.55 0 19V6C0 5.45 0.196 4.97933 0.588 4.588C0.979333 4.196 1.45 4 2 4H20C20.55 4 21.021 4.196 21.413 4.588C21.8043 4.97933 22 5.45 22 6V19C22 19.55 21.8043 20.021 21.413 20.413C21.021 20.8043 20.55 21 20 21H2ZM2 19H20V6H2V19ZM7 17H15V16H7V17ZM4 14H6V12H4V14ZM8 14H10V12H8V14ZM12 14H14V12H12V14ZM16 14H18V12H16V14ZM4 10H6V8H4V10ZM8 10H10V8H8V10ZM12 10H14V8H12V10ZM16 10H18V8H16V10Z" fill="#CACACA"/>
</svg>
