<svg width="29" height="29" viewBox="0 0 29 29" fill="none" xmlns="http://www.w3.org/2000/svg">
<g id="mdi:account">
<path id="Vector" d="M14.6667 5C15.9485 5 17.1779 5.50922 18.0843 6.41565C18.9908 7.32208 19.5 8.55145 19.5 9.83333C19.5 11.1152 18.9908 12.3446 18.0843 13.251C17.1779 14.1574 15.9485 14.6667 14.6667 14.6667C13.3848 14.6667 12.1554 14.1574 11.249 13.251C10.3426 12.3446 9.83333 11.1152 9.83333 9.83333C9.83333 8.55145 10.3426 7.32208 11.249 6.41565C12.1554 5.50922 13.3848 5 14.6667 5ZM14.6667 17.0833C20.0075 17.0833 24.3333 19.2463 24.3333 21.9167V24.3333H5V21.9167C5 19.2463 9.32583 17.0833 14.6667 17.0833Z" fill="#28B1B9"/>
</g>
</svg>
