<svg xmlns="http://www.w3.org/2000/svg" viewBox="0 0 32 32">
  <g id="PEOPLE_ICON">
    <path fill="currentColor"
          d="M14.6667 5C15.9485 5 17.1779 5.50922 18.0843 6.41565C18.9908 7.32208 19.5 8.55145 19.5 9.83333C19.5 11.1152 18.9908 12.3446 18.0843 13.251C17.1779 14.1574 15.9485 14.6667 14.6667 14.6667C13.3848 14.6667 12.1554 14.1574 11.249 13.251C10.3426 12.3446 9.83333 11.1152 9.83333 9.83333C9.83333 8.55145 10.3426 7.32208 11.249 6.41565C12.1554 5.50922 13.3848 5 14.6667 5ZM14.6667 17.0833C20.0075 17.0833 24.3333 19.2463 24.3333 21.9167V24.3333H5V21.9167C5 19.2463 9.32583 17.0833 14.6667 17.0833Z"/>
  </g>
  <g id="PHONE_ICON">
    <path fill="currentColor"
          d="M20.8979 15.8671L18.8739 13.8431C17.7565 12.7257 15.9444 12.7257 14.8277 13.8431C14.4114 14.2588 14.152 14.7706 14.0449 15.3067C10.7073 14.6826 7.46113 11.4497 7.25907 8.56019C7.80792 8.45829 8.33244 8.19661 8.75681 7.77282C9.87418 6.65487 9.87418 4.84276 8.75681 3.7254L6.73339 1.70198C5.61602 0.584608 3.80392 0.584608 2.68655 1.70198C-3.38372 7.77282 14.8277 25.9842 20.8979 19.9133C22.0153 18.7966 22.0153 16.9844 20.8979 15.8671Z"/>
  </g>
    <g id="LOCATION_ICON">
    <path fill="currentColor"
          d="M14.7293 24.7193C15.1987 24.7225 15.6506 24.541 15.9874 24.2139C18.2306 22.006 22.7071 16.9336 22.7071 11.583C22.7163 9.46175 21.88 7.42366 20.3825 5.92094C18.8853 4.41786 16.8508 3.57375 14.7292 3.5752H14.2238C12.1847 3.72005 10.2774 4.6371 8.88989 6.13873C7.50275 7.64046 6.73975 9.61431 6.75662 11.6588C6.80702 16.9991 11.243 22.0261 13.4763 24.2184C13.8121 24.543 14.2622 24.7224 14.7292 24.7189L14.7293 24.7193ZM11.5413 11.548C11.5413 10.7025 11.8771 9.89161 12.4752 9.29354C13.0729 8.69583 13.8839 8.35993 14.7293 8.35993C15.5748 8.35993 16.3857 8.6958 16.9834 9.29354C17.5815 9.8916 17.9174 10.7025 17.9174 11.548C17.9174 12.3934 17.5815 13.2043 16.9834 13.8021C16.3857 14.4001 15.5748 14.736 14.7293 14.736C13.8839 14.736 13.0729 14.4002 12.4752 13.8021C11.8772 13.2043 11.5413 12.3934 11.5413 11.548Z"/>
  </g>
</svg>