<svg width="64" height="64" viewBox="0 0 64 64" fill="none" xmlns="http://www.w3.org/2000/svg">
<g id="Group 8711">
<circle id="Ellipse 13" cx="32" cy="32" r="32" fill="#EBF8F9"/>
<g id="Group">
<path id="Vector" d="M39.6656 29.2214C39.6655 29.2214 39.6655 29.2214 39.6655 29.2213L40.3491 27.4271C40.4915 27.0568 40.2066 26.6296 39.8079 26.6296H32.2012C31.7727 26.6296 31.3874 26.8908 31.2286 27.2888L30.6149 28.828C30.3737 29.4329 29.4847 29.3154 29.4089 28.6686L29.3534 28.1947C29.3393 28.0741 29.4335 27.9682 29.5549 27.9682C29.6974 27.9682 29.8398 27.8544 29.8398 27.6833V26.8288C29.8398 26.6864 29.726 26.5439 29.5549 26.5439H28.1593C28.0169 26.5439 27.8744 26.6578 27.8744 26.8288V27.6833C27.8744 27.8258 27.9883 27.9682 28.1593 27.9682C28.2959 27.9682 28.4018 28.0873 28.386 28.2229L28.3336 28.6699C28.2578 29.3173 27.3679 29.4354 27.1258 28.8302L26.5945 27.502C26.4133 27.0488 25.9219 26.7833 25.4787 26.9878C24.2494 27.5552 23.3453 28.7169 23.2038 30.1326L22.6912 34.9459C22.6342 35.4301 22.9475 35.8574 23.4317 35.9428C24.5384 36.1886 25.4172 37.0508 25.4846 38.1824L25.824 43.889C25.8524 44.5441 26.3936 45.0282 27.0486 45.0282H30.7511C31.4062 45.0282 31.9189 44.5156 31.9757 43.889L32.6023 30.7594C32.6023 30.1044 33.1435 29.5917 33.7985 29.5917H39.1529C39.3807 29.5917 39.5802 29.4493 39.6656 29.2214C39.6656 29.2214 39.6656 29.2214 39.6656 29.2214Z" fill="#33A3AA"/>
<path id="Vector_2" d="M32.7745 21.9018C32.7745 24.0567 31.0274 25.8038 28.8725 25.8038C26.7176 25.8038 24.9707 24.0567 24.9707 21.9018C24.9707 19.7469 26.7176 18 28.8725 18C31.0274 18 32.7745 19.7469 32.7745 21.9018Z" fill="#33A3AA"/>
<path id="Vector_3" d="M38.0423 31.5569C38.0423 31.5569 38.0423 31.5569 38.0423 31.5569C37.5582 30.8733 36.7607 31.3006 36.7607 31.8132C36.7607 31.8767 36.766 31.9456 36.7759 32.0189C36.9499 33.3056 38.2534 34.1201 39.5518 34.1201C40.7886 34.1201 41.9872 33.3514 42.2705 32.1475C42.2988 32.0273 42.3145 31.9237 42.3145 31.8418C42.3145 31.2436 41.574 30.9589 41.1183 31.5855C40.5201 32.4113 40.2924 31.2152 39.6088 31.2152C38.9252 31.2152 38.555 32.2975 38.0423 31.5569C38.0423 31.5569 38.0423 31.5569 38.0423 31.5569Z" fill="#33A3AA"/>
<path id="Vector_4" d="M41.6599 34.8323C41.0049 34.9177 40.2643 34.9747 39.5239 34.9747C38.1601 34.9747 36.757 35.3072 35.8886 36.3588C34.8844 37.5746 34.084 39.0328 34.084 40.386C34.084 43.5474 36.5049 45.0568 39.5238 45.0568C42.5143 45.0568 44.9636 43.5758 44.9636 40.386C44.9636 38.3924 43.2264 36.171 41.6599 34.8323C41.6599 34.8323 41.6599 34.8323 41.6599 34.8323ZM39.9226 42.2942C39.9226 42.2942 39.9226 42.2942 39.9226 42.2943V42.8924C39.9226 42.9494 39.8656 43.0062 39.8087 43.0062H39.2392C39.1822 43.0062 39.1253 42.9492 39.1253 42.8924C39.1253 42.5736 38.8588 42.3254 38.5846 42.1628C38.2679 41.9751 38.0526 41.6395 38.0146 41.2405C38.0146 41.1835 38.0716 41.1267 38.1284 41.1267H38.7266C38.8323 41.1267 38.8403 41.2714 38.9026 41.3567C38.9754 41.4564 39.1004 41.5254 39.2392 41.5254H39.7517C40.065 41.5254 40.3213 41.2975 40.3499 41.0129C40.3783 40.6712 40.1221 40.3863 39.7804 40.3863H39.4101C38.698 40.3863 38.043 39.8451 37.986 39.1331C37.9246 38.6004 38.2022 38.1118 38.6279 37.8372C38.9176 37.6504 39.1822 37.3701 39.1822 37.0254C39.1822 36.9684 39.2392 36.9116 39.2961 36.9116H39.8656C39.9226 36.9116 39.9795 36.9686 39.9795 37.0254C39.9795 37.3443 40.246 37.5925 40.5202 37.755C40.8369 37.9428 41.0522 38.2784 41.0902 38.6773C41.0902 38.7343 41.0332 38.7911 40.9764 38.7911H40.4068C40.3011 38.7911 40.2932 38.6465 40.2308 38.5611C40.1581 38.4615 40.033 38.3924 39.8942 38.3924H39.3817C39.0684 38.3924 38.8121 38.6203 38.7835 38.905C38.7551 39.2467 39.0114 39.56 39.3531 39.56H39.7802C40.5777 39.56 41.2327 40.2435 41.1472 41.0694C41.0618 41.6962 40.5492 42.1804 39.9227 42.2942C39.9226 42.2942 39.9226 42.2942 39.9226 42.2942Z" fill="#33A3AA"/>
</g>
</g>
</svg>
