<svg width="64" height="73" viewBox="0 0 64 73" fill="none" xmlns="http://www.w3.org/2000/svg">
<ellipse cx="32" cy="36.6182" rx="32" ry="35.7818" fill="#F79681" fill-opacity="0.5"/>
<path fill-rule="evenodd" clip-rule="evenodd" d="M30.8738 27.535C30.3307 28.2892 29.7297 29.4454 28.8736 31.0988L24.0803 40.3567C23.3352 41.7957 22.8211 42.7933 22.5582 43.5601C22.2989 44.3165 22.3603 44.6355 22.4883 44.846C22.6163 45.0564 22.8714 45.2576 23.6623 45.3751C24.4642 45.4942 25.5864 45.4963 27.2069 45.4963H36.7935C38.414 45.4963 39.5363 45.4942 40.3381 45.3751C41.129 45.2576 41.3841 45.0564 41.5121 44.846C41.6402 44.6355 41.7015 44.3165 41.4422 43.5601C41.1793 42.7933 40.6652 41.7957 39.9202 40.3567L35.1268 31.0988C34.2707 29.4454 33.6697 28.2892 33.1267 27.535C32.5823 26.7791 32.2535 26.6511 32.0002 26.6511C31.7469 26.6511 31.4181 26.7791 30.8738 27.535ZM29.555 26.5855C30.1836 25.7126 30.9355 25.0261 32.0002 25.0261C33.065 25.0261 33.8169 25.7126 34.4454 26.5855C35.0668 27.4485 35.7215 28.713 36.5367 30.2876L36.5699 30.3517L41.3632 39.6095L41.3954 39.6716C42.1006 41.0337 42.6726 42.1384 42.9794 43.0331C43.2943 43.9517 43.4054 44.8604 42.9004 45.6905C42.3954 46.5207 41.5374 46.8398 40.5768 46.9825C39.6413 47.1214 38.3973 47.1214 36.8635 47.1213H36.8635H36.8634H36.7935H27.2069H27.137C25.6031 47.1214 24.3591 47.1214 23.4236 46.9825C22.4631 46.8398 21.605 46.5207 21.1 45.6905C20.595 44.8604 20.7061 43.9517 21.0211 43.0331C21.3278 42.1384 21.8998 41.0337 22.6051 39.6716L22.6372 39.6095L27.4305 30.3517L27.4637 30.2876C28.2789 28.7131 28.9336 27.4486 29.555 26.5855ZM32.0002 32.1713C32.4489 32.1713 32.8127 32.5351 32.8127 32.9838V37.8293C32.8127 38.278 32.4489 38.6418 32.0002 38.6418C31.5515 38.6418 31.1877 38.278 31.1877 37.8293V32.9838C31.1877 32.5351 31.5515 32.1713 32.0002 32.1713ZM32.0002 42.6748C32.5985 42.6748 33.0835 42.1324 33.0835 41.4634C33.0835 40.7944 32.5985 40.252 32.0002 40.252C31.4019 40.252 30.9169 40.7944 30.9169 41.4634C30.9169 42.1324 31.4019 42.6748 32.0002 42.6748Z" fill="#FF1010"/>
</svg>
