<svg width="20" height="20" viewBox="0 0 20 20" fill="none" xmlns="http://www.w3.org/2000/svg">
<path d="M7.60416 17.5834L0.583323 10.5834C0.49999 10.5001 0.441101 10.4098 0.406656 10.3126C0.371656 10.2154 0.354156 10.1112 0.354156 10.0001C0.354156 9.88897 0.371656 9.7848 0.406656 9.68758C0.441101 9.59036 0.49999 9.50008 0.583323 9.41675L7.60416 2.39591C7.7986 2.20147 8.04166 2.10425 8.33332 2.10425C8.62499 2.10425 8.87499 2.20841 9.08332 2.41675C9.29166 2.62508 9.39582 2.86814 9.39582 3.14591C9.39582 3.42369 9.29166 3.66675 9.08332 3.87508L2.95832 10.0001L9.08332 16.1251C9.27777 16.3195 9.37499 16.559 9.37499 16.8434C9.37499 17.1284 9.27082 17.3751 9.06249 17.5834C8.85416 17.7917 8.6111 17.8959 8.33332 17.8959C8.05554 17.8959 7.81249 17.7917 7.60416 17.5834Z" fill="#646464"/>
</svg>
