<svg width="283" height="178" viewBox="0 0 283 178" fill="none" xmlns="http://www.w3.org/2000/svg">
<rect x="-14" y="-54" width="433" height="219" rx="12" fill="url(#paint0_linear_7460_4827)"/>
<g clip-path="url(#clip0_7460_4827)">
<path d="M402.639 166.063C390.869 170.306 378.791 173.304 367.699 174.945C366.713 175.114 365.666 175.227 364.68 175.397C356.299 176.529 347.61 177.321 338.86 177.717C327.152 178.226 315.259 178.056 303.674 177.151C295.909 176.529 288.33 175.567 280.997 174.266C230.467 165.271 175.623 121.993 193.432 72.0402C207.728 31.9308 266.331 12.5266 324.317 28.7062C327.645 29.6113 330.911 30.6862 334.115 31.761C350.137 37.3617 366.96 40.9257 384.029 42.9057C425.809 47.7709 457.545 66.383 462.967 92.9153C470.239 128.782 437.949 153.277 402.639 166.063Z" fill="#ECF8FF" fill-opacity="0.18"/>
<path d="M288.5 164.844C288.344 164.844 288.136 164.844 287.98 164.792C287.356 164.74 286.732 164.688 286.108 164.636C284.808 164.532 283.508 164.376 282.208 164.272H282.156C281.272 164.168 280.44 164.064 279.608 163.96C278.932 163.908 278.36 163.752 277.684 163.7C261.148 162.088 239.724 157.096 227.868 151.688C228.804 151.012 229.272 150.232 229.064 149.66C228.7 148.62 226.412 148.464 223.916 149.296C223.448 149.452 223.032 149.608 222.668 149.816C211.124 145.448 203.376 141.548 198.436 137.856C200.568 136.556 201.816 135.1 201.452 134.112C200.984 132.812 197.812 132.812 194.224 134.06C191.208 130.68 190.428 127.404 190.948 124.18C191.104 123.296 191.312 122.412 191.624 121.58C192.612 118.772 194.952 116.588 198.176 114.924C203.272 112.272 210.552 110.972 217.832 110.764C220.952 113.884 224.28 115.392 225.788 114.144C226.516 113.572 226.672 112.428 226.36 110.972C231.04 111.336 235.408 112.168 238.788 113.364C239.308 113.572 239.88 113.728 240.4 113.936C244.3 115.34 248.148 117.056 251.892 119.032C256.728 121.528 261.356 124.492 265.776 127.768C266.452 128.236 267.076 128.756 267.752 129.276C271.704 132.396 275.448 135.776 278.776 139.312C279.66 140.248 280.856 141.548 282.104 143.056C283.144 144.252 284.236 145.604 285.276 147.06C289.384 152.884 292.92 160.216 288.5 164.844Z" fill="#0F8087"/>
<path d="M278.464 159.384C278.412 159.384 278.36 159.332 278.36 159.28C278.308 158.916 275.032 154.132 267.7 147.996C261.252 142.588 250.28 135.048 234.628 129.588C205.04 119.292 191.208 124.232 191.052 124.284C191 124.284 190.896 124.284 190.896 124.232C190.896 124.18 190.896 124.076 190.948 124.076C191.104 124.024 205.04 119.084 234.68 129.38C264.84 139.832 278.412 158.24 278.568 159.28C278.568 159.28 278.516 159.384 278.464 159.384Z" fill="#180F10"/>
<path d="M276.906 161.547C280.612 159.351 274.003 141.347 262.144 121.335C250.285 101.322 237.667 86.8792 233.961 89.0754C230.255 91.2715 236.864 109.275 248.723 129.288C260.582 149.3 273.2 163.743 276.906 161.547Z" fill="white"/>
<path d="M288.084 164.792C287.46 164.74 286.836 164.688 286.212 164.636C284.912 164.532 283.612 164.376 282.312 164.272H282.26C281.844 164.22 281.428 164.168 281.012 164.116C280.596 164.064 280.128 164.012 279.712 163.96C279.036 163.856 278.36 163.804 277.684 163.7C274.408 163.336 271.236 163.024 267.908 162.4C267.856 162.296 267.804 162.192 267.752 162.088C265.568 157.928 263.332 153.144 261.252 147.944C260.368 145.708 259.484 143.42 258.6 141.08C258.028 139.52 257.508 137.96 256.988 136.4C254.96 130.368 253.296 124.492 251.996 118.98C250.488 112.636 249.5 106.76 249.084 101.768C248.252 92.356 249.344 86.012 252.568 84.92C252.724 84.868 252.932 84.816 253.088 84.816C259.64 83.828 271.548 103.068 280.128 128.652C281.48 132.604 282.624 136.504 283.664 140.3C284.288 142.588 284.86 144.824 285.328 147.008C286.784 153.612 287.72 159.696 288.084 164.792Z" fill="#0F8087"/>
<path d="M279.868 162.504C279.816 162.504 279.764 162.452 279.764 162.4C279.712 162.244 273.732 144.304 265.1 122.828C259.12 108.008 256 95.944 254.336 89.496C253.712 87.052 253.192 85.076 252.984 84.92C252.932 84.92 252.88 84.816 252.88 84.764C252.88 84.712 252.984 84.66 253.036 84.66C253.296 84.712 253.556 85.492 254.544 89.392C256.208 95.84 259.328 107.904 265.308 122.724C273.94 144.2 279.92 162.14 279.972 162.348C279.972 162.4 279.972 162.452 279.868 162.504Z" fill="#180F10"/>
<path d="M267.856 162.556C267.804 162.556 267.804 162.556 267.752 162.504C264.684 159.02 258.444 141.34 258.184 140.56C258.184 140.508 258.184 140.404 258.288 140.404C258.34 140.404 258.444 140.404 258.444 140.508C258.496 140.716 264.892 158.916 267.96 162.348C268.012 162.4 268.012 162.504 267.96 162.556C267.908 162.504 267.856 162.556 267.856 162.556Z" fill="#180F10"/>
<path d="M291.776 154.08C291.412 157.564 291.308 161.464 291.1 165.052C290.268 165 289.436 164.948 288.604 164.896C288.448 164.896 288.24 164.844 288.084 164.844C287.46 164.792 286.836 164.74 286.212 164.688C284.912 164.584 283.612 164.428 282.312 164.324H282.26C281.844 164.272 281.428 164.22 281.012 164.168C280.596 164.116 280.128 164.064 279.712 164.012C279.712 164.012 279.712 164.012 279.712 163.96C279.14 160.736 278.932 157.148 279.348 153.404C279.868 149.192 280.908 145.708 282.156 143.004C282.624 142.016 283.144 141.08 283.612 140.3C286.368 136.036 289.54 134.684 290.84 136.192C293.284 138.844 292.348 145.292 291.776 154.08Z" fill="white"/>
<path d="M266.333 21.5467L264.453 19.6667L257 27.12L249.547 19.6667L247.667 21.5467L255.12 29L247.667 36.4533L249.547 38.3333L257 30.88L264.453 38.3333L266.333 36.4533L258.88 29L266.333 21.5467Z" fill="white"/>
</g>
<path d="M17.9975 81V62.8182H20.7408V78.6385H28.9794V81H17.9975ZM40.7839 75.3448V67.3636H43.4473V81H40.8372V78.6385H40.6951C40.3815 79.3665 39.8784 79.9731 39.1859 80.4585C38.4993 80.9379 37.6441 81.1776 36.6202 81.1776C35.7443 81.1776 34.9689 80.9852 34.2942 80.6005C33.6254 80.2099 33.0987 79.6328 32.714 78.8693C32.3352 78.1058 32.1458 77.1618 32.1458 76.0373V67.3636H34.8002V75.7177C34.8002 76.6469 35.0577 77.3867 35.5726 77.9371C36.0875 78.4876 36.7563 78.7628 37.579 78.7628C38.0762 78.7628 38.5704 78.6385 39.0616 78.3899C39.5588 78.1413 39.9701 77.7655 40.2956 77.2624C40.6271 76.7594 40.7898 76.1201 40.7839 75.3448ZM46.9798 81V79.18L54.3662 69.7962V69.6719H47.2195V67.3636H57.6776V69.299L50.5754 78.5675V78.6918H57.9262V81H46.9798ZM74.2732 81H68.3872V62.8182H74.4596C76.2411 62.8182 77.771 63.1822 79.0494 63.9102C80.3279 64.6322 81.3074 65.6709 81.988 67.0263C82.6746 68.3757 83.0178 69.9944 83.0178 71.8825C83.0178 73.7764 82.6716 75.404 81.9791 76.7653C81.2926 78.1265 80.2983 79.1741 78.9962 79.908C77.6941 80.636 76.1198 81 74.2732 81ZM71.1304 78.603H74.1222C75.5072 78.603 76.6584 78.3426 77.5757 77.8217C78.4931 77.295 79.1797 76.5344 79.6354 75.5401C80.0911 74.5399 80.319 73.3207 80.319 71.8825C80.319 70.4561 80.0911 69.2457 79.6354 68.2514C79.1856 67.2571 78.5138 66.5025 77.6201 65.9876C76.7264 65.4727 75.6167 65.2152 74.2909 65.2152H71.1304V78.603ZM92.3432 81.2752C90.9997 81.2752 89.8426 80.9882 88.872 80.4141C87.9073 79.834 87.1615 79.0202 86.6348 77.9727C86.1139 76.9192 85.8535 75.6851 85.8535 74.2706C85.8535 72.8738 86.1139 71.6428 86.6348 70.5774C87.1615 69.5121 87.8954 68.6805 88.8365 68.0827C89.7834 67.485 90.8902 67.1861 92.1568 67.1861C92.9262 67.1861 93.6719 67.3133 94.394 67.5678C95.1161 67.8223 95.7641 68.2218 96.3382 68.7663C96.9123 69.3108 97.3651 70.0181 97.6966 70.8881C98.028 71.7522 98.1937 72.8028 98.1937 74.0398V74.9808H87.3539V72.9922H95.5925C95.5925 72.2938 95.4505 71.6753 95.1664 71.1367C94.8823 70.5922 94.4828 70.1631 93.9679 69.8494C93.4589 69.5357 92.8611 69.3789 92.1745 69.3789C91.4288 69.3789 90.7778 69.5624 90.2214 69.9293C89.671 70.2904 89.2449 70.7638 88.943 71.3498C88.6471 71.9298 88.4991 72.5601 88.4991 73.2408V74.7944C88.4991 75.7058 88.6589 76.4812 88.9785 77.1204C89.304 77.7596 89.7568 78.2479 90.3368 78.5852C90.9168 78.9167 91.5945 79.0824 92.3699 79.0824C92.8729 79.0824 93.3316 79.0114 93.7459 78.8693C94.1602 78.7214 94.5183 78.5024 94.8201 78.2124C95.122 77.9223 95.3528 77.5643 95.5126 77.1381L98.025 77.5909C97.8238 78.3307 97.4628 78.9788 96.9419 79.5352C96.427 80.0856 95.7789 80.5147 94.9977 80.8224C94.2224 81.1243 93.3375 81.2752 92.3432 81.2752ZM104.043 72.9034V81H101.389V67.3636H103.937V69.5831H104.106C104.419 68.861 104.91 68.281 105.579 67.843C106.254 67.4051 107.103 67.1861 108.127 67.1861C109.056 67.1861 109.87 67.3814 110.569 67.772C111.267 68.1567 111.809 68.7308 112.193 69.4943C112.578 70.2578 112.77 71.2018 112.77 72.3263V81H110.116V72.646C110.116 71.6576 109.858 70.8852 109.343 70.3288C108.829 69.7666 108.121 69.4854 107.222 69.4854C106.606 69.4854 106.059 69.6186 105.579 69.8849C105.106 70.1513 104.73 70.5419 104.452 71.0568C104.18 71.5658 104.043 72.1813 104.043 72.9034ZM117.77 86.1136C117.373 86.1136 117.012 86.0811 116.687 86.016C116.361 85.9568 116.119 85.8917 115.959 85.8207L116.598 83.6456C117.083 83.7758 117.515 83.832 117.894 83.8143C118.273 83.7965 118.607 83.6545 118.897 83.3881C119.193 83.1218 119.454 82.6868 119.679 82.0831L120.007 81.1776L115.018 67.3636H117.859L121.312 77.946H121.454L124.908 67.3636H127.758L122.138 82.82C121.877 83.5302 121.546 84.1309 121.144 84.6222C120.741 85.1193 120.262 85.4922 119.705 85.7408C119.149 85.9893 118.504 86.1136 117.77 86.1136Z" fill="white"/>
<path d="M17.321 109V98.0909H18.642V107.828H23.7131V109H17.321ZM30.8943 105.655V100.818H32.1514V109H30.8943V107.615H30.8091C30.6173 108.031 30.319 108.384 29.9142 108.675C29.5094 108.963 28.998 109.107 28.3801 109.107C27.8687 109.107 27.4142 108.995 27.0165 108.771C26.6187 108.544 26.3062 108.203 26.079 107.748C25.8517 107.29 25.7381 106.713 25.7381 106.017V100.818H26.9952V105.932C26.9952 106.528 27.1621 107.004 27.4959 107.359C27.8332 107.714 28.2629 107.892 28.7849 107.892C29.0974 107.892 29.4153 107.812 29.7384 107.652C30.0651 107.493 30.3386 107.248 30.5587 106.917C30.7825 106.587 30.8943 106.166 30.8943 105.655ZM34.3695 109V108.041L39.0144 102.075V101.99H34.5187V100.818H40.6337V101.82L36.1167 107.743V107.828H40.7829V109H34.3695ZM45.7242 109.17C45.0424 109.17 44.4405 108.998 43.9185 108.654C43.3965 108.306 42.9881 107.816 42.6933 107.184C42.3986 106.548 42.2512 105.797 42.2512 104.93C42.2512 104.071 42.3986 103.325 42.6933 102.693C42.9881 102.061 43.3982 101.573 43.9238 101.228C44.4494 100.884 45.0566 100.712 45.7455 100.712C46.2782 100.712 46.699 100.8 47.008 100.978C47.3205 101.152 47.5584 101.351 47.7218 101.575C47.8887 101.795 48.0183 101.976 48.1106 102.118H48.2171V98.0909H49.4742V109H48.2597V107.743H48.1106C48.0183 107.892 47.8869 108.08 47.7164 108.308C47.546 108.531 47.3027 108.732 46.9867 108.909C46.6706 109.083 46.2498 109.17 45.7242 109.17ZM45.8947 108.041C46.399 108.041 46.8251 107.91 47.1731 107.647C47.5211 107.381 47.7857 107.013 47.9668 106.544C48.1479 106.072 48.2384 105.527 48.2384 104.909C48.2384 104.298 48.1497 103.764 47.9721 103.306C47.7946 102.844 47.5318 102.485 47.1838 102.23C46.8357 101.971 46.4061 101.841 45.8947 101.841C45.362 101.841 44.9181 101.978 44.563 102.251C44.2115 102.521 43.9469 102.888 43.7693 103.354C43.5953 103.815 43.5083 104.334 43.5083 104.909C43.5083 105.491 43.5971 106.021 43.7747 106.496C43.9558 106.969 44.2221 107.345 44.5737 107.626C44.9288 107.903 45.3691 108.041 45.8947 108.041ZM55.5316 109.17C54.7432 109.17 54.0632 108.996 53.4914 108.648C52.9232 108.297 52.4847 107.807 52.1757 107.178C51.8703 106.546 51.7176 105.811 51.7176 104.973C51.7176 104.135 51.8703 103.396 52.1757 102.757C52.4847 102.114 52.9144 101.614 53.4648 101.255C54.0188 100.893 54.6651 100.712 55.4037 100.712C55.8298 100.712 56.2507 100.783 56.6661 100.925C57.0816 101.067 57.4598 101.298 57.8007 101.617C58.1416 101.933 58.4133 102.352 58.6157 102.874C58.8181 103.396 58.9193 104.039 58.9193 104.803V105.335H52.6125V104.249H57.6409C57.6409 103.787 57.5486 103.375 57.3639 103.013C57.1828 102.651 56.9236 102.365 56.5862 102.155C56.2524 101.946 55.8583 101.841 55.4037 101.841C54.903 101.841 54.4698 101.965 54.104 102.214C53.7418 102.459 53.463 102.778 53.2677 103.173C53.0724 103.567 52.9747 103.989 52.9747 104.44V105.165C52.9747 105.783 53.0813 106.306 53.2943 106.736C53.511 107.162 53.811 107.487 54.1945 107.711C54.5781 107.931 55.0237 108.041 55.5316 108.041C55.8618 108.041 56.1601 107.995 56.4264 107.903C56.6963 107.807 56.9289 107.665 57.1242 107.477C57.3195 107.285 57.4705 107.047 57.577 106.763L58.7915 107.104C58.6637 107.516 58.4488 107.878 58.147 108.19C57.8451 108.499 57.4722 108.741 57.0284 108.915C56.5845 109.085 56.0855 109.17 55.5316 109.17ZM62.2387 104.078V109H60.9816V100.818H62.1961V102.097H62.3026C62.4944 101.681 62.7856 101.347 63.1762 101.095C63.5669 100.839 64.0711 100.712 64.689 100.712C65.243 100.712 65.7277 100.825 66.1432 101.053C66.5587 101.276 66.8818 101.617 67.1127 102.075C67.3435 102.53 67.4589 103.105 67.4589 103.801V109H66.2018V103.886C66.2018 103.244 66.0349 102.743 65.7011 102.384C65.3673 102.022 64.9092 101.841 64.3268 101.841C63.9255 101.841 63.5669 101.928 63.2508 102.102C62.9383 102.276 62.6915 102.53 62.5104 102.864C62.3293 103.197 62.2387 103.602 62.2387 104.078ZM70.4227 112.068C70.2097 112.068 70.0197 112.05 69.8528 112.015C69.6859 111.983 69.5705 111.951 69.5065 111.919L69.8261 110.811C70.1315 110.889 70.4014 110.918 70.6358 110.896C70.8702 110.875 71.0779 110.77 71.259 110.582C71.4437 110.397 71.6124 110.097 71.7651 109.682L71.9994 109.043L68.9739 100.818H70.3375L72.596 107.338H72.6813L74.9398 100.818H76.3034L72.8304 110.193C72.6741 110.616 72.4806 110.966 72.2498 111.243C72.019 111.523 71.7509 111.731 71.4455 111.866C71.1436 112.001 70.8027 112.068 70.4227 112.068ZM84.3982 111.876C83.3115 111.876 82.351 111.727 81.5164 111.429C80.6819 111.134 79.9806 110.699 79.4124 110.124C78.8442 109.549 78.4145 108.844 78.1233 108.009C77.8321 107.175 77.6865 106.219 77.6865 105.143C77.6865 104.103 77.8339 103.173 78.1287 102.352C78.427 101.532 78.8584 100.836 79.423 100.264C79.9912 99.6889 80.6801 99.2504 81.4898 98.9485C82.303 98.6467 83.2228 98.4957 84.249 98.4957C85.2469 98.4957 86.1205 98.6591 86.8698 98.9858C87.6226 99.3089 88.2512 99.7475 88.7554 100.301C89.2632 100.852 89.6432 101.472 89.8953 102.161C90.151 102.849 90.2789 103.56 90.2789 104.291C90.2789 104.806 90.254 105.328 90.2043 105.857C90.1546 106.386 90.0498 106.873 89.89 107.317C89.7302 107.757 89.4834 108.112 89.1496 108.382C88.8194 108.652 88.3719 108.787 87.8073 108.787C87.5587 108.787 87.2853 108.748 86.987 108.67C86.6887 108.592 86.4241 108.462 86.1933 108.281C85.9625 108.1 85.8257 107.857 85.7831 107.551H85.7192C85.634 107.757 85.5026 107.952 85.325 108.137C85.151 108.322 84.922 108.469 84.6379 108.579C84.3574 108.689 84.0147 108.737 83.6098 108.723C83.1482 108.705 82.7416 108.602 82.39 108.414C82.0385 108.222 81.7437 107.963 81.5058 107.636C81.2714 107.306 81.0939 106.924 80.9731 106.491C80.8559 106.054 80.7973 105.584 80.7973 105.08C80.7973 104.6 80.8684 104.162 81.0104 103.764C81.1524 103.366 81.3495 103.018 81.6017 102.72C81.8574 102.422 82.1556 102.184 82.4966 102.006C82.841 101.825 83.2121 101.713 83.6098 101.67C83.9649 101.635 84.2881 101.651 84.5793 101.718C84.8705 101.782 85.1102 101.88 85.2984 102.011C85.4866 102.139 85.6056 102.281 85.6553 102.438H85.7192V101.841H86.8485V106.656C86.8485 106.955 86.9319 107.217 87.0988 107.445C87.2657 107.672 87.509 107.786 87.8286 107.786C88.1908 107.786 88.4678 107.661 88.6596 107.413C88.8549 107.164 88.988 106.781 89.0591 106.262C89.1336 105.744 89.1709 105.08 89.1709 104.27C89.1709 103.794 89.1052 103.325 88.9738 102.864C88.846 102.398 88.6507 101.963 88.3879 101.559C88.1287 101.154 87.8002 100.797 87.4024 100.488C87.0047 100.179 86.5377 99.9375 86.0015 99.7635C85.4689 99.5859 84.8634 99.4972 84.1851 99.4972C83.3506 99.4972 82.6031 99.6268 81.9426 99.886C81.2856 100.142 80.7263 100.516 80.2647 101.01C79.8066 101.5 79.4568 102.097 79.2153 102.8C78.9774 103.499 78.8584 104.295 78.8584 105.186C78.8584 106.092 78.9774 106.896 79.2153 107.599C79.4568 108.302 79.8119 108.895 80.2806 109.378C80.7529 109.861 81.3371 110.227 82.0331 110.475C82.7292 110.728 83.5317 110.854 84.4408 110.854C84.8314 110.854 85.2167 110.816 85.5967 110.742C85.9767 110.667 86.3123 110.586 86.6034 110.497C86.8946 110.408 87.1042 110.342 87.232 110.3L87.5303 111.28C87.3101 111.372 87.0225 111.464 86.6674 111.557C86.3158 111.649 85.9394 111.725 85.5381 111.786C85.1404 111.846 84.7604 111.876 84.3982 111.876ZM83.7803 107.636C84.2561 107.636 84.6414 107.54 84.9362 107.349C85.2309 107.157 85.4458 106.868 85.5807 106.48C85.7157 106.093 85.7831 105.605 85.7831 105.016C85.7831 104.419 85.7086 103.954 85.5594 103.62C85.4103 103.286 85.1901 103.052 84.8989 102.917C84.6077 102.782 84.249 102.714 83.8229 102.714C83.4181 102.714 83.0718 102.821 82.7842 103.034C82.5001 103.244 82.2817 103.524 82.129 103.876C81.9799 104.224 81.9053 104.604 81.9053 105.016C81.9053 105.47 81.9657 105.898 82.0864 106.299C82.2071 106.697 82.4042 107.02 82.6777 107.269C82.9511 107.514 83.3186 107.636 83.7803 107.636ZM95.6131 112.239C95.0058 112.239 94.4838 112.161 94.047 112.004C93.6102 111.852 93.2463 111.649 92.9551 111.397C92.6674 111.148 92.4384 110.882 92.2679 110.598L93.2693 109.895C93.383 110.044 93.5268 110.214 93.7008 110.406C93.8748 110.602 94.1127 110.77 94.4146 110.912C94.72 111.058 95.1195 111.131 95.6131 111.131C96.2736 111.131 96.8187 110.971 97.2484 110.651C97.6781 110.332 97.8929 109.831 97.8929 109.149V107.487H97.7864C97.694 107.636 97.5627 107.821 97.3922 108.041C97.2253 108.258 96.9838 108.451 96.6678 108.622C96.3553 108.789 95.9327 108.872 95.4 108.872C94.7395 108.872 94.1465 108.716 93.6209 108.403C93.0989 108.091 92.6852 107.636 92.3798 107.04C92.0779 106.443 91.927 105.719 91.927 104.866C91.927 104.028 92.0744 103.299 92.3691 102.677C92.6639 102.052 93.074 101.569 93.5996 101.228C94.1252 100.884 94.7324 100.712 95.4213 100.712C95.954 100.712 96.3766 100.8 96.6891 100.978C97.0051 101.152 97.2466 101.351 97.4135 101.575C97.584 101.795 97.7154 101.976 97.8077 102.118H97.9355V100.818H99.15V109.234C99.15 109.938 98.9902 110.509 98.6706 110.95C98.3546 111.393 97.9284 111.718 97.3922 111.924C96.8595 112.134 96.2665 112.239 95.6131 112.239ZM95.5705 107.743C96.0747 107.743 96.5009 107.627 96.8489 107.397C97.1969 107.166 97.4614 106.834 97.6426 106.401C97.8237 105.967 97.9142 105.449 97.9142 104.845C97.9142 104.256 97.8254 103.735 97.6479 103.284C97.4703 102.833 97.2075 102.48 96.8595 102.224C96.5115 101.969 96.0818 101.841 95.5705 101.841C95.0378 101.841 94.5939 101.976 94.2388 102.246C93.8872 102.516 93.6227 102.878 93.4451 103.332C93.2711 103.787 93.1841 104.291 93.1841 104.845C93.1841 105.413 93.2729 105.916 93.4504 106.353C93.6315 106.786 93.8979 107.127 94.2494 107.375C94.6046 107.62 95.0449 107.743 95.5705 107.743ZM101.601 109V100.818H102.816V102.097H102.922C103.093 101.66 103.368 101.321 103.748 101.079C104.128 100.834 104.584 100.712 105.117 100.712C105.657 100.712 106.106 100.834 106.464 101.079C106.827 101.321 107.109 101.66 107.311 102.097H107.397C107.606 101.674 107.92 101.338 108.339 101.09C108.758 100.838 109.261 100.712 109.847 100.712C110.578 100.712 111.177 100.941 111.642 101.399C112.107 101.853 112.34 102.562 112.34 103.524V109H111.083V103.524C111.083 102.92 110.918 102.489 110.587 102.23C110.257 101.971 109.868 101.841 109.421 101.841C108.845 101.841 108.4 102.015 108.084 102.363C107.768 102.707 107.61 103.144 107.61 103.673V109H106.331V103.396C106.331 102.931 106.18 102.556 105.878 102.272C105.577 101.985 105.188 101.841 104.712 101.841C104.385 101.841 104.08 101.928 103.796 102.102C103.515 102.276 103.288 102.517 103.114 102.826C102.943 103.132 102.858 103.485 102.858 103.886V109H101.601ZM117.196 109.192C116.677 109.192 116.207 109.094 115.784 108.899C115.362 108.7 115.026 108.414 114.778 108.041C114.529 107.665 114.405 107.21 114.405 106.678C114.405 106.209 114.497 105.829 114.682 105.538C114.866 105.243 115.113 105.012 115.422 104.845C115.731 104.678 116.072 104.554 116.445 104.472C116.821 104.387 117.199 104.32 117.579 104.27C118.077 104.206 118.48 104.158 118.789 104.126C119.101 104.091 119.328 104.032 119.47 103.95C119.616 103.869 119.689 103.727 119.689 103.524V103.482C119.689 102.956 119.545 102.548 119.257 102.256C118.973 101.965 118.542 101.82 117.963 101.82C117.363 101.82 116.892 101.951 116.551 102.214C116.21 102.477 115.971 102.757 115.832 103.055L114.639 102.629C114.852 102.132 115.136 101.745 115.491 101.468C115.85 101.187 116.241 100.992 116.663 100.882C117.089 100.768 117.508 100.712 117.92 100.712C118.183 100.712 118.485 100.744 118.826 100.808C119.17 100.868 119.502 100.994 119.822 101.186C120.145 101.377 120.413 101.667 120.626 102.054C120.839 102.441 120.946 102.96 120.946 103.609V109H119.689V107.892H119.625C119.54 108.07 119.398 108.26 119.199 108.462C119 108.664 118.735 108.837 118.405 108.979C118.075 109.121 117.672 109.192 117.196 109.192ZM117.388 108.062C117.885 108.062 118.304 107.965 118.645 107.77C118.989 107.574 119.248 107.322 119.422 107.013C119.6 106.704 119.689 106.379 119.689 106.038V104.888C119.636 104.952 119.518 105.01 119.337 105.064C119.16 105.113 118.954 105.158 118.719 105.197C118.489 105.232 118.263 105.264 118.043 105.293C117.826 105.317 117.65 105.339 117.516 105.357C117.189 105.399 116.883 105.468 116.599 105.564C116.319 105.657 116.092 105.797 115.918 105.985C115.747 106.17 115.662 106.422 115.662 106.741C115.662 107.178 115.823 107.509 116.147 107.732C116.473 107.952 116.887 108.062 117.388 108.062ZM123.39 109V100.818H124.648V109H123.39ZM124.03 99.4545C123.785 99.4545 123.573 99.3711 123.396 99.2042C123.222 99.0373 123.135 98.8366 123.135 98.6023C123.135 98.3679 123.222 98.1673 123.396 98.0004C123.573 97.8335 123.785 97.75 124.03 97.75C124.275 97.75 124.484 97.8335 124.658 98.0004C124.836 98.1673 124.925 98.3679 124.925 98.6023C124.925 98.8366 124.836 99.0373 124.658 99.2042C124.484 99.3711 124.275 99.4545 124.03 99.4545ZM128.357 98.0909V109H127.1V98.0909H128.357ZM131.726 109.085C131.463 109.085 131.237 108.991 131.049 108.803C130.861 108.615 130.767 108.389 130.767 108.126C130.767 107.864 130.861 107.638 131.049 107.45C131.237 107.262 131.463 107.168 131.726 107.168C131.989 107.168 132.214 107.262 132.402 107.45C132.59 107.638 132.685 107.864 132.685 108.126C132.685 108.3 132.64 108.46 132.551 108.606C132.466 108.751 132.351 108.869 132.205 108.957C132.063 109.043 131.903 109.085 131.726 109.085ZM138.414 109.17C137.647 109.17 136.987 108.989 136.433 108.627C135.879 108.265 135.453 107.766 135.154 107.13C134.856 106.495 134.707 105.768 134.707 104.952C134.707 104.121 134.86 103.387 135.165 102.752C135.474 102.113 135.904 101.614 136.454 101.255C137.008 100.893 137.654 100.712 138.393 100.712C138.968 100.712 139.487 100.818 139.948 101.031C140.41 101.244 140.788 101.543 141.083 101.926C141.378 102.31 141.561 102.757 141.632 103.268H140.375C140.279 102.896 140.066 102.565 139.735 102.278C139.409 101.987 138.968 101.841 138.414 101.841C137.924 101.841 137.495 101.969 137.125 102.224C136.759 102.477 136.474 102.833 136.268 103.295C136.065 103.753 135.964 104.291 135.964 104.909C135.964 105.541 136.063 106.092 136.262 106.56C136.465 107.029 136.749 107.393 137.115 107.652C137.484 107.912 137.917 108.041 138.414 108.041C138.741 108.041 139.037 107.984 139.304 107.871C139.57 107.757 139.796 107.594 139.98 107.381C140.165 107.168 140.296 106.912 140.375 106.614H141.632C141.561 107.097 141.385 107.532 141.104 107.919C140.827 108.302 140.46 108.608 140.002 108.835C139.547 109.059 139.018 109.17 138.414 109.17ZM146.943 109.17C146.205 109.17 145.556 108.995 144.999 108.643C144.445 108.292 144.012 107.8 143.699 107.168C143.39 106.536 143.236 105.797 143.236 104.952C143.236 104.099 143.39 103.355 143.699 102.72C144.012 102.084 144.445 101.591 144.999 101.239C145.556 100.887 146.205 100.712 146.943 100.712C147.682 100.712 148.328 100.887 148.882 101.239C149.44 101.591 149.873 102.084 150.182 102.72C150.494 103.355 150.651 104.099 150.651 104.952C150.651 105.797 150.494 106.536 150.182 107.168C149.873 107.8 149.44 108.292 148.882 108.643C148.328 108.995 147.682 109.17 146.943 109.17ZM146.943 108.041C147.504 108.041 147.966 107.897 148.328 107.61C148.69 107.322 148.958 106.944 149.132 106.475C149.306 106.006 149.393 105.499 149.393 104.952C149.393 104.405 149.306 103.895 149.132 103.423C148.958 102.951 148.69 102.569 148.328 102.278C147.966 101.987 147.504 101.841 146.943 101.841C146.382 101.841 145.92 101.987 145.558 102.278C145.196 102.569 144.928 102.951 144.754 103.423C144.58 103.895 144.493 104.405 144.493 104.952C144.493 105.499 144.58 106.006 144.754 106.475C144.928 106.944 145.196 107.322 145.558 107.61C145.92 107.897 146.382 108.041 146.943 108.041ZM152.72 109V100.818H153.934V102.097H154.041C154.211 101.66 154.486 101.321 154.866 101.079C155.246 100.834 155.702 100.712 156.235 100.712C156.775 100.712 157.224 100.834 157.583 101.079C157.945 101.321 158.227 101.66 158.43 102.097H158.515C158.724 101.674 159.039 101.338 159.458 101.09C159.877 100.838 160.379 100.712 160.965 100.712C161.697 100.712 162.295 100.941 162.76 101.399C163.226 101.853 163.458 102.562 163.458 103.524V109H162.201V103.524C162.201 102.92 162.036 102.489 161.706 102.23C161.375 101.971 160.987 101.841 160.539 101.841C159.964 101.841 159.518 102.015 159.202 102.363C158.886 102.707 158.728 103.144 158.728 103.673V109H157.45V103.396C157.45 102.931 157.299 102.556 156.997 102.272C156.695 101.985 156.306 101.841 155.83 101.841C155.504 101.841 155.198 101.928 154.914 102.102C154.634 102.276 154.406 102.517 154.232 102.826C154.062 103.132 153.977 103.485 153.977 103.886V109H152.72Z" fill="#DDDDDD"/>
<defs>
<linearGradient id="paint0_linear_7460_4827" x1="121.5" y1="-35" x2="202.5" y2="165" gradientUnits="userSpaceOnUse">
<stop stop-color="#33A3AA"/>
<stop offset="0.369792" stop-color="#3EA3AA" stop-opacity="0.99"/>
<stop offset="1" stop-color="#10969E" stop-opacity="0.99"/>
</linearGradient>
<clipPath id="clip0_7460_4827">
<rect width="312" height="208" fill="white" transform="translate(152 -30)"/>
</clipPath>
</defs>
</svg>
