<svg width="13" height="20" viewBox="0 0 13 20" fill="none" xmlns="http://www.w3.org/2000/svg">
<path d="M9.8325 19.1L0.754269 10.7C0.646515 10.6 0.57037 10.4917 0.525831 10.375C0.480575 10.2584 0.457947 10.1334 0.457947 10C0.457947 9.86669 0.480575 9.74169 0.525831 9.62502C0.57037 9.50836 0.646515 9.40002 0.754269 9.30002L9.8325 0.875024C10.0839 0.641691 10.3982 0.525024 10.7753 0.525024C11.1525 0.525024 11.4757 0.650024 11.7451 0.900024C12.0145 1.15002 12.1492 1.44169 12.1492 1.77502C12.1492 2.10836 12.0145 2.40002 11.7451 2.65002L3.82524 10L11.7451 17.35C11.9965 17.5834 12.1223 17.8707 12.1223 18.212C12.1223 18.554 11.9876 18.85 11.7182 19.1C11.4488 19.35 11.1345 19.475 10.7753 19.475C10.4162 19.475 10.1019 19.35 9.8325 19.1Z" fill="black"/>
</svg>
