<svg width="13" height="13" viewBox="0 0 13 13" fill="none" xmlns="http://www.w3.org/2000/svg">
<g id="ep:arrow-up">
<path id="Vector" d="M6.206 8.62789L1.89162 4.09982C1.8196 4.02427 1.77942 3.92389 1.77942 3.81951C1.77942 3.71513 1.8196 3.61475 1.89162 3.5392L1.8965 3.53432C1.93141 3.49757 1.97344 3.46831 2.02002 3.44831C2.06661 3.42831 2.11677 3.41799 2.16747 3.41799C2.21816 3.41799 2.26832 3.42831 2.31491 3.44831C2.36149 3.46831 2.40352 3.49757 2.43843 3.53432L6.50093 7.79832L10.5618 3.53432C10.5967 3.49757 10.6388 3.46831 10.6853 3.44831C10.7319 3.42831 10.7821 3.41799 10.8328 3.41799C10.8835 3.41799 10.9336 3.42831 10.9802 3.44831C11.0268 3.46831 11.0688 3.49757 11.1037 3.53432L11.1086 3.5392C11.1806 3.61475 11.2208 3.71513 11.2208 3.81951C11.2208 3.92389 11.1806 4.02427 11.1086 4.09982L6.79425 8.62789C6.75631 8.66771 6.71067 8.69941 6.66011 8.72107C6.60956 8.74274 6.55512 8.75391 6.50012 8.75391C6.44512 8.75391 6.39069 8.74274 6.34013 8.72107C6.28957 8.69941 6.24394 8.66771 6.206 8.62789Z" fill="#54617A"/>
</g>
</svg>
