<svg width="28" height="24" viewBox="0 0 28 24" fill="none" xmlns="http://www.w3.org/2000/svg">
<path opacity="0.4" d="M24.7911 9.15004C24.2368 8.37004 23.6034 7.67004 22.9473 7.04004L18.6829 10.81C18.8186 11.18 18.8978 11.58 18.8978 12C18.8978 14.24 16.8504 16.04 14.3279 16.04C13.8529 16.04 13.4004 15.97 12.9819 15.85L9.06812 19.31C10.7196 20.13 12.5068 20.56 14.3279 20.56C16.3414 20.56 18.2983 20.04 20.0855 19.07C21.8727 18.09 23.4789 16.66 24.7911 14.84C25.9222 13.28 25.9222 10.72 24.7911 9.15004Z" fill="#D9D9D9"/>
<path d="M16.6128 9.98014L12.0429 14.0201C11.4661 13.5001 11.0928 12.7801 11.0928 12.0001C11.0928 10.4301 12.5406 9.14014 14.3279 9.14014C15.2101 9.14014 16.0246 9.47014 16.6128 9.98014Z" fill="#D9D9D9"/>
<path opacity="0.4" d="M21.3975 5.75018L17.5629 9.14018C16.7372 8.40018 15.5947 7.96018 14.3278 7.96018C11.7941 7.96018 9.75799 9.77018 9.75799 12.0002C9.75799 13.1202 10.267 14.1302 11.0927 14.8602L7.26947 18.2502H7.25816C6.00259 17.3502 4.84882 16.2002 3.86472 14.8402C2.73357 13.2702 2.73357 10.7202 3.86472 9.15018C5.17685 7.33017 6.78308 5.90018 8.57029 4.92018C10.3575 3.96018 12.3144 3.43018 14.3278 3.43018C16.8503 3.43018 19.2936 4.25018 21.3975 5.75018Z" fill="#D9D9D9"/>
<path d="M17.5631 12.0001C17.5631 13.5701 16.1152 14.8601 14.328 14.8601C14.2602 14.8601 14.2036 14.8601 14.1357 14.8401L17.5405 11.8301C17.5631 11.8901 17.5631 11.9401 17.5631 12.0001Z" fill="#D9D9D9"/>
<path d="M25.3793 2.22988C25.04 1.92988 24.4857 1.92988 24.1464 2.22988L3.27672 20.6899C2.93738 20.9899 2.93738 21.4799 3.27672 21.7799C3.4464 21.9199 3.66131 21.9999 3.88754 21.9999C4.11377 21.9999 4.32869 21.9199 4.49836 21.7699L25.3793 3.30988C25.73 3.00988 25.73 2.52988 25.3793 2.22988Z" fill="#D9D9D9"/>
</svg>
