<svg width="17" height="17" viewBox="0 0 17 17" fill="none" xmlns="http://www.w3.org/2000/svg">
<g id="fontisto:world-o" clip-path="url(#clip0_4119_19665)">
<path id="Vector" d="M17 8.50028V8.49603C17 5.98074 15.9049 3.72187 14.166 2.16849L14.1575 2.16141C14.136 2.13826 14.112 2.11759 14.0859 2.09978L14.0845 2.09908C12.54 0.742993 10.5539 -0.00301256 8.49859 0.000992606C6.35092 0.000992606 4.39025 0.798576 2.89567 2.11466L2.90488 2.10687C2.88686 2.12053 2.87025 2.13595 2.85529 2.15291C1.95679 2.9485 1.2376 3.92664 0.745351 5.02116C0.253106 6.11568 -0.000954046 7.3023 2.69214e-06 8.50241C2.69214e-06 11.017 1.09367 13.2759 2.83121 14.83L2.83971 14.837C2.86221 14.8626 2.88738 14.8856 2.91479 14.9057L2.91621 14.9065C4.46026 16.2605 6.4449 17.0054 8.49859 17.0017C10.5619 17.0049 12.555 16.2531 14.1022 14.888L14.093 14.8958C15.0071 14.1011 15.7398 13.1193 16.2416 12.0169C16.7433 10.9145 17.0025 9.71719 17.0014 8.50595V8.50099L17 8.50028ZM13.8394 14.0288C13.4184 13.6882 12.9655 13.3889 12.4872 13.1349L12.4412 13.1122C12.8754 11.8606 13.1368 10.4177 13.1615 8.91678V8.90545H16.1798C16.078 10.8473 15.2422 12.6779 13.8415 14.0267L13.8394 14.0288ZM8.90517 12.9628C9.81396 13.0117 10.6633 13.2114 11.4467 13.5365L11.3957 13.5181C10.7681 14.949 9.88479 15.9321 8.90517 16.1482V12.9628ZM8.90517 12.1525V8.90545H12.3533C12.326 10.2501 12.0928 11.5825 11.662 12.8565L11.6896 12.7637C10.8102 12.4023 9.87486 12.1957 8.925 12.1532L8.90517 12.1525ZM8.90517 8.09512V4.84812C9.88066 4.8036 10.841 4.59005 11.7435 4.21699L11.6875 4.23753C12.0806 5.38433 12.3222 6.70608 12.3533 8.08024V8.09512H8.90517ZM8.90517 4.03778V0.853826C9.88479 1.06987 10.7681 2.04878 11.3957 3.48387C10.6633 3.78845 9.81396 3.98749 8.92571 4.03708L8.90517 4.03778ZM10.9268 1.20445C11.7614 1.48285 12.542 1.90263 13.2345 2.44545L13.2182 2.4327C12.9044 2.6792 12.5524 2.91153 12.1812 3.11341L12.1415 3.13324C11.8416 2.42542 11.4292 1.77074 10.9204 1.19453L10.9268 1.20233V1.20445ZM8.09342 0.855951V4.03778C7.21968 3.99321 6.36006 3.79915 5.55192 3.46403L5.60292 3.48245C6.23334 2.05162 7.11521 1.06916 8.09484 0.853118L8.09342 0.855951ZM4.85775 3.13112C4.47378 2.92454 4.10793 2.68593 3.76409 2.41783L3.78109 2.43058C4.45339 1.90368 5.20959 1.49373 6.018 1.21791L6.07184 1.20162C5.5763 1.76222 5.17252 2.39765 4.87546 3.08437L4.85775 3.13112ZM8.09484 4.84741V8.09441H4.64667C4.67784 6.70537 4.91938 5.38362 5.34013 4.14403L5.3125 4.23683C6.19159 4.5977 7.1264 4.80402 8.07571 4.8467L8.09484 4.84741ZM8.09484 8.90474V12.1517C7.11934 12.1963 6.15898 12.4098 5.25654 12.7829L5.3125 12.7623C4.91938 11.6162 4.67784 10.2938 4.64667 8.91962V8.90474H8.09484ZM8.09484 12.9621V16.146C7.11521 15.93 6.23192 14.9511 5.60434 13.516C6.33675 13.2114 7.18604 13.0131 8.07429 12.9635L8.09484 12.9621ZM6.07609 15.7954C5.24163 15.5178 4.46104 15.099 3.76834 14.5572L3.78534 14.57C4.09913 14.3235 4.45117 14.0912 4.82234 13.8893L4.862 13.8695C5.15942 14.5776 5.57179 15.2317 6.08246 15.8053L6.07609 15.7982V15.7954ZM12.1423 13.8687C12.5531 14.0919 12.9051 14.3235 13.2359 14.582L13.2189 14.5693C12.5466 15.0962 11.7904 15.5061 10.982 15.782L10.9282 15.7982C11.4237 15.2379 11.8275 14.6027 12.1245 13.9162L12.1423 13.8702V13.8687ZM16.1798 8.09512H13.1615C13.1398 6.62954 12.8869 5.17658 12.4121 3.78987L12.4412 3.88762C12.9415 3.62416 13.4153 3.31294 13.8557 2.95828L13.8387 2.97103C15.2364 4.31476 16.0725 6.13859 16.1783 8.07458L16.179 8.09441L16.1798 8.09512ZM3.16059 2.97174C3.56859 3.30324 4.02688 3.60712 4.51279 3.86566L4.55884 3.88833C4.12463 5.13995 3.86325 6.58283 3.83846 8.08378V8.09512H0.819544C0.921326 6.15329 1.75713 4.32268 3.15775 2.97387L3.16059 2.97174ZM0.820253 8.90545H3.83846C3.86017 10.371 4.11309 11.824 4.58788 13.2107L4.55884 13.113C4.02688 13.3956 3.56929 13.6995 3.14429 14.0423L3.16129 14.0295C1.76357 12.6858 0.927469 10.862 0.821669 8.92599L0.820961 8.90616L0.820253 8.90545Z" fill="#9595A6"/>
</g>
<defs>
<clipPath id="clip0_4119_19665">
<rect width="17" height="17" fill="white"/>
</clipPath>
</defs>
</svg>
