<svg width="122" height="119" viewBox="0 0 122 119" fill="none" xmlns="http://www.w3.org/2000/svg">
<path d="M59.509 105.42C85.298 105.42 106.204 84.5143 106.204 58.7253C106.204 32.9364 85.298 12.0303 59.509 12.0303C33.7201 12.0303 12.814 32.9364 12.814 58.7253C12.814 84.5143 33.7201 105.42 59.509 105.42Z" fill="url(#paint0_linear_3818_7028)"/>
<path d="M84.7007 22.896H32.9724C29.7481 22.896 27.1343 25.5098 27.1343 28.7341H90.5388C90.5388 25.5098 87.925 22.896 84.7007 22.896Z" fill="#56A0C9"/>
<path d="M27.1343 28.5747H90.5388V76.8646C90.5388 79.0116 89.6859 81.0707 88.1677 82.5888C86.6496 84.107 84.5905 84.9599 82.4435 84.9599H35.2296C33.0826 84.9599 31.0235 84.107 29.5053 82.5888C27.9872 81.0707 27.1343 79.0116 27.1343 76.8646V28.5747Z" fill="white" fill-opacity="0.5"/>
<path d="M79.6403 34.6738H38.054C37.1879 34.6738 36.4858 35.3752 36.4858 36.2403C36.4858 37.1054 37.1879 37.8067 38.054 37.8067H79.6403C80.5063 37.8067 81.2084 37.1054 81.2084 36.2403C81.2084 35.3752 80.5063 34.6738 79.6403 34.6738Z" fill="url(#paint1_linear_3818_7028)"/>
<path d="M79.6403 47.9844H38.054C37.1879 47.9844 36.4858 48.6857 36.4858 49.5508C36.4858 50.4159 37.1879 51.1173 38.054 51.1173H79.6403C80.5063 51.1173 81.2084 50.4159 81.2084 49.5508C81.2084 48.6857 80.5063 47.9844 79.6403 47.9844Z" fill="url(#paint2_linear_3818_7028)"/>
<path d="M79.6403 61.2949H38.054C37.1879 61.2949 36.4858 61.9962 36.4858 62.8614C36.4858 63.7265 37.1879 64.4278 38.054 64.4278H79.6403C80.5063 64.4278 81.2084 63.7265 81.2084 62.8614C81.2084 61.9962 80.5063 61.2949 79.6403 61.2949Z" fill="url(#paint3_linear_3818_7028)"/>
<path d="M79.6403 74.6055H38.054C37.1879 74.6055 36.4858 75.3068 36.4858 76.1719C36.4858 77.037 37.1879 77.7384 38.054 77.7384H79.6403C80.5063 77.7384 81.2084 77.037 81.2084 76.1719C81.2084 75.3068 80.5063 74.6055 79.6403 74.6055Z" fill="url(#paint4_linear_3818_7028)"/>
<g filter="url(#filter0_d_3818_7028)">
<path d="M37.7724 58.4399H15.6284C13.8494 58.4399 12.4072 59.8821 12.4072 61.6611V93.3124C12.4072 95.0914 13.8494 96.5335 15.6284 96.5335H37.7724C39.5514 96.5335 40.9935 95.0914 40.9935 93.3124V61.6611C40.9935 59.8821 39.5514 58.4399 37.7724 58.4399Z" fill="url(#paint5_linear_3818_7028)" fill-opacity="0.8" shape-rendering="crispEdges"/>
</g>
<g filter="url(#filter1_d_3818_7028)">
<path d="M100.809 9H76.3503C75.2106 9 74.2866 9.92395 74.2866 11.0637V22.56C74.2866 23.6998 75.2106 24.6237 76.3503 24.6237H100.809C101.949 24.6237 102.873 23.6998 102.873 22.56V11.0637C102.873 9.92395 101.949 9 100.809 9Z" fill="white" fill-opacity="0.5" shape-rendering="crispEdges"/>
</g>
<path d="M35.3011 74.2739H18.0991C17.5199 74.2739 17.0503 74.7435 17.0503 75.3228V75.3261C17.0503 75.9054 17.5199 76.375 18.0991 76.375H35.3011C35.8804 76.375 36.35 75.9054 36.35 75.3261V75.3228C36.35 74.7435 35.8804 74.2739 35.3011 74.2739Z" fill="url(#paint6_linear_3818_7028)"/>
<path d="M35.3108 89.0581H18.2566C17.6823 89.0581 17.2168 89.513 17.2168 90.0742V90.0775C17.2168 90.6387 17.6823 91.0936 18.2566 91.0936H35.3108C35.8851 91.0936 36.3506 90.6387 36.3506 90.0775V90.0742C36.3506 89.513 35.8851 89.0581 35.3108 89.0581Z" fill="url(#paint7_linear_3818_7028)"/>
<path d="M35.3108 81.3232H18.2566C17.6823 81.3232 17.2168 81.7782 17.2168 82.3394V82.3426C17.2168 82.9038 17.6823 83.3588 18.2566 83.3588H35.3108C35.8851 83.3588 36.3506 82.9038 36.3506 82.3426V82.3394C36.3506 81.7782 35.8851 81.3232 35.3108 81.3232Z" fill="url(#paint8_linear_3818_7028)"/>
<path d="M24.3888 63.3276H19.3619C18.2484 63.3276 17.3457 64.2303 17.3457 65.3438V66.7389C17.3457 67.8524 18.2484 68.755 19.3619 68.755H24.3888C25.5023 68.755 26.4049 67.8524 26.4049 66.7389V65.3438C26.4049 64.2303 25.5023 63.3276 24.3888 63.3276Z" fill="url(#paint9_linear_3818_7028)"/>
<path d="M80.3233 19.1827C81.6336 19.1827 82.6958 18.1204 82.6958 16.8101C82.6958 15.4997 81.6336 14.4375 80.3233 14.4375C79.0129 14.4375 77.9507 15.4997 77.9507 16.8101C77.9507 18.1204 79.0129 19.1827 80.3233 19.1827Z" fill="#56A0C9"/>
<path d="M88.8023 19.1827C90.1126 19.1827 91.1748 18.1204 91.1748 16.8101C91.1748 15.4997 90.1126 14.4375 88.8023 14.4375C87.4919 14.4375 86.4297 15.4997 86.4297 16.8101C86.4297 18.1204 87.4919 19.1827 88.8023 19.1827Z" fill="#56A0C9"/>
<path d="M97.2808 19.1827C98.5911 19.1827 99.6534 18.1204 99.6534 16.8101C99.6534 15.4997 98.5911 14.4375 97.2808 14.4375C95.9704 14.4375 94.9082 15.4997 94.9082 16.8101C94.9082 18.1204 95.9704 19.1827 97.2808 19.1827Z" fill="#56A0C9"/>
<path d="M90.8478 75.7714L84.8389 82.396L101.776 97.7592L107.785 91.1346L90.8478 75.7714Z" fill="#58A0C9"/>
<path fill-rule="evenodd" clip-rule="evenodd" d="M97.198 64.807C97.198 78.6659 85.9632 89.9007 72.1044 89.9007C58.2456 89.9007 47.0107 78.6659 47.0107 64.807C47.0107 50.9482 58.2456 39.7134 72.1044 39.7134C85.9632 39.7134 97.198 50.9482 97.198 64.807ZM93.3489 64.8071C93.3489 76.5401 83.8374 86.0516 72.1043 86.0516C60.3713 86.0516 50.8597 76.5401 50.8597 64.8071C50.8597 53.074 60.3713 43.5625 72.1043 43.5625C83.8374 43.5625 93.3489 53.074 93.3489 64.8071Z" fill="#5AA0C9"/>
<g opacity="0.6" filter="url(#filter2_b_3818_7028)">
<path d="M72.1044 86.0516C83.8375 86.0516 93.349 76.5401 93.349 64.8071C93.349 53.074 83.8375 43.5625 72.1044 43.5625C60.3714 43.5625 50.8599 53.074 50.8599 64.8071C50.8599 76.5401 60.3714 86.0516 72.1044 86.0516Z" fill="url(#paint10_linear_3818_7028)" fill-opacity="0.2"/>
</g>
<g filter="url(#filter3_f_3818_7028)">
<ellipse cx="72.8072" cy="76.5407" rx="14.9347" ry="2.20626" fill="#CDB2B8" fill-opacity="0.56"/>
</g>
<path d="M54.9291 93.7559C55.2964 92.2343 57.4607 92.2343 57.828 93.7559C57.9593 94.2996 58.3838 94.7242 58.9275 94.8554C60.4491 95.2227 60.4491 97.387 58.9275 97.7543C58.3838 97.8855 57.9593 98.3101 57.828 98.8538C57.4607 100.375 55.2964 100.375 54.9291 98.8538C54.7979 98.3101 54.3733 97.8855 53.8296 97.7543C52.308 97.387 52.308 95.2227 53.8296 94.8554C54.3733 94.7242 54.7979 94.2996 54.9291 93.7559Z" fill="#56A0C9"/>
<path d="M21.1396 15.5923C21.5069 14.0707 23.6712 14.0707 24.0384 15.5923C24.1697 16.136 24.5942 16.5606 25.138 16.6918C26.6596 17.0591 26.6596 19.2234 25.138 19.5907C24.5943 19.722 24.1697 20.1465 24.0384 20.6902C23.6712 22.2118 21.5069 22.2118 21.1396 20.6902C21.0083 20.1465 20.5838 19.722 20.04 19.5907C18.5185 19.2234 18.5185 17.0591 20.04 16.6918C20.5838 16.5606 21.0083 16.136 21.1396 15.5923Z" fill="#56A0C9"/>
<path fill-rule="evenodd" clip-rule="evenodd" d="M57.6476 13.5082C58.4349 13.5082 59.0731 12.8699 59.0731 12.0826C59.0731 11.2953 58.4349 10.6571 57.6476 10.6571C56.8603 10.6571 56.222 11.2953 56.222 12.0826C56.222 12.8699 56.8603 13.5082 57.6476 13.5082ZM57.6476 14.5774C59.0254 14.5774 60.1423 13.4604 60.1423 12.0826C60.1423 10.7048 59.0254 9.58789 57.6476 9.58789C56.2698 9.58789 55.1528 10.7048 55.1528 12.0826C55.1528 13.4604 56.2698 14.5774 57.6476 14.5774Z" fill="#56A0C9"/>
<path d="M102.42 54.5045C102.087 53.1985 103.293 52.0217 104.59 52.3863L104.694 52.4155C105.991 52.7801 106.408 54.4127 105.443 55.3541L105.366 55.4293C104.401 56.3707 102.779 55.9149 102.446 54.6088L102.42 54.5045Z" fill="#56A0C9"/>
<path d="M16.6538 47.0833C17.9603 46.752 19.1355 47.9592 18.7692 49.2563L18.7399 49.36C18.3736 50.6571 16.7405 51.0712 15.8004 50.1054L15.7252 50.0282C14.7851 49.0625 15.243 47.4411 16.5494 47.1098L16.6538 47.0833Z" fill="#56A0C9"/>
<path d="M84.6402 96.3431C85.9466 96.0118 87.1218 97.219 86.7555 98.5161L86.7262 98.6197C86.3599 99.9168 84.7268 100.331 83.7867 99.3652L83.7116 99.288C82.7714 98.3222 83.2293 96.7009 84.5358 96.3696L84.6402 96.3431Z" fill="#56A0C9"/>
<path fill-rule="evenodd" clip-rule="evenodd" d="M105.278 34.2704C106.066 34.2704 106.704 33.6321 106.704 32.8448C106.704 32.0575 106.066 31.4193 105.278 31.4193C104.491 31.4193 103.853 32.0575 103.853 32.8448C103.853 33.6321 104.491 34.2704 105.278 34.2704ZM105.278 35.3396C106.656 35.3396 107.773 34.2226 107.773 32.8448C107.773 31.467 106.656 30.3501 105.278 30.3501C103.901 30.3501 102.784 31.467 102.784 32.8448C102.784 34.2226 103.901 35.3396 105.278 35.3396Z" fill="#56A0C9"/>
<path d="M101.775 97.7603L107.784 91.1357L108.689 91.9566C109.567 92.7531 110.093 93.8659 110.15 95.0501C110.208 96.2342 109.793 97.3928 108.997 98.271C108.2 99.1491 107.087 99.6749 105.903 99.7326C104.719 99.7903 103.56 99.3752 102.682 98.5787L101.777 97.7577L101.775 97.7603Z" fill="#5AA1C9"/>
<defs>
<filter id="filter0_d_3818_7028" x="0.407227" y="50.4399" width="58.5864" height="68.0938" filterUnits="userSpaceOnUse" color-interpolation-filters="sRGB">
<feFlood flood-opacity="0" result="BackgroundImageFix"/>
<feColorMatrix in="SourceAlpha" type="matrix" values="0 0 0 0 0 0 0 0 0 0 0 0 0 0 0 0 0 0 127 0" result="hardAlpha"/>
<feOffset dx="3" dy="7"/>
<feGaussianBlur stdDeviation="7.5"/>
<feComposite in2="hardAlpha" operator="out"/>
<feColorMatrix type="matrix" values="0 0 0 0 0.104618 0 0 0 0 0.465612 0 0 0 0 0.545833 0 0 0 0.15 0"/>
<feBlend mode="normal" in2="BackgroundImageFix" result="effect1_dropShadow_3818_7028"/>
<feBlend mode="normal" in="SourceGraphic" in2="effect1_dropShadow_3818_7028" result="shape"/>
</filter>
<filter id="filter1_d_3818_7028" x="67.2866" y="0" width="54.5864" height="41.6235" filterUnits="userSpaceOnUse" color-interpolation-filters="sRGB">
<feFlood flood-opacity="0" result="BackgroundImageFix"/>
<feColorMatrix in="SourceAlpha" type="matrix" values="0 0 0 0 0 0 0 0 0 0 0 0 0 0 0 0 0 0 127 0" result="hardAlpha"/>
<feOffset dx="6" dy="4"/>
<feGaussianBlur stdDeviation="6.5"/>
<feComposite in2="hardAlpha" operator="out"/>
<feColorMatrix type="matrix" values="0 0 0 0 0.104618 0 0 0 0 0.465612 0 0 0 0 0.545833 0 0 0 0.09 0"/>
<feBlend mode="normal" in2="BackgroundImageFix" result="effect1_dropShadow_3818_7028"/>
<feBlend mode="normal" in="SourceGraphic" in2="effect1_dropShadow_3818_7028" result="shape"/>
</filter>
<filter id="filter2_b_3818_7028" x="34.1847" y="26.8874" width="75.8395" height="75.8395" filterUnits="userSpaceOnUse" color-interpolation-filters="sRGB">
<feFlood flood-opacity="0" result="BackgroundImageFix"/>
<feGaussianBlur in="BackgroundImageFix" stdDeviation="8.33757"/>
<feComposite in2="SourceAlpha" operator="in" result="effect1_backgroundBlur_3818_7028"/>
<feBlend mode="normal" in="SourceGraphic" in2="effect1_backgroundBlur_3818_7028" result="shape"/>
</filter>
<filter id="filter3_f_3818_7028" x="37.0286" y="53.4905" width="71.557" height="46.1004" filterUnits="userSpaceOnUse" color-interpolation-filters="sRGB">
<feFlood flood-opacity="0" result="BackgroundImageFix"/>
<feBlend mode="normal" in="SourceGraphic" in2="BackgroundImageFix" result="shape"/>
<feGaussianBlur stdDeviation="10.422" result="effect1_foregroundBlur_3818_7028"/>
</filter>
<linearGradient id="paint0_linear_3818_7028" x1="59.1491" y1="-3.17478" x2="60.1056" y2="160.811" gradientUnits="userSpaceOnUse">
<stop stop-color="white" stop-opacity="0"/>
<stop offset="1" stop-color="#5BA1C9"/>
</linearGradient>
<linearGradient id="paint1_linear_3818_7028" x1="34.5943" y1="37.6775" x2="83.8537" y2="37.6775" gradientUnits="userSpaceOnUse">
<stop stop-color="#56A0C9"/>
<stop offset="1" stop-color="#D5E9F9"/>
</linearGradient>
<linearGradient id="paint2_linear_3818_7028" x1="34.5943" y1="50.9881" x2="83.8537" y2="50.9881" gradientUnits="userSpaceOnUse">
<stop stop-color="#56A0C9"/>
<stop offset="1" stop-color="#D5E9F9"/>
</linearGradient>
<linearGradient id="paint3_linear_3818_7028" x1="34.5943" y1="64.2986" x2="83.8537" y2="64.2986" gradientUnits="userSpaceOnUse">
<stop stop-color="#56A0C9"/>
<stop offset="1" stop-color="#D5E9F9"/>
</linearGradient>
<linearGradient id="paint4_linear_3818_7028" x1="34.5943" y1="77.6092" x2="83.8537" y2="77.6092" gradientUnits="userSpaceOnUse">
<stop stop-color="#56A0C9"/>
<stop offset="1" stop-color="#D5E9F9"/>
</linearGradient>
<linearGradient id="paint5_linear_3818_7028" x1="11.5489" y1="87.0055" x2="122.048" y2="56.3678" gradientUnits="userSpaceOnUse">
<stop stop-color="white"/>
<stop offset="1" stop-color="#43627B" stop-opacity="0.86"/>
</linearGradient>
<linearGradient id="paint6_linear_3818_7028" x1="38.5897" y1="76.4376" x2="15.3849" y2="76.4376" gradientUnits="userSpaceOnUse">
<stop stop-color="#56A0C9"/>
<stop offset="1" stop-color="#94C9E6"/>
</linearGradient>
<linearGradient id="paint7_linear_3818_7028" x1="38.5711" y1="91.1543" x2="15.5657" y2="91.1543" gradientUnits="userSpaceOnUse">
<stop stop-color="#56A0C9"/>
<stop offset="1" stop-color="#94C9E6"/>
</linearGradient>
<linearGradient id="paint8_linear_3818_7028" x1="38.5711" y1="83.4194" x2="15.5657" y2="83.4194" gradientUnits="userSpaceOnUse">
<stop stop-color="#56A0C9"/>
<stop offset="1" stop-color="#94C9E6"/>
</linearGradient>
<linearGradient id="paint9_linear_3818_7028" x1="32.6868" y1="68.7028" x2="16.1992" y2="68.7028" gradientUnits="userSpaceOnUse">
<stop offset="0.243799" stop-color="#56A0C9"/>
<stop offset="1" stop-color="#94C4DE"/>
</linearGradient>
<linearGradient id="paint10_linear_3818_7028" x1="72.1044" y1="43.5625" x2="93.5119" y2="99.1127" gradientUnits="userSpaceOnUse">
<stop stop-color="white"/>
<stop offset="1" stop-color="#797979"/>
</linearGradient>
</defs>
</svg>
