<svg width="20" height="20" viewBox="0 0 20 20" fill="none" xmlns="http://www.w3.org/2000/svg">
<path fill-rule="evenodd" clip-rule="evenodd" d="M10.9451 5.27843C10.9451 4.75683 10.5223 4.33398 10.0007 4.33398C9.47905 4.33398 9.05621 4.75683 9.05621 5.27843V9.05664H5.27843C4.75683 9.05664 4.33398 9.47948 4.33398 10.0011C4.33398 10.5227 4.75683 10.9455 5.27843 10.9455H9.05621V14.7229C9.05621 15.2445 9.47905 15.6673 10.0007 15.6673C10.5223 15.6673 10.9451 15.2445 10.9451 14.7229V10.9455H14.7229C15.2445 10.9455 15.6673 10.5227 15.6673 10.0011C15.6673 9.47948 15.2445 9.05664 14.7229 9.05664H10.9451V5.27843Z" fill="#33A3AA"/>
</svg>
