<svg width="158" height="28" viewBox="0 0 158 28" fill="none" xmlns="http://www.w3.org/2000/svg">
<path d="M9.8859 27.3244C8.05957 27.3244 6.70184 26.8318 5.8127 25.8465C4.9476 24.8613 4.51504 23.3594 4.51504 21.3408V9.62581H0.982532V6.77818H4.51504V0.830583H7.43477V6.77818H14.1754V9.62581H7.43477V21.3408C7.43477 22.3501 7.63903 23.119 8.04755 23.6477C8.48011 24.1764 9.09289 24.4407 9.8859 24.4407C10.775 24.4407 11.8444 23.6958 13.094 22.2059L14.7882 24.9454L14.1754 25.6663C13.7428 26.195 13.1421 26.6035 12.3731 26.8919C11.6041 27.1802 10.775 27.3244 9.8859 27.3244ZM25.8118 24.3326C27.1815 24.3326 28.3831 24.0082 29.4164 23.3594C30.4497 22.6865 31.2667 21.7853 31.8675 20.6559H35.0396C34.2706 22.6504 33.0811 24.2485 31.471 25.45C29.885 26.6516 28.0106 27.2643 25.8478 27.2884H25.7757C22.6998 27.1922 20.2967 26.231 18.5665 24.4047C16.8363 22.5784 15.9712 20.1513 15.9712 17.1234C15.9712 15.249 16.3677 13.5308 17.1607 11.9688C17.9778 10.4068 19.1192 9.16923 20.5851 8.25606C22.051 7.3429 23.7331 6.88632 25.6315 6.88632C27.554 6.88632 29.2482 7.37894 30.714 8.3642C32.2039 9.34946 33.3574 10.7312 34.1744 12.5095C34.9915 14.2878 35.4 16.3304 35.4 18.6373H19.1793C19.4436 20.4156 20.1405 21.8094 21.27 22.8187C22.4234 23.8279 23.9374 24.3326 25.8118 24.3326ZM25.6315 9.80604C23.9254 9.80604 22.4715 10.3587 21.27 11.4642C20.0925 12.5696 19.3475 13.9874 19.0351 15.7176H32.4082C32.0718 13.9874 31.3028 12.5696 30.1012 11.4642C28.8997 10.3587 27.4098 9.80604 25.6315 9.80604ZM48.5053 27.2884C46.6069 27.2884 44.9247 26.8438 43.4588 25.9547C41.993 25.0655 40.8515 23.852 40.0345 22.314C39.2414 20.752 38.8449 19.0218 38.8449 17.1234C38.8449 15.249 39.2414 13.5308 40.0345 11.9688C40.8515 10.4068 41.993 9.16923 43.4588 8.25606C44.9247 7.3429 46.6069 6.88632 48.5053 6.88632C50.6921 6.88632 52.5905 7.4991 54.2006 8.72466C55.8106 9.9262 57.0001 11.5483 57.7691 13.5909H54.5971C53.9963 12.4134 53.1792 11.4882 52.1459 10.8153C51.1126 10.1425 49.8991 9.80604 48.5053 9.80604C47.1836 9.80604 46.0181 10.1305 45.0088 10.7793C43.9995 11.4281 43.2065 12.3173 42.6298 13.4467C42.0771 14.5521 41.8007 15.7777 41.8007 17.1234C41.8007 18.4691 42.0771 19.6947 42.6298 20.8001C43.1825 21.8815 43.9635 22.7466 44.9728 23.3954C45.9821 24.0202 47.1596 24.3326 48.5053 24.3326C49.875 24.3326 51.0766 24.0082 52.1099 23.3594C53.1672 22.6865 53.9963 21.7853 54.5971 20.6559H57.7691C57.0001 22.6745 55.8106 24.2845 54.2006 25.4861C52.5905 26.6876 50.6921 27.2884 48.5053 27.2884ZM64.4993 27H61.5075V0.830583H64.4993V9.48163C66.2776 7.75142 68.5004 6.88632 71.1678 6.88632C73.0903 6.88632 74.7844 7.3429 76.2503 8.25606C77.7402 9.16923 78.8937 10.4068 79.7107 11.9688C80.5278 13.5068 80.9363 15.225 80.9363 17.1234V27H78.0166V17.1234C78.0166 15.7777 77.7282 14.5521 77.1514 13.4467C76.5987 12.3173 75.8057 11.4281 74.7724 10.7793C73.7391 10.1305 72.5376 9.80604 71.1678 9.80604C69.4616 9.80604 67.9958 10.4429 66.7702 11.7165C65.5687 12.9901 64.8117 14.5281 64.4993 16.3304V27ZM89.2235 27H86.2677L86.3038 9.62581H82.3747V6.77818H86.2677C86.8204 4.59139 87.8778 3.05342 89.4398 2.16429C91.0018 1.27515 93.0804 0.830583 95.6757 0.830583H97.0815V3.75031H95.7118C92.6599 3.87046 90.6413 4.87975 89.656 6.77818H95.2792V9.62581H89.2595L89.2235 27ZM105.545 27.2884C103.647 27.2884 101.965 26.8438 100.499 25.9547C99.033 25.0655 97.8915 23.852 97.0745 22.314C96.2815 20.752 95.885 19.0218 95.885 17.1234C95.885 15.249 96.2815 13.5308 97.0745 11.9688C97.8915 10.4068 99.033 9.16923 100.499 8.25606C101.965 7.3429 103.647 6.88632 105.545 6.88632C107.468 6.88632 109.162 7.3429 110.628 8.25606C112.118 9.16923 113.271 10.4068 114.088 11.9688C114.905 13.5068 115.314 15.225 115.314 17.1234C115.314 19.0218 114.905 20.752 114.088 22.314C113.271 23.852 112.118 25.0655 110.628 25.9547C109.162 26.8438 107.468 27.2884 105.545 27.2884ZM105.545 24.3326C106.915 24.3326 108.117 24.0202 109.15 23.3954C110.207 22.7466 111.012 21.8815 111.565 20.8001C112.118 19.6947 112.394 18.4691 112.394 17.1234C112.394 15.7777 112.106 14.5521 111.529 13.4467C110.976 12.3173 110.183 11.4281 109.15 10.7793C108.117 10.1305 106.915 9.80604 105.545 9.80604C104.224 9.80604 103.058 10.1305 102.049 10.7793C101.04 11.4281 100.247 12.3173 99.6698 13.4467C99.1171 14.5521 98.8407 15.7777 98.8407 17.1234C98.8407 18.4691 99.1171 19.6947 99.6698 20.8001C100.223 21.8815 101.004 22.7466 102.013 23.3954C103.022 24.0202 104.2 24.3326 105.545 24.3326ZM121.754 27H118.762L118.618 6.77818H121.61L121.682 9.66186C122.595 8.79675 123.628 8.1239 124.782 7.64328C125.935 7.13864 127.161 6.88632 128.458 6.88632C130.069 6.88632 131.979 7.43902 134.19 8.54443L133.108 11.4642C131.21 10.3587 129.66 9.80604 128.458 9.80604C127.257 9.80604 126.14 10.0704 125.106 10.5991C124.073 11.1277 123.256 11.8487 122.655 12.7618C122.054 13.675 121.754 14.6843 121.754 15.7897V27ZM147.561 27.2884C144.87 27.2884 142.647 26.4473 140.893 24.7651V27H137.901V0.830583H140.893V9.48163C142.671 7.75142 144.894 6.88632 147.561 6.88632C149.484 6.88632 151.178 7.3429 152.644 8.25606C154.134 9.16923 155.287 10.4068 156.104 11.9688C156.921 13.5068 157.33 15.225 157.33 17.1234C157.33 19.0218 156.921 20.752 156.104 22.314C155.287 23.852 154.134 25.0655 152.644 25.9547C151.178 26.8438 149.484 27.2884 147.561 27.2884ZM147.561 24.3326C148.931 24.3326 150.133 24.0202 151.166 23.3954C152.199 22.7466 152.992 21.8815 153.545 20.8001C154.122 19.6947 154.41 18.4691 154.41 17.1234C154.41 15.7777 154.122 14.5521 153.545 13.4467C152.992 12.3173 152.199 11.4281 151.166 10.7793C150.133 10.1305 148.931 9.80604 147.561 9.80604C145.831 9.80604 144.365 10.4429 143.164 11.7165C141.986 12.9661 141.229 14.504 140.893 16.3304V17.9164C141.229 19.6947 141.986 21.2086 143.164 22.4582C144.365 23.7078 145.831 24.3326 147.561 24.3326Z" fill="#333333"/>
</svg>
