<svg xmlns="http://www.w3.org/2000/svg" width="45" height="45" viewBox="0 0 45 45" fill="none">
  <circle cx="22.5" cy="22.5" r="22.5" fill="#EBF8F9"/>
  <path d="M27.889 20.5463C27.889 20.5463 27.8889 20.5463 27.8889 20.5462L28.3696 19.2846C28.4697 19.0243 28.2694 18.7239 27.9891 18.7239H22.6406C22.3393 18.7239 22.0684 18.9076 21.9568 19.1874L21.5252 20.2697C21.3556 20.695 20.7305 20.6123 20.6773 20.1576L20.6382 19.8244C20.6283 19.7396 20.6946 19.6651 20.7799 19.6651C20.8801 19.6651 20.9802 19.5851 20.9802 19.4648V18.864C20.9802 18.7639 20.9002 18.6637 20.7799 18.6637H19.7986C19.6985 18.6637 19.5983 18.7437 19.5983 18.864V19.4648C19.5983 19.565 19.6784 19.6651 19.7986 19.6651C19.8947 19.6651 19.9692 19.7489 19.958 19.8442L19.9212 20.1585C19.8679 20.6137 19.2422 20.6968 19.0719 20.2712L18.6984 19.3373C18.5709 19.0187 18.2255 18.832 17.9139 18.9758C17.0495 19.3747 16.4138 20.1915 16.3143 21.187L15.9539 24.5713C15.9138 24.9117 16.1341 25.2122 16.4745 25.2723C17.2527 25.4451 17.8706 26.0513 17.918 26.847L18.1566 30.8595C18.1766 31.32 18.5571 31.6604 19.0177 31.6604H21.621C22.0816 31.6604 22.4421 31.3 22.4821 30.8595L22.9226 21.6277C22.9226 21.1672 23.3031 20.8066 23.7637 20.8066H27.5285C27.6887 20.8066 27.8289 20.7065 27.889 20.5463C27.889 20.5463 27.889 20.5463 27.889 20.5463Z" fill="#33A3AA"/>
  <path d="M23.0437 15.3997C23.0437 16.9149 21.8153 18.1433 20.3001 18.1433C18.7849 18.1433 17.5566 16.9149 17.5566 15.3997C17.5566 13.8845 18.7849 12.6562 20.3001 12.6562C21.8153 12.6562 23.0437 13.8845 23.0437 15.3997Z" fill="#33A3AA"/>
  <path d="M26.7488 22.1885C26.7488 22.1885 26.7488 22.1885 26.7488 22.1884C26.4083 21.7078 25.8477 22.0083 25.8477 22.3687C25.8477 22.4134 25.8514 22.4618 25.8583 22.5133C25.9807 23.418 26.8972 23.9907 27.8101 23.9907C28.6797 23.9907 29.5225 23.4502 29.7217 22.6038C29.7416 22.5192 29.7526 22.4464 29.7526 22.3888C29.7526 21.9682 29.232 21.768 28.9115 22.2086C28.4909 22.7892 28.3309 21.9482 27.8502 21.9482C27.3695 21.9482 27.1093 22.7092 26.7487 22.1885C26.7487 22.1885 26.7487 22.1885 26.7488 22.1885Z" fill="#33A3AA"/>
  <path d="M29.2917 24.4915C28.8311 24.5515 28.3104 24.5916 27.7898 24.5916C26.8308 24.5916 25.8443 24.8254 25.2337 25.5648C24.5277 26.4196 23.9648 27.4449 23.9648 28.3964C23.9648 30.6192 25.6671 31.6806 27.7897 31.6806C29.8924 31.6806 31.6146 30.6392 31.6146 28.3964C31.6146 26.9947 30.3931 25.4327 29.2916 24.4915C29.2916 24.4915 29.2916 24.4915 29.2917 24.4915ZM28.0701 29.7381C28.0701 29.7381 28.0701 29.7381 28.0701 29.7382V30.1587C28.0701 30.1988 28.03 30.2388 27.9901 30.2388H27.5896C27.5495 30.2388 27.5096 30.1987 27.5096 30.1587C27.5096 29.9345 27.3222 29.76 27.1293 29.6457C26.9067 29.5137 26.7553 29.2778 26.7286 28.9973C26.7286 28.9572 26.7686 28.9172 26.8086 28.9172H27.2292C27.3035 28.9172 27.3091 29.0189 27.3529 29.079C27.4041 29.149 27.492 29.1976 27.5896 29.1976H27.95C28.1703 29.1976 28.3505 29.0373 28.3706 28.8372C28.3906 28.5969 28.2104 28.3966 27.9701 28.3966H27.7097C27.2091 28.3966 26.7486 28.0161 26.7085 27.5155C26.6653 27.1409 26.8604 26.7973 27.1598 26.6043C27.3635 26.4729 27.5495 26.2758 27.5495 26.0335C27.5495 25.9934 27.5896 25.9535 27.6296 25.9535H28.0301C28.0701 25.9535 28.1101 25.9936 28.1101 26.0335C28.1101 26.2577 28.2975 26.4322 28.4903 26.5465C28.713 26.6785 28.8644 26.9145 28.8911 27.195C28.8911 27.2351 28.851 27.275 28.8111 27.275H28.4106C28.3363 27.275 28.3307 27.1733 28.2868 27.1133C28.2357 27.0432 28.1477 26.9947 28.0502 26.9947H27.6898C27.4695 26.9947 27.2893 27.1549 27.2692 27.3551C27.2492 27.5953 27.4294 27.8156 27.6697 27.8156H27.97C28.5307 27.8156 28.9913 28.2963 28.9312 28.877C28.8711 29.3177 28.5107 29.6581 28.0702 29.7381C28.0702 29.7381 28.0702 29.7381 28.0701 29.7381Z" fill="#33A3AA"/>
</svg>