<svg width="91" height="81" viewBox="0 0 91 81" fill="none" xmlns="http://www.w3.org/2000/svg">
<path fill-rule="evenodd" clip-rule="evenodd" d="M46.9885 79.4415C45.9531 81.4575 44.2744 81.4575 43.2389 79.4415L41.393 76.023C40.7568 74.845 40.4388 74.256 39.9807 73.8267C39.5755 73.447 39.093 73.1592 38.5664 72.9831C37.971 72.784 37.3016 72.784 35.9628 72.784H11.1167C7.49536 72.784 6.18216 72.2152 4.85824 71.1472C3.53431 70.0792 2.49529 68.512 1.78725 66.515C1.07921 64.518 0.702148 62.5372 0.702148 57.0748V16.6018C0.702148 11.1394 1.07921 9.15854 1.78725 7.16156C2.49529 5.16457 3.53431 3.59733 4.85824 2.52933C6.18216 1.46133 7.49536 0.892578 11.1167 0.892578H79.6523C83.2737 0.892578 84.5869 1.46133 85.9108 2.52933C87.2347 3.59733 88.2738 5.16457 88.9818 7.16156C89.6898 9.15854 90.0669 11.1394 90.0669 16.6018V57.0748C90.0669 62.5372 89.6898 64.518 88.9818 66.515C88.2738 68.512 87.2347 70.0792 85.9108 71.1472C84.5869 72.2152 83.2737 72.784 79.6523 72.784H57.9458C55.2682 72.784 53.9294 72.784 52.7386 73.1822C51.6852 73.5344 50.7204 74.1099 49.91 74.8694C48.9938 75.728 48.3577 76.906 47.0854 79.262L46.9885 79.4415Z" fill="white"/>
</svg>
