<svg width="25" height="24" viewBox="0 0 25 24" fill="none" xmlns="http://www.w3.org/2000/svg">
<g id="Add">
<g id="design">
<path id="Vector" d="M12.662 3.12738C7.81602 3.12738 3.85114 7.09226 3.85114 11.9382C3.85114 16.7842 7.81602 20.7491 12.662 20.7491C17.5079 20.7491 21.4728 16.7842 21.4728 11.9382C21.4728 7.09226 17.5079 3.12738 12.662 3.12738ZM12.662 18.9135C8.84395 18.9135 5.68673 15.7563 5.68673 11.9382C5.68673 8.12019 8.84395 4.96297 12.662 4.96297C16.48 4.96297 19.6372 8.12019 19.6372 11.9382C19.6372 15.7563 16.48 18.9135 12.662 18.9135Z" fill="#22242C"/>
<path id="Vector_2" d="M16.9212 10.9837H13.6171V7.67967C13.6171 7.1657 13.1766 6.72516 12.6626 6.72516C12.1486 6.72516 11.7081 7.1657 11.7081 7.67967V10.9837H8.40403C7.89007 10.9837 7.44952 11.4243 7.44952 11.9382C7.44952 12.4522 7.89007 12.8928 8.40403 12.8928H11.7081V16.1968C11.7081 16.7108 12.1486 17.1513 12.6626 17.1513C13.1766 17.1513 13.6171 16.7108 13.6171 16.1968V12.8928H16.9212C17.4352 12.8928 17.8757 12.4522 17.8757 11.9382C17.8757 11.4243 17.4352 10.9837 16.9212 10.9837Z" fill="#22242C"/>
</g>
</g>
</svg>
