<svg width="14" height="14" viewBox="0 0 14 14" fill="none" xmlns="http://www.w3.org/2000/svg">
<g id="layers 2">
<rect id="Rectangle 4131" x="1" y="4" width="7" height="8" rx="1" fill="#33A3AA"/>
<rect id="Rectangle 4133" x="6" y="4" width="7" height="2.5" rx="1" fill="#33A3AA"/>
<rect id="Rectangle 4134" x="6" y="9" width="7" height="3" rx="1" fill="#33A3AA"/>
<rect id="Rectangle 4132" x="1" y="4" width="2" height="1" rx="0.5" fill="#33A3AA"/>
<g id="Group">
<path id="Vector" d="M2.11255 1.66846C1.46129 1.66846 0.927734 2.20201 0.927734 2.85327V11.2951C0.927734 11.8643 1.39523 12.3318 1.96445 12.3318H12.0354C12.6046 12.3318 13.0721 11.8643 13.0721 11.2951V4.48239C13.0721 3.91318 12.6046 3.44568 12.0354 3.44568H11.2949V1.96466C11.2948 1.80957 11.1538 1.66847 10.9987 1.66846H2.11255ZM2.11255 2.26086H10.7025V3.44568H2.11255C1.77923 3.44568 1.52014 3.18659 1.52014 2.85327C1.52014 2.51995 1.77923 2.26086 2.11255 2.26086ZM1.52014 3.87609C1.69474 3.97778 1.89715 4.03809 2.11255 4.03809C5.44841 4.03512 9.16821 4.03809 12.0354 4.03809C12.2866 4.03809 12.4797 4.23112 12.4797 4.48239V6.25961H8.18473C7.77961 6.25961 7.44422 6.595 7.44422 7.00012V8.77735C7.44422 9.18246 7.77961 9.51786 8.18473 9.51786H12.4797V11.2951C12.4797 11.5463 12.2866 11.7394 12.0354 11.7394H1.96445C1.71318 11.7394 1.52014 11.5463 1.52014 11.2951V3.87609ZM8.18473 6.85202H12.4797V8.92545H8.18473C8.09755 8.92545 8.03662 8.86452 8.03662 8.77735V7.00012C8.03662 6.91295 8.09755 6.85184 8.18473 6.85202Z" fill="#33A3AA"/>
</g>
</g>
</svg>
