<svg width="14" height="14" viewBox="0 0 14 14" fill="none" xmlns="http://www.w3.org/2000/svg">
<g id="layers 2">
<g id="Group">
<path id="Vector" d="M12.3797 4.4819V6.15913H8.18473C7.72438 6.15913 7.34422 6.53929 7.34422 6.99964V8.77686C7.34422 9.2372 7.72438 9.61737 8.18473 9.61737H12.3797V11.2946C12.3797 11.4906 12.2314 11.6389 12.0354 11.6389H1.96445C1.76841 11.6389 1.62014 11.4906 1.62014 11.2946V4.03719C1.77168 4.10119 1.93805 4.1376 2.11255 4.1376L2.11264 4.1376C4.38825 4.13558 6.84249 4.13631 9.0829 4.13699C10.1267 4.1373 11.1241 4.1376 12.0354 4.1376C12.2314 4.1376 12.3797 4.28586 12.3797 4.4819ZM8.18452 6.95153H8.18473H12.3797V8.82496H8.18473C8.16505 8.82496 8.1543 8.8185 8.1487 8.81289C8.14309 8.80728 8.13662 8.79653 8.13662 8.77686V6.99964C8.13662 6.97994 8.1431 6.96914 8.14873 6.96351C8.15432 6.95791 8.165 6.95149 8.18452 6.95153ZM8.18473 6.85153H12.3797H8.18473ZM2.11255 1.56797C1.40606 1.56797 0.827734 2.14629 0.827734 2.85278V11.2946C0.827734 11.919 1.34 12.4313 1.96445 12.4313H12.0354C12.6598 12.4313 13.1721 11.919 13.1721 11.2946V4.4819C13.1721 3.85746 12.6598 3.34519 12.0354 3.34519H11.3949V1.96417C11.3948 1.75385 11.209 1.56799 10.9987 1.56797H2.11255ZM2.11255 2.36038H10.6025V3.34519H2.11255C1.83446 3.34519 1.62014 3.13087 1.62014 2.85278C1.62014 2.57469 1.83446 2.36038 2.11255 2.36038Z" fill="#D0D1D2" stroke="#D0D1D2" stroke-width="0.2"/>
</g>
</g>
</svg>
