<svg width="14" height="14" viewBox="0 0 14 14" fill="none" xmlns="http://www.w3.org/2000/svg">
<g id="vuesax/linear/element-4">
<g id="element-4">
<path id="Vector" d="M12.8333 6.35866V2.39199C12.8333 1.51699 12.46 1.16699 11.5325 1.16699H9.17583C8.24833 1.16699 7.875 1.51699 7.875 2.39199V6.35866C7.875 7.23366 8.24833 7.58366 9.17583 7.58366H11.5325C12.46 7.58366 12.8333 7.23366 12.8333 6.35866Z" stroke="#D0D1D2" stroke-linecap="round" stroke-linejoin="round"/>
<path id="Vector_2" d="M12.8333 11.608V10.558C12.8333 9.68301 12.46 9.33301 11.5325 9.33301H9.17583C8.24833 9.33301 7.875 9.68301 7.875 10.558V11.608C7.875 12.483 8.24833 12.833 9.17583 12.833H11.5325C12.46 12.833 12.8333 12.483 12.8333 11.608Z" stroke="#D0D1D2" stroke-linecap="round" stroke-linejoin="round"/>
<path id="Vector_3" d="M6.12508 7.64199V11.6087C6.12508 12.4837 5.75175 12.8337 4.82425 12.8337H2.46758C1.54008 12.8337 1.16675 12.4837 1.16675 11.6087V7.64199C1.16675 6.76699 1.54008 6.41699 2.46758 6.41699H4.82425C5.75175 6.41699 6.12508 6.76699 6.12508 7.64199Z" stroke="#D0D1D2" stroke-linecap="round" stroke-linejoin="round"/>
<path id="Vector_4" d="M6.12508 2.39199V3.44199C6.12508 4.31699 5.75175 4.66699 4.82425 4.66699H2.46758C1.54008 4.66699 1.16675 4.31699 1.16675 3.44199V2.39199C1.16675 1.51699 1.54008 1.16699 2.46758 1.16699H4.82425C5.75175 1.16699 6.12508 1.51699 6.12508 2.39199Z" stroke="#D0D1D2" stroke-linecap="round" stroke-linejoin="round"/>
</g>
</g>
</svg>
