<svg width="14" height="14" viewBox="0 0 14 14" fill="none" xmlns="http://www.w3.org/2000/svg">
<g id="vuesax/linear/element-4">
<g id="element-4">
<path id="Vector" d="M12.8333 6.35841V2.39175C12.8333 1.51675 12.46 1.16675 11.5325 1.16675H9.17583C8.24833 1.16675 7.875 1.51675 7.875 2.39175V6.35841C7.875 7.23342 8.24833 7.58342 9.17583 7.58342H11.5325C12.46 7.58342 12.8333 7.23342 12.8333 6.35841Z" fill="#33A3AA"/>
<path id="Vector_2" d="M12.8333 11.6083V10.5583C12.8333 9.68325 12.46 9.33325 11.5325 9.33325H9.17583C8.24833 9.33325 7.875 9.68325 7.875 10.5583V11.6083C7.875 12.4833 8.24833 12.8333 9.17583 12.8333H11.5325C12.46 12.8333 12.8333 12.4833 12.8333 11.6083Z" fill="#33A3AA"/>
<path id="Vector_3" d="M6.12508 7.64175V11.6084C6.12508 12.4834 5.75175 12.8334 4.82425 12.8334H2.46758C1.54008 12.8334 1.16675 12.4834 1.16675 11.6084V7.64175C1.16675 6.76675 1.54008 6.41675 2.46758 6.41675H4.82425C5.75175 6.41675 6.12508 6.76675 6.12508 7.64175Z" fill="#33A3AA"/>
<path id="Vector_4" d="M6.12508 2.39175V3.44175C6.12508 4.31675 5.75175 4.66675 4.82425 4.66675H2.46758C1.54008 4.66675 1.16675 4.31675 1.16675 3.44175V2.39175C1.16675 1.51675 1.54008 1.16675 2.46758 1.16675H4.82425C5.75175 1.16675 6.12508 1.51675 6.12508 2.39175Z" fill="#33A3AA"/>
</g>
</g>
</svg>
