<svg width="16" height="14" viewBox="0 0 16 14" fill="none" xmlns="http://www.w3.org/2000/svg">
<g id="Frame 1933">
<g id="Group 1000004406">
<path id="Arrow 1" d="M2 3.5C1.72386 3.5 1.5 3.72386 1.5 4C1.5 4.27614 1.72386 4.5 2 4.5L2 3.5ZM14.3536 4.35355C14.5488 4.15829 14.5488 3.84171 14.3536 3.64645L11.1716 0.464467C10.9763 0.269205 10.6597 0.269205 10.4645 0.464467C10.2692 0.659729 10.2692 0.976311 10.4645 1.17157L13.2929 4L10.4645 6.82843C10.2692 7.02369 10.2692 7.34027 10.4645 7.53553C10.6597 7.7308 10.9763 7.7308 11.1716 7.53553L14.3536 4.35355ZM2 4.5L14 4.5L14 3.5L2 3.5L2 4.5Z" fill="#33A3AA"/>
<path id="Arrow 2" d="M14 9.5C14.2761 9.5 14.5 9.72386 14.5 10C14.5 10.2761 14.2761 10.5 14 10.5L14 9.5ZM1.64645 10.3536C1.45118 10.1583 1.45118 9.84171 1.64645 9.64645L4.82843 6.46447C5.02369 6.26921 5.34027 6.26921 5.53553 6.46447C5.7308 6.65973 5.7308 6.97631 5.53553 7.17157L2.70711 10L5.53553 12.8284C5.7308 13.0237 5.7308 13.3403 5.53553 13.5355C5.34027 13.7308 5.02369 13.7308 4.82843 13.5355L1.64645 10.3536ZM14 10.5L2 10.5L2 9.5L14 9.5L14 10.5Z" fill="#33A3AA"/>
</g>
</g>
</svg>
