<svg width="14" height="14" viewBox="0 0 14 14" fill="none" xmlns="http://www.w3.org/2000/svg">
<g id="Finance" clip-path="url(#clip0_113_6970)">
<g id="Group 1000004406">
<path id="Arrow 1" d="M1 3.5C0.723858 3.5 0.5 3.72386 0.5 4C0.5 4.27614 0.723858 4.5 1 4.5L1 3.5ZM13.3536 4.35355C13.5488 4.15829 13.5488 3.84171 13.3536 3.64645L10.1716 0.464467C9.97631 0.269205 9.65973 0.269205 9.46447 0.464467C9.2692 0.659729 9.2692 0.976311 9.46447 1.17157L12.2929 4L9.46447 6.82843C9.2692 7.02369 9.2692 7.34027 9.46447 7.53553C9.65973 7.7308 9.97631 7.7308 10.1716 7.53553L13.3536 4.35355ZM1 4.5L13 4.5L13 3.5L1 3.5L1 4.5Z" fill="#D0D1D2"/>
<path id="Arrow 2" d="M13 9.5C13.2761 9.5 13.5 9.72386 13.5 10C13.5 10.2761 13.2761 10.5 13 10.5L13 9.5ZM0.646446 10.3536C0.451184 10.1583 0.451184 9.84171 0.646446 9.64645L3.82843 6.46447C4.02369 6.2692 4.34027 6.2692 4.53553 6.46447C4.7308 6.65973 4.7308 6.97631 4.53553 7.17157L1.70711 10L4.53553 12.8284C4.7308 13.0237 4.7308 13.3403 4.53553 13.5355C4.34027 13.7308 4.02369 13.7308 3.82843 13.5355L0.646446 10.3536ZM13 10.5L1 10.5L1 9.5L13 9.5L13 10.5Z" fill="#D0D1D2"/>
</g>
</g>
<defs>
<clipPath id="clip0_113_6970">
<rect width="14" height="14" fill="white"/>
</clipPath>
</defs>
</svg>
