<svg width="14" height="14" viewBox="0 0 14 14" fill="none" xmlns="http://www.w3.org/2000/svg">
<path d="M12.6827 7.64523C11.8984 7.36101 11.0283 7.42419 10.2926 7.8181L9.09331 8.35758C8.99641 7.80524 8.5722 7.39018 8.0486 7.37423C8.04552 7.37414 6.25044 7.35389 6.25044 7.35389C4.81364 6.95977 3.88007 7.46619 3.3475 7.96528C3.23858 8.06735 3.1428 8.17244 3.0585 8.27609C2.91479 8.12132 2.66112 8.07998 2.47612 8.18168L0.846649 9.07738C0.635303 9.19357 0.543346 9.44847 0.631982 9.67253L2.22445 13.6982C2.32909 13.9627 2.65067 14.0796 2.9016 13.9417L4.53107 13.046C4.68382 12.962 4.77374 12.8055 4.77867 12.6407H7.21067C7.60736 12.6407 7.999 12.5365 8.34326 12.3394C8.34326 12.3394 12.9172 9.71561 12.943 9.69216C13.5835 9.10945 13.6033 7.9788 12.6827 7.64523C13.0499 7.77829 11.8984 7.36101 12.6827 7.64523ZM2.91617 12.8408L1.67878 9.71277L2.46147 9.28257L3.69885 12.4106L2.91617 12.8408ZM12.331 8.95204L7.86606 11.5089C7.6668 11.6231 7.44014 11.6834 7.21058 11.6834H4.44208L3.51251 9.33345C3.59214 9.1712 3.74899 8.90197 4.00371 8.66328C4.52539 8.17442 5.213 8.04931 6.04759 8.29144C6.08932 8.30356 6.13252 8.30993 6.17595 8.31044L8.0212 8.3312C8.06832 8.33527 8.15528 8.44 8.15528 8.59878C8.15528 8.76224 8.06547 8.86646 8.01851 8.86646H6.20548V9.82378H8.01851C8.24311 9.82378 8.45212 9.74783 8.6261 9.6177L10.7022 8.68383C10.7132 8.67886 10.7239 8.67354 10.7345 8.66777C11.2326 8.39698 11.8234 8.35226 12.3555 8.54509C12.5661 8.62143 12.414 8.86774 12.331 8.95204ZM9.44989 6.89778C7.54831 6.89778 6.00125 5.3506 6.00125 3.44888C6.00125 1.54718 7.54828 0 9.44989 0C11.3515 0 12.8985 1.54718 12.8985 3.44888C12.8985 5.3506 11.3515 6.89778 9.44989 6.89778ZM9.44989 0.957325C8.07702 0.957325 6.96013 2.07502 6.96013 3.44888C6.96013 4.82273 8.07705 5.94043 9.44989 5.94043C10.8228 5.94043 11.9397 4.8227 11.9397 3.44888C11.9397 2.07505 10.8228 0.957325 9.44989 0.957325Z" fill="#D0D1D2"/>
</svg>
