<svg width="14" height="14" viewBox="0 0 14 14" fill="none" xmlns="http://www.w3.org/2000/svg">
<g id="Finance" clip-path="url(#clip0_113_6976)">
<path id="Vector" d="M12.6827 7.64523C11.8984 7.36101 11.0283 7.42419 10.2926 7.8181L8.6261 8.68383C8.94649 8.22584 8.5722 7.39017 8.0486 7.37423C8.04552 7.37414 6.25044 7.35389 6.25044 7.35389C4.81365 6.95976 3.88007 7.46619 3.3475 7.96528C3.23859 8.06735 3.1428 8.17244 3.0585 8.27609C2.91479 8.12132 2.66112 8.07997 2.47612 8.18168L0.846649 9.07738C0.635303 9.19357 0.543346 9.44847 0.631982 9.67253L2.22445 13.6982C2.32909 13.9627 2.65068 14.0796 2.9016 13.9417L4.53107 13.046C4.68382 12.962 4.77374 12.8055 4.77868 12.6407H7.21067C7.60736 12.6407 7.999 12.5365 8.34326 12.3394C8.34326 12.3394 12.9172 9.71561 12.943 9.69216C13.5835 9.10945 13.6033 7.9788 12.6827 7.64523C13.0499 7.77829 11.8984 7.36101 12.6827 7.64523ZM9.44989 6.89778C7.54831 6.89778 6.00125 5.3506 6.00125 3.44888C6.00125 1.54718 7.54828 0 9.44989 0C11.3515 0 12.8985 1.54718 12.8985 3.44888C12.8985 5.3506 11.3515 6.89778 9.44989 6.89778Z" fill="#33A3AA"/>
<path id="Vector_2" d="M9.67249 3.0585C9.29123 2.90193 9.26173 2.83465 9.26173 2.75667C9.26173 2.70686 9.28647 2.59106 9.51547 2.59106C9.72496 2.59106 9.98599 2.70865 10.1701 2.82984L10.4262 2.15856C10.2433 2.04216 10.0211 1.94215 9.81339 1.91018V1.47363H9.13056V1.95265C8.72492 2.08051 8.47495 2.40478 8.47495 2.80845C8.47495 3.34308 8.90267 3.58177 9.32046 3.74447C9.65424 3.87876 9.68221 3.98155 9.68221 4.06737C9.68221 4.19938 9.56055 4.28467 9.37227 4.28467C9.12676 4.28467 8.84128 4.14306 8.64143 3.9881L8.39502 4.67015C8.5988 4.82816 8.8347 4.93244 9.10013 4.97136V5.4237H9.78721V4.9313C10.2055 4.79809 10.4733 4.45153 10.4733 4.03716C10.4733 3.45712 10.0453 3.20948 9.67249 3.0585Z" fill="white"/>
</g>
<defs>
<clipPath id="clip0_113_6976">
<rect width="14" height="14" fill="white"/>
</clipPath>
</defs>
</svg>
