<svg width="20" height="20" viewBox="0 0 20 20" fill="none" xmlns="http://www.w3.org/2000/svg">
<path fill-rule="evenodd" clip-rule="evenodd" d="M10.9431 5.27843C10.9431 4.75683 10.5203 4.33398 9.9987 4.33398C9.4771 4.33398 9.05425 4.75683 9.05425 5.27843V9.05664H5.27648C4.75487 9.05664 4.33203 9.47948 4.33203 10.0011C4.33203 10.5227 4.75487 10.9455 5.27647 10.9455H9.05425V14.7229C9.05425 15.2445 9.4771 15.6673 9.9987 15.6673C10.5203 15.6673 10.9431 15.2445 10.9431 14.7229V10.9455H14.7209C15.2425 10.9455 15.6654 10.5227 15.6654 10.0011C15.6654 9.47948 15.2425 9.05664 14.7209 9.05664H10.9431V5.27843Z" fill="#33A3AA"/>
</svg>
