<svg width="16" height="16" viewBox="0 0 16 16" fill="none" xmlns="http://www.w3.org/2000/svg">
<g id="bi:telephone-fill" clip-path="url(#clip0_4114_19437)">
<path id="Vector" fill-rule="evenodd" clip-rule="evenodd" d="M1.88504 0.511147C2.06002 0.336436 2.27012 0.200905 2.50144 0.113537C2.73276 0.0261686 2.98 -0.0110424 3.22678 0.00436978C3.47357 0.019782 3.71426 0.0874655 3.93291 0.202935C4.15155 0.318404 4.34317 0.479023 4.49504 0.674147L6.29004 2.98015C6.61904 3.40315 6.73504 3.95415 6.60504 4.47415L6.05804 6.66415C6.02976 6.77758 6.03129 6.89639 6.06248 7.00906C6.09367 7.12172 6.15346 7.22441 6.23604 7.30715L8.69304 9.76415C8.77588 9.8469 8.87874 9.90679 8.9916 9.93798C9.10445 9.96918 9.22347 9.97061 9.33704 9.94215L11.526 9.39515C11.7827 9.33099 12.0505 9.326 12.3093 9.38057C12.5681 9.43514 12.8112 9.54784 13.02 9.71015L15.326 11.5041C16.155 12.1491 16.231 13.3741 15.489 14.1151L14.455 15.1491C13.715 15.8891 12.609 16.2141 11.578 15.8511C8.93923 14.9227 6.54332 13.412 4.56804 11.4311C2.58733 9.45616 1.07665 7.06061 0.148044 4.42215C-0.213956 3.39215 0.111044 2.28515 0.851044 1.54515L1.88504 0.511147Z" fill="#122A3F"/>
</g>
<defs>
<clipPath id="clip0_4114_19437">
<rect width="16" height="16" fill="white"/>
</clipPath>
</defs>
</svg>
