<svg width="18" height="19" viewBox="0 0 18 19" fill="none" xmlns="http://www.w3.org/2000/svg">
<g id="ion:wallet-sharp">
<path id="Vector" d="M1.66992 4.15656H15.1875V2.31156C15.1875 2.22833 15.169 2.14613 15.1334 2.0709C15.0978 1.99567 15.046 1.92927 14.9816 1.87651C14.9172 1.82374 14.842 1.78592 14.7612 1.76576C14.6804 1.74561 14.5962 1.74363 14.5146 1.75996L1.57711 3.88621C1.48077 3.90539 1.39114 3.94946 1.31712 4.01404C1.24311 4.07862 1.18729 4.16145 1.15523 4.2543C1.31909 4.18952 1.49373 4.15635 1.66992 4.15656ZM16.2949 5.00031H1.66992C1.52074 5.00031 1.37766 5.05958 1.27217 5.16507C1.16669 5.27056 1.10742 5.41363 1.10742 5.56281V15.6878C1.10742 15.837 1.16669 15.9801 1.27217 16.0856C1.37766 16.1911 1.52074 16.2503 1.66992 16.2503H16.2949C16.4441 16.2503 16.5872 16.1911 16.6927 16.0856C16.7982 15.9801 16.8574 15.837 16.8574 15.6878V5.56281C16.8574 5.41363 16.7982 5.27056 16.6927 5.16507C16.5872 5.05958 16.4441 5.00031 16.2949 5.00031ZM12.9375 11.7503C12.715 11.7503 12.4975 11.6843 12.3125 11.5607C12.1275 11.4371 11.9833 11.2614 11.8981 11.0558C11.813 10.8503 11.7907 10.6241 11.8341 10.4058C11.8775 10.1876 11.9847 9.98715 12.142 9.82982C12.2993 9.67248 12.4998 9.56534 12.718 9.52193C12.9363 9.47852 13.1625 9.5008 13.368 9.58595C13.5736 9.6711 13.7493 9.81529 13.8729 10.0003C13.9965 10.1853 14.0625 10.4028 14.0625 10.6253C14.0625 10.9237 13.944 11.2098 13.733 11.4208C13.522 11.6318 13.2359 11.7503 12.9375 11.7503Z" fill="#122A3F"/>
<path id="Vector_2" d="M1.10156 9.62305V4.57812C1.10156 4.14465 1.30266 3.92844 1.64367 3.875C2.88117 3.68059 5.46094 3.57617 5.46094 3.57617C5.46094 3.57617 5.16809 4.13867 4.50012 4.13867V5C5.15051 5 5.60156 5.82617 5.60156 5.82617L2.98242 8.79688L1.10156 9.62305Z" fill="#122A3F"/>
</g>
</svg>
