<svg width="64" height="64" viewBox="0 0 64 64" fill="none" xmlns="http://www.w3.org/2000/svg">
<g id="Group 8711">
<circle id="Ellipse 13" cx="32" cy="32" r="32" fill="#EBF1F9"/>
<path id="rect14805" d="M25.1906 20.003C23.6728 20.003 22.7166 21.103 22.4586 22.4338L20.6615 31.9929C19.8902 32.2335 19.2159 32.7146 18.7371 33.3659C18.2583 34.0172 18 34.8047 18 35.6133C18 36.422 18.2583 37.2094 18.7371 37.8608C19.2159 38.5121 19.8902 38.9931 20.6615 39.2337V40.4126C20.6894 41.3986 21.1003 42.3347 21.8069 43.0222C22.5134 43.7097 23.46 44.0943 24.4454 44.0943C25.4308 44.0943 26.3773 43.7097 27.0839 43.0222C27.7905 42.3347 28.2014 41.3986 28.2293 40.4126V39.4008H35.8184V40.4126C35.8184 41.4167 36.2169 42.3797 36.9262 43.0897C37.6355 43.7997 38.5976 44.1986 39.6008 44.1986C40.6039 44.1986 41.566 43.7997 42.2753 43.0897C42.9847 42.3797 43.3832 41.4167 43.3832 40.4126V39.1972H43.1949C43.9569 38.9395 44.6169 38.4454 45.0792 37.7867C45.5415 37.128 45.782 36.3389 45.7657 35.534C45.7495 34.7292 45.4773 33.9505 44.9888 33.311C44.5004 32.6715 43.8209 32.2045 43.0492 31.9778L40.894 22.4308C40.5904 21.1121 39.6797 20 38.1619 20L25.1906 20.003ZM27.5797 22.7741H35.9489C36.9173 22.7741 37.5092 23.4882 37.7005 24.3359L39.2517 31.2212H24.5349L25.8281 24.3359C25.9951 23.4821 26.6022 22.7741 27.5797 22.7741ZM22.7469 33.7978H22.7834C23.2576 33.7978 23.7124 33.9864 24.0477 34.322C24.383 34.6576 24.5714 35.1128 24.5714 35.5875C24.5714 36.0621 24.383 36.5174 24.0477 36.853C23.7124 37.1886 23.2576 37.3772 22.7834 37.3772C22.3092 37.3772 21.8544 37.1886 21.5191 36.853C21.1838 36.5174 20.9954 36.0621 20.9954 35.5875C20.9945 35.1189 21.1776 34.6686 21.5053 34.3339C21.8329 33.9991 22.2788 33.8066 22.7469 33.7978ZM40.9759 33.7978H41.0093C41.4835 33.7978 41.9383 33.9864 42.2736 34.322C42.6089 34.6576 42.7973 35.1128 42.7973 35.5875C42.7973 36.0621 42.6089 36.5174 42.2736 36.853C41.9383 37.1886 41.4835 37.3772 41.0093 37.3772C40.5356 37.3764 40.0816 37.1874 39.747 36.8519C39.4123 36.5164 39.2244 36.0616 39.2244 35.5875C39.2235 35.1189 39.4066 34.6686 39.7342 34.3339C40.0619 33.9991 40.5078 33.8066 40.9759 33.7978ZM28.6209 34.6243H35.1354C35.2416 34.6149 35.3484 34.6352 35.4438 34.683C35.5392 34.7307 35.6195 34.804 35.6758 34.8946C35.7321 34.9853 35.7622 35.0898 35.7627 35.1966C35.7632 35.3033 35.7342 35.4082 35.6787 35.4994L35.275 36.1466C35.02 36.5568 34.8864 37.0217 34.4007 37.0217H29.6773C29.1916 37.0217 28.7818 36.5568 28.5237 36.1466L28.12 35.4994C28.0602 35.4126 28.0261 35.3106 28.0217 35.2052C28.0173 35.0999 28.0427 34.9954 28.0951 34.9039C28.1475 34.8124 28.2246 34.7376 28.3177 34.6881C28.4107 34.6386 28.5158 34.6165 28.6209 34.6243Z" fill="#242E42"/>
</g>
</svg>
