<svg width="64" height="65" viewBox="0 0 64 65" fill="none" xmlns="http://www.w3.org/2000/svg">
<g id="Group 8705">
<ellipse id="Ellipse 11" cx="32" cy="32.5" rx="32" ry="32.5" fill="#EBF1F9"/>
<path id="path12732 2" d="M31.8744 20C31.3754 19.9985 30.8844 20.1255 30.4487 20.369C27.3678 22.0327 21.8458 25.0956 18.8692 27.0517C17.2418 28.1168 18.2676 29.5404 18.9839 29.5404H21.5224V43.4455C21.5219 43.6481 21.5614 43.8488 21.6387 44.0361C21.716 44.2233 21.8294 44.3935 21.9725 44.5368C22.1157 44.68 22.2857 44.7936 22.4728 44.8709C22.6599 44.9483 22.8604 44.9878 23.0628 44.9874H25.1006V34.7509C25.1006 34.3419 25.2629 33.9497 25.5517 33.6606C25.8406 33.3714 26.2325 33.209 26.641 33.209H29.3394C29.748 33.209 30.1398 33.3714 30.4287 33.6606C30.7176 33.9497 30.8799 34.3419 30.8799 34.7509V44.9874H40.5747C40.7771 44.9878 40.9776 44.9483 41.1647 44.8709C41.3518 44.7936 41.5219 44.68 41.665 44.5368C41.8081 44.3935 41.9216 44.2233 41.9988 44.0361C42.0761 43.8488 42.1156 43.6481 42.1151 43.4455V29.5404H44.6919C45.4082 29.5404 46.3471 28.0576 44.8066 27.0517C41.8578 25.1304 36.1863 22.0571 33.2479 20.3968C32.8314 20.1494 32.3586 20.0128 31.8744 20ZM34.9345 33.3029H38.0328C38.2352 33.3025 38.4357 33.342 38.6228 33.4194C38.8099 33.4967 38.9799 33.6103 39.1231 33.7535C39.2662 33.8968 39.3796 34.067 39.4569 34.2542C39.5341 34.4415 39.5737 34.6422 39.5732 34.8448V37.9287C39.5741 38.1314 39.5349 38.3323 39.4578 38.5198C39.3807 38.7073 39.2673 38.8777 39.1241 39.021C38.9809 39.1644 38.8107 39.2779 38.6234 39.3551C38.436 39.4323 38.2353 39.4715 38.0328 39.4706H34.9518C34.7494 39.4711 34.5489 39.4315 34.3618 39.3542C34.1747 39.2768 34.0047 39.1633 33.8616 39.02C33.7184 38.8767 33.605 38.7066 33.5277 38.5193C33.4505 38.332 33.4109 38.1313 33.4114 37.9287V34.8448C33.4114 34.4389 33.5713 34.0493 33.8564 33.7607C34.1415 33.472 34.5289 33.3075 34.9345 33.3029Z" fill="#242E42"/>
</g>
</svg>
