<svg xmlns="http://www.w3.org/2000/svg" width="14" height="14" viewBox="0 0 14 14" fill="none">
  <path fill-rule="evenodd" clip-rule="evenodd" d="M4.66602 1.8335H4.63H4.62999C3.83567 1.83348 3.18909 1.83347 2.67917 1.90203C2.14717 1.97355 1.68969 2.12784 1.32503 2.49251C0.960361 2.85717 0.806071 3.31465 0.734546 3.84665C0.665989 4.35657 0.666001 5.00315 0.666016 5.79747V5.79748V5.8335V10.5002C0.666016 10.6846 0.767509 10.854 0.930088 10.941C1.09267 11.028 1.28994 11.0185 1.44337 10.9162L2.31163 10.3373C2.77353 10.0294 2.92279 9.93583 3.08364 9.88713C3.2445 9.83843 3.42059 9.8335 3.97573 9.8335H4.08268C4.35883 9.8335 4.58268 9.60964 4.58268 9.3335C4.58268 9.05736 4.35883 8.8335 4.08268 8.8335H3.97573L3.90973 8.83348H3.90972C3.44753 8.83327 3.11397 8.83312 2.79386 8.93004C2.47375 9.02696 2.1963 9.21211 1.81184 9.46867L1.75693 9.5053L1.66602 9.56591V5.8335C1.66602 4.99441 1.66708 4.41538 1.72563 3.9799C1.78224 3.55879 1.88424 3.34751 2.03213 3.19961C2.18003 3.05172 2.39131 2.94973 2.81242 2.89311C3.2479 2.83456 3.82692 2.8335 4.66602 2.8335H7.58268C8.13708 2.8335 8.51944 2.83398 8.815 2.86076C9.10367 2.88693 9.26009 2.935 9.37435 3.00097C9.56437 3.11068 9.72217 3.26847 9.83188 3.4585C9.89785 3.57276 9.94592 3.72917 9.97208 4.01785C9.98995 4.21493 9.99611 4.45061 9.99823 4.75016H8.16602L8.13212 4.75016C7.61109 4.75014 7.17041 4.75012 6.81924 4.79734C6.4461 4.8475 6.10008 4.95908 5.82084 5.23832C5.5416 5.51756 5.43002 5.86358 5.37986 6.23672C5.33264 6.58789 5.33266 7.02857 5.33268 7.5496L5.33268 7.5835V8.16683L5.33268 8.20073C5.33266 8.72176 5.33264 9.16243 5.37986 9.5136C5.43002 9.88675 5.5416 10.2328 5.82084 10.512C6.10008 10.7912 6.4461 10.9028 6.81924 10.953C7.17041 11.0002 7.61109 11.0002 8.13212 11.0002H8.16602H10.9313L12.5553 12.0829C12.7088 12.1851 12.906 12.1947 13.0686 12.1077C13.2312 12.0207 13.3327 11.8512 13.3327 11.6668V7.5835L13.3327 7.54961V7.5496C13.3327 7.02857 13.3327 6.58789 13.2855 6.23672C13.2353 5.86358 13.1238 5.51756 12.8445 5.23832C12.5653 4.95908 12.2193 4.8475 11.8461 4.79734C11.6048 4.76489 11.3212 4.75475 10.9983 4.75159C10.9961 4.43585 10.9893 4.16281 10.968 3.92759C10.9356 3.56955 10.8664 3.25033 10.6979 2.9585C10.5004 2.61645 10.2164 2.33242 9.87435 2.13494C9.58252 1.96645 9.2633 1.8973 8.90526 1.86485C8.55925 1.83349 8.13143 1.83349 7.60621 1.8335H7.60618H7.58268H4.66602ZM10.4987 5.75016C10.4989 5.75016 10.4991 5.75016 10.4993 5.75016C11.0635 5.75016 11.4362 5.75123 11.7129 5.78842C11.9751 5.82368 12.075 5.88296 12.1374 5.94543C12.1999 6.0079 12.2592 6.10772 12.2944 6.36997C12.3316 6.64661 12.3327 7.01939 12.3327 7.5835V10.7326L11.36 10.0841C11.2779 10.0294 11.1814 10.0002 11.0827 10.0002H8.16602C7.60191 10.0002 7.22913 9.9991 6.95249 9.96191C6.69024 9.92665 6.59042 9.86737 6.52795 9.8049C6.46548 9.74243 6.4062 9.64261 6.37094 9.38036C6.33375 9.10372 6.33268 8.73094 6.33268 8.16683V7.5835C6.33268 7.01939 6.33375 6.64661 6.37094 6.36997C6.4062 6.10772 6.46548 6.0079 6.52795 5.94543C6.59042 5.88296 6.69024 5.82368 6.95249 5.78842C7.22913 5.75123 7.60191 5.75016 8.16602 5.75016H10.4987Z" fill="#54617A"/>
</svg>