<svg width="14" height="14" viewBox="0 0 14 14" fill="none" xmlns="http://www.w3.org/2000/svg">
<path d="M5.83301 8.75L5.83301 7" stroke="#ACB1BC" stroke-linecap="round"/>
<path d="M8.16699 8.75L8.16699 7" stroke="#ACB1BC" stroke-linecap="round"/>
<path d="M1.75 4.08301H12.25V4.08301C11.2835 4.08301 10.5 4.86651 10.5 5.83301V8.16634C10.5 9.5708 10.5 10.273 10.1629 10.7775C10.017 10.9959 9.82952 11.1834 9.61114 11.3293C9.10669 11.6663 8.40446 11.6663 7 11.6663V11.6663C5.59554 11.6663 4.89331 11.6663 4.38886 11.3293C4.17048 11.1834 3.98298 10.9959 3.83706 10.7775C3.5 10.273 3.5 9.5708 3.5 8.16634V5.83301C3.5 4.86651 2.7165 4.08301 1.75 4.08301V4.08301Z" stroke="#ACB1BC" stroke-width="1.2" stroke-linecap="round"/>
<path d="M5.87341 1.96618C5.93988 1.90416 6.08635 1.84936 6.2901 1.81027C6.49386 1.77119 6.7435 1.75 7.00033 1.75C7.25715 1.75 7.5068 1.77119 7.71055 1.81027C7.9143 1.84936 8.06077 1.90416 8.12724 1.96618" stroke="#ACB1BC" stroke-linecap="round"/>
</svg>
