<svg width="14" height="14" viewBox="0 0 14 14" fill="none" xmlns="http://www.w3.org/2000/svg">
<path d="M2.91667 11.0837H3.73333L8.76458 6.05241L7.94792 5.23574L2.91667 10.267V11.0837ZM11.2583 5.20658L8.77917 2.75658L9.59583 1.93991C9.81944 1.7163 10.0942 1.60449 10.4201 1.60449C10.746 1.60449 11.0205 1.7163 11.2437 1.93991L12.0604 2.75658C12.284 2.98019 12.4007 3.25008 12.4104 3.56624C12.4201 3.88241 12.3132 4.1521 12.0896 4.37533L11.2583 5.20658ZM10.4125 6.06699L4.22917 12.2503H1.75V9.77116L7.93333 3.58783L10.4125 6.06699ZM8.35625 5.64408L7.94792 5.23574L8.76458 6.05241L8.35625 5.64408Z" fill="#54617A"/>
</svg>
