<svg width="13" height="13" viewBox="0 0 13 13" fill="none" xmlns="http://www.w3.org/2000/svg">
<path d="M4.60425 6.77075L8.39591 6.77075" stroke="#54617A" stroke-linecap="round"/>
<path d="M4.60425 8.39575L6.77091 8.39575" stroke="#54617A" stroke-linecap="round"/>
<path d="M2.97925 3.19575C2.97925 2.74071 2.97925 2.51319 3.06781 2.33938C3.1457 2.1865 3.27 2.06221 3.42288 1.98431C3.59668 1.89575 3.82421 1.89575 4.27925 1.89575H6.7741C6.97283 1.89575 7.0722 1.89575 7.16571 1.9182C7.24861 1.9381 7.32787 1.97093 7.40056 2.01548C7.48256 2.06573 7.55282 2.13599 7.69334 2.27651L9.64015 4.22332C9.78068 4.36385 9.85094 4.43411 9.90118 4.5161C9.94573 4.5888 9.97856 4.66805 9.99846 4.75096C10.0209 4.84447 10.0209 4.94383 10.0209 5.14256V9.80408C10.0209 10.2591 10.0209 10.4866 9.93236 10.6605C9.85446 10.8133 9.73016 10.9376 9.57728 11.0155C9.40348 11.1041 9.17596 11.1041 8.72091 11.1041H4.27925C3.82421 11.1041 3.59668 11.1041 3.42288 11.0155C3.27 10.9376 3.1457 10.8133 3.06781 10.6605C2.97925 10.4866 2.97925 10.2591 2.97925 9.80408V3.19575Z" stroke="#54617A"/>
<path d="M6.77075 1.89575V3.84575C6.77075 4.30079 6.77075 4.52832 6.85931 4.70212C6.93721 4.855 7.0615 4.9793 7.21438 5.05719C7.38819 5.14575 7.61571 5.14575 8.07075 5.14575H10.0208" stroke="#54617A"/>
</svg>
