<svg width="14" height="14" viewBox="0 0 14 14" fill="none" xmlns="http://www.w3.org/2000/svg">
<path d="M8.0136 12.745C8.76801 12.612 9.48882 12.3317 10.1349 11.9201C10.781 11.5085 11.3397 10.9737 11.779 10.3462C12.2184 9.71868 12.5299 9.01078 12.6957 8.26289C12.8615 7.515 12.8784 6.74178 12.7454 5.98738C12.6123 5.23297 12.332 4.51215 11.9204 3.86608C11.5088 3.22 10.974 2.66132 10.3465 2.22194C9.71901 1.78255 9.0111 1.47107 8.26321 1.30527C7.51533 1.13946 6.74211 1.12259 5.9877 1.25561C5.2333 1.38864 4.51248 1.66895 3.8664 2.08054C3.22033 2.49214 2.66165 3.02696 2.22226 3.65446C1.78288 4.28197 1.47139 4.98988 1.30559 5.73776C1.13979 6.48565 1.12292 7.25887 1.25594 8.01327C1.38896 8.76768 1.66927 9.4885 2.08087 10.1346C2.49246 10.7806 3.02728 11.3393 3.65479 11.7787C4.2823 12.2181 4.9902 12.5296 5.73809 12.6954C6.48597 12.8612 7.25919 12.8781 8.0136 12.745L8.0136 12.745Z" stroke="#54617A"/>
<path d="M7 7L7 10.5" stroke="#54617A" stroke-linecap="square"/>
<path d="M7 4.08301L7 3.49967" stroke="#54617A" stroke-linecap="square"/>
</svg>
