<svg width="14" height="14" viewBox="0 0 14 14" fill="none" xmlns="http://www.w3.org/2000/svg">
<path d="M12.682 7.64523C11.8976 7.36101 11.0275 7.42419 10.2918 7.8181L9.09258 8.35758C8.99568 7.80524 8.57146 7.39018 8.04787 7.37423C8.04479 7.37414 6.24971 7.35389 6.24971 7.35389C4.81291 6.95977 3.87934 7.46619 3.34677 7.96528C3.23785 8.06735 3.14207 8.17244 3.05777 8.27609C2.91406 8.12132 2.66038 8.07998 2.47539 8.18168L0.845917 9.07738C0.634571 9.19357 0.542613 9.44847 0.63125 9.67253L2.22372 13.6982C2.32836 13.9627 2.64994 14.0796 2.90087 13.9417L4.53034 13.046C4.68308 12.962 4.77301 12.8055 4.77794 12.6407H7.20993C7.60663 12.6407 7.99827 12.5365 8.34253 12.3394C8.34253 12.3394 12.9165 9.71561 12.9423 9.69216C13.5828 9.10945 13.6025 7.9788 12.682 7.64523C13.0492 7.77829 11.8976 7.36101 12.682 7.64523ZM2.91543 12.8408L1.67805 9.71277L2.46073 9.28257L3.69812 12.4106L2.91543 12.8408ZM12.3302 8.95204L7.86533 11.5089C7.66607 11.6231 7.43941 11.6834 7.20984 11.6834H4.44134L3.51178 9.33345C3.59141 9.1712 3.74825 8.90197 4.00298 8.66328C4.52466 8.17442 5.21227 8.04931 6.04686 8.29144C6.08859 8.30356 6.13178 8.30993 6.17522 8.31044L8.02047 8.3312C8.06758 8.33527 8.15455 8.44 8.15455 8.59878C8.15455 8.76224 8.06474 8.86646 8.01778 8.86646H6.20475V9.82378H8.01778C8.24237 9.82378 8.45139 9.74783 8.62537 9.6177L10.7014 8.68383C10.7124 8.67886 10.7232 8.67354 10.7338 8.66777C11.2318 8.39698 11.8227 8.35226 12.3548 8.54509C12.5654 8.62143 12.4133 8.86774 12.3302 8.95204ZM9.44916 6.89778C7.54758 6.89778 6.00052 5.3506 6.00052 3.44888C6.00052 1.54718 7.54755 0 9.44916 0C11.3508 0 12.8978 1.54718 12.8978 3.44888C12.8978 5.3506 11.3507 6.89778 9.44916 6.89778ZM9.44916 0.957325C8.07629 0.957325 6.9594 2.07502 6.9594 3.44888C6.9594 4.82273 8.07632 5.94043 9.44916 5.94043C10.8221 5.94043 11.9389 4.8227 11.9389 3.44888C11.9389 2.07505 10.822 0.957325 9.44916 0.957325Z" fill="#B7C0CA"/>
</svg>
