<svg xmlns="http://www.w3.org/2000/svg" width="13" height="13" viewBox="0 0 13 13" fill="none">
  <path fill-rule="evenodd" clip-rule="evenodd" d="M2.03125 5.95833C2.03125 3.78946 3.78946 2.03125 5.95833 2.03125C8.1272 2.03125 9.88542 3.78946 9.88542 5.95833C9.88542 8.1272 8.1272 9.88542 5.95833 9.88542C3.78946 9.88542 2.03125 8.1272 2.03125 5.95833ZM5.95833 1.21875C3.34073 1.21875 1.21875 3.34073 1.21875 5.95833C1.21875 8.57593 3.34073 10.6979 5.95833 10.6979C7.12056 10.6979 8.18508 10.2796 9.00954 9.58529L10.5448 11.1205C10.7034 11.2792 10.9606 11.2792 11.1193 11.1205C11.2779 10.9619 11.2779 10.7046 11.1193 10.546L9.58417 9.01087C10.2791 8.18622 10.6979 7.12118 10.6979 5.95833C10.6979 3.34073 8.57593 1.21875 5.95833 1.21875Z" fill="#3F5B91"/>
</svg>