<svg width="12" height="12" viewBox="0 0 12 12" fill="none" xmlns="http://www.w3.org/2000/svg">
<path fill-rule="evenodd" clip-rule="evenodd" d="M6.94461 1.27843C6.94461 0.756827 6.52176 0.333984 6.00016 0.333984C5.47856 0.333984 5.05572 0.756825 5.05572 1.27843V5.05621H1.27794C0.756338 5.05621 0.333496 5.47905 0.333496 6.00065C0.333496 6.52225 0.756337 6.9451 1.27794 6.9451H5.05572V10.7229C5.05572 11.2445 5.47856 11.6673 6.00016 11.6673C6.52176 11.6673 6.94461 11.2445 6.94461 10.7229V6.9451H10.7224C11.244 6.9451 11.6668 6.52225 11.6668 6.00065C11.6668 5.47905 11.244 5.05621 10.7224 5.05621H6.94461V1.27843Z" fill="#242E42"/>
</svg>
