<svg width="16" height="18" viewBox="0 0 16 18" fill="none" xmlns="http://www.w3.org/2000/svg">
<path d="M12.0522 7.3645L12.5374 6.18697C12.6385 5.94395 12.4363 5.66363 12.1533 5.66363H6.25071L4.97718 8.61673L4.71435 6.54209H4.87622C4.97732 6.54209 5.07842 6.46738 5.07842 6.35513V5.79438C5.07842 5.7009 4.99763 5.60742 4.87622 5.60742H3.88569C3.78459 5.60742 3.68349 5.68213 3.68349 5.79438V6.35513C3.68349 6.44861 3.76429 6.54209 3.88569 6.54209H4.06773L3.8049 8.61673L2.55166 5.71967C1.39937 5.96269 0.489772 6.84117 0.368523 7.96249L0.00473984 11.1212C-0.0357283 11.4389 0.186635 11.7194 0.530272 11.7754C0.894056 11.8502 1.39941 11.9063 1.90477 11.9624L2.22822 16.9901C2.24839 17.42 2.63247 17.7377 3.09736 17.7377H5.72524C6.19013 17.7377 6.55406 17.4013 6.59438 16.9901L7.03909 8.37384C7.03909 7.94399 7.4232 7.6075 7.88809 7.6075H11.6884C11.8501 7.6075 11.9917 7.51402 12.0523 7.36448L12.0522 7.3645Z" fill="#484F76"/>
<path d="M7.16179 2.56056C7.16179 3.97473 5.9218 5.12126 4.39235 5.12126C2.8629 5.12126 1.62305 3.97473 1.62305 2.56056C1.62305 1.14639 2.8629 0 4.39235 0C5.9218 0 7.16179 1.14639 7.16179 2.56056Z" fill="#484F76"/>
<path d="M10.9008 8.8967C10.5572 8.44809 9.99121 8.72851 9.99121 9.06488C9.99121 9.40125 10.2337 9.96199 10.4966 10.4853C10.9615 10.5414 11.4466 10.5788 11.9722 10.5788C12.4775 10.5788 12.9424 10.5414 13.3871 10.5041C13.6701 9.94335 13.933 9.34532 13.933 9.08366C13.933 8.69109 13.4074 8.50429 13.084 8.91547C12.6594 9.45743 12.4978 8.67246 12.0126 8.67246C11.5274 8.67246 11.2647 9.38273 10.9008 8.8967L10.9008 8.8967Z" fill="#484F76"/>
<path d="M13.4678 11.0459C13.0029 11.102 12.4773 11.1394 11.9518 11.1394C11.4262 11.1394 10.9006 11.102 10.4357 11.0459C9.32388 11.9243 8.09082 13.3822 8.09082 14.6905C8.09082 16.7652 9.8091 17.7558 11.9517 17.7558C14.0742 17.7558 15.8126 16.7838 15.8126 14.6905C15.8126 13.3822 14.5796 11.9244 13.4678 11.0459H13.4678ZM12.2348 15.9428V16.3354C12.2348 16.3728 12.1943 16.4101 12.154 16.4101H11.7497C11.7092 16.4101 11.6689 16.3726 11.6689 16.3354V15.9616C11.2444 15.9429 10.921 15.6439 10.8806 15.2513C10.8806 15.2139 10.921 15.1766 10.9614 15.1766H11.3859C11.4264 15.1766 11.4667 15.1953 11.4667 15.2327C11.4869 15.3448 11.6083 15.4383 11.7497 15.4383H12.1135C12.3359 15.4383 12.5178 15.2887 12.5381 15.1019C12.5582 14.8777 12.3763 14.6907 12.1338 14.6907H11.871C11.3656 14.6907 10.9008 14.3356 10.8603 13.8683C10.7997 13.3824 11.2039 12.9524 11.7093 12.8777V12.4851C11.7093 12.4477 11.7498 12.4104 11.7901 12.4104H12.1943C12.2348 12.4104 12.2751 12.4479 12.2751 12.4851V12.8589C12.6997 12.8776 13.023 13.1766 13.0635 13.5692C13.0635 13.6066 13.023 13.6439 12.9827 13.6439H12.5784C12.538 13.6439 12.4976 13.6253 12.4976 13.5878C12.4775 13.4757 12.3561 13.3822 12.2146 13.3822H11.8509C11.6285 13.3822 11.4466 13.5318 11.4263 13.7186C11.4061 13.9428 11.588 14.1484 11.8305 14.1484H12.1337C12.6997 14.1484 13.1646 14.597 13.1039 15.139C13.0433 15.5504 12.6795 15.8681 12.2348 15.9428H12.2348Z" fill="#484F76"/>
</svg>
