<svg width="46" height="46" viewBox="0 0 46 46" fill="none" xmlns="http://www.w3.org/2000/svg">
<g id="iconoir:hand-cash">
<g id="Group">
<path id="Vector" d="M3.83203 21.0833L9.21211 15.0323C9.93139 14.2229 10.814 13.575 11.8018 13.1313C12.7895 12.6877 13.8601 12.4583 14.9429 12.4583H15.332M3.83203 37.3749H14.3737L22.0404 31.6249C22.0404 31.6249 23.5929 30.5765 25.8737 28.7499C30.6654 24.9166 25.8737 18.8484 21.082 22.0416C17.1797 24.6425 13.4154 26.8333 13.4154 26.8333" stroke="#33A3AA" stroke-width="2.375" stroke-linecap="round" stroke-linejoin="round"/>
<path id="Vector_2" d="M15.332 25.8749V13.4166C15.332 12.3999 15.7359 11.4249 16.4548 10.706C17.1737 9.98712 18.1487 9.58325 19.1654 9.58325H38.332C39.3487 9.58325 40.3237 9.98712 41.0426 10.706C41.7615 11.4249 42.1654 12.3999 42.1654 13.4166V24.9166C42.1654 25.9332 41.7615 26.9083 41.0426 27.6272C40.3237 28.346 39.3487 28.7499 38.332 28.7499H25.8737" stroke="#33A3AA" stroke-width="2.375"/>
<path id="Vector_3" d="M37.375 19.1858L37.3942 19.1647M20.125 19.1858L20.1442 19.1647M28.75 22.9999C27.7333 22.9999 26.7583 22.5961 26.0394 21.8772C25.3205 21.1583 24.9167 20.1832 24.9167 19.1666C24.9167 18.1499 25.3205 17.1749 26.0394 16.456C26.7583 15.7371 27.7333 15.3333 28.75 15.3333C29.7667 15.3333 30.7417 15.7371 31.4606 16.456C32.1795 17.1749 32.5833 18.1499 32.5833 19.1666C32.5833 20.1832 32.1795 21.1583 31.4606 21.8772C30.7417 22.5961 29.7667 22.9999 28.75 22.9999Z" stroke="#33A3AA" stroke-width="2.375" stroke-linecap="round" stroke-linejoin="round"/>
</g>
</g>
</svg>
