<svg width="13" height="13" viewBox="0 0 13 13" fill="none" xmlns="http://www.w3.org/2000/svg">
<g id="Import_light">
<path id="Vector 9" d="M6.22928 7.5835L5.99463 7.80837L6.22928 8.05321L6.46392 7.80837L6.22928 7.5835ZM6.55428 2.7085C6.55428 2.529 6.40877 2.3835 6.22928 2.3835C6.04978 2.3835 5.90428 2.529 5.90428 2.7085L6.55428 2.7085ZM3.39914 5.10003L5.99463 7.80837L6.46392 7.35863L3.86844 4.65029L3.39914 5.10003ZM6.46392 7.80837L9.05941 5.10003L8.59012 4.65029L5.99463 7.35863L6.46392 7.80837ZM6.55428 7.5835L6.55428 2.7085L5.90428 2.7085L5.90428 7.5835L6.55428 7.5835Z" fill="#979797"/>
<path id="Vector 114" d="M2.59521 8.6665L2.59521 9.20817C2.59521 9.80648 3.06003 10.2915 3.63341 10.2915L8.82438 10.2915C9.39776 10.2915 9.86258 9.80648 9.86258 9.20817V8.6665" stroke="#979797" stroke-width="0.65"/>
</g>
</svg>
