<svg width="67" height="69" viewBox="0 0 67 69" fill="none" xmlns="http://www.w3.org/2000/svg">
<path id="Success" d="M33.5 0C15.0288 0 0 15.4774 0 34.5C0 53.5226 15.0288 69 33.5 69C51.9712 69 67 53.5226 67 34.5C67 15.4774 51.9712 0 33.5 0ZM52.2231 25.4211L30.8133 47.297C29.5539 48.594 27.5388 48.6805 26.1955 47.3835L14.8609 36.7481C13.5175 35.4511 13.4336 33.2895 14.609 31.906C15.8684 30.5226 17.9674 30.4361 19.3108 31.7331L28.2945 40.2068L47.4373 20.4925C48.7807 19.109 50.8797 19.109 52.2231 20.4925C53.5664 21.8759 53.5664 24.0376 52.2231 25.4211Z" fill="#33A3AA"/>
</svg>
