<svg width="6500" height="4187" viewBox="0 0 6500 4187" fill="none" xmlns="http://www.w3.org/2000/svg">
<path d="M5221.86 3326.77C5026.6 3326.77 4851.37 3281.72 4696.17 3191.6C4540.97 3098.98 4417.06 2975.06 4324.44 2819.86C4234.32 2662.16 4188.01 2485.67 4185.5 2290.42V536.875C4185.5 486.81 4199.27 448.009 4226.81 420.473C4256.85 390.434 4296.9 375.414 4346.96 375.414C4394.53 375.414 4432.08 390.434 4459.61 420.473C4489.65 448.009 4504.67 486.81 4504.67 536.875V1610.78C4587.28 1498.13 4694.92 1408.01 4827.59 1340.43C4960.27 1270.33 5107.96 1235.29 5270.67 1235.29C5460.92 1235.29 5631.14 1281.6 5781.34 1374.22C5931.54 1464.34 6049.19 1588.25 6134.3 1745.96C6221.92 1903.66 6265.72 2081.4 6265.72 2279.15C6265.72 2479.42 6219.41 2658.4 6126.79 2816.11C6036.67 2973.81 5912.76 3098.98 5755.06 3191.6C5599.85 3281.72 5422.12 3326.77 5221.86 3326.77ZM5221.86 3041.4C5362.04 3041.4 5487.21 3007.61 5597.35 2940.02C5710 2872.43 5797.61 2782.31 5860.19 2669.67C5925.28 2554.51 5957.82 2424.34 5957.82 2279.15C5957.82 2136.47 5925.28 2007.55 5860.19 1892.4C5797.61 1777.25 5710 1687.13 5597.35 1622.04C5487.21 1554.46 5362.04 1520.66 5221.86 1520.66C5086.68 1520.66 4962.77 1554.46 4850.12 1622.04C4739.98 1687.13 4653.62 1777.25 4591.03 1892.4C4528.45 2007.55 4497.16 2136.47 4497.16 2279.15C4497.16 2424.34 4528.45 2554.51 4591.03 2669.67C4653.62 2782.31 4739.98 2872.43 4850.12 2940.02C4962.77 3007.61 5086.68 3041.4 5221.86 3041.4Z" fill="url(#paint0_linear_7152_4246)"/>
<path d="M2746.65 860.068C2304.71 860.068 1915.04 1088.17 1691.7 1435.06H1083.44C993.149 1435.06 921.869 1506.34 921.869 1596.63C921.869 1686.92 993.149 1758.2 1083.44 1758.2H1544.38C1530.13 1810.47 1515.87 1862.75 1511.12 1915.02H746.044C655.755 1915.02 584.475 1986.3 584.475 2076.59C584.475 2166.88 655.755 2238.16 746.044 2238.16H1501.62C1506.37 2290.43 1515.87 2342.7 1525.38 2394.97H1254.51C1164.22 2394.97 1092.94 2466.25 1092.94 2556.54C1092.94 2646.83 1164.22 2718.11 1254.51 2718.11H1644.18C1820 3046 2157.4 3307.36 2727.64 3335.88C2741.9 3335.88 2756.15 3335.88 2775.16 3335.88C3012.76 3335.88 3269.37 3250.34 3540.24 3088.77C3616.27 3041.25 3640.03 2941.46 3592.51 2865.42C3544.99 2789.39 3445.2 2765.63 3369.16 2813.15C3131.56 2955.71 2922.47 3022.24 2737.14 3017.49C2014.84 2984.23 1853.27 2509.02 1820 2238.16H3830.11C3872.88 2238.16 3915.65 2219.15 3944.16 2190.64C3972.67 2157.37 3991.68 2114.6 3991.68 2071.84C3977.42 1392.3 3430.94 860.068 2746.65 860.068ZM1839.01 1915.02C1929.3 1496.84 2299.96 1183.21 2746.65 1183.21C3193.34 1183.21 3568.75 1492.09 3654.28 1915.02H1839.01Z" fill="url(#paint1_linear_7152_4246)"/>
<path d="M294.626 1915.11H161.569C71.2809 1915.11 0 1986.39 0 2076.68C0 2166.97 71.2809 2238.25 161.569 2238.25H294.626C384.915 2238.25 456.195 2166.97 456.195 2076.68C456.195 1986.39 384.915 1915.11 294.626 1915.11Z" fill="url(#paint2_linear_7152_4246)"/>
<defs>
<linearGradient id="paint0_linear_7152_4246" x1="4153.56" y1="2382.26" x2="6427.47" y2="4048.21" gradientUnits="userSpaceOnUse">
<stop stop-color="#33A3AA"/>
<stop offset="1" stop-color="#6CDAE1"/>
</linearGradient>
<linearGradient id="paint1_linear_7152_4246" x1="2288.08" y1="860.068" x2="2288.08" y2="3335.88" gradientUnits="userSpaceOnUse">
<stop stop-color="#33A3AA"/>
<stop offset="1" stop-color="#65CCD2"/>
</linearGradient>
<linearGradient id="paint2_linear_7152_4246" x1="228.097" y1="1915.11" x2="228.097" y2="2238.25" gradientUnits="userSpaceOnUse">
<stop stop-color="#33A3AA"/>
<stop offset="1" stop-color="#65CCD2"/>
</linearGradient>
</defs>
</svg>
