<svg width="122" height="119" viewBox="0 0 122 119" fill="none" xmlns="http://www.w3.org/2000/svg">
<g id="Not Found illustration">
<path id="Vector" d="M59.5093 105.42C85.2982 105.42 106.204 84.5144 106.204 58.7254C106.204 32.9364 85.2982 12.0303 59.5093 12.0303C33.7203 12.0303 12.8142 32.9364 12.8142 58.7254C12.8142 84.5144 33.7203 105.42 59.5093 105.42Z" fill="url(#paint0_linear_466_5015)"/>
<path id="Vector_2" d="M84.7009 22.8961H32.9726C29.7483 22.8961 27.1345 25.5099 27.1345 28.7342H90.539C90.539 25.5099 87.9252 22.8961 84.7009 22.8961Z" fill="#38406B"/>
<path id="Vector_3" d="M27.1345 28.5746H90.539V76.8645C90.539 79.0115 89.6861 81.0706 88.168 82.5887C86.6498 84.1069 84.5907 84.9598 82.4437 84.9598H35.2298C33.0828 84.9598 31.0237 84.1069 29.5056 82.5887C27.9874 81.0706 27.1345 79.0115 27.1345 76.8645V28.5746Z" fill="white" fill-opacity="0.5"/>
<path id="Vector_4" d="M79.6403 34.6741H38.054C37.1879 34.6741 36.4858 35.3754 36.4858 36.2405C36.4858 37.1056 37.1879 37.807 38.054 37.807H79.6403C80.5063 37.807 81.2084 37.1056 81.2084 36.2405C81.2084 35.3754 80.5063 34.6741 79.6403 34.6741Z" fill="url(#paint1_linear_466_5015)"/>
<path id="Vector_5" d="M79.6403 47.9845H38.054C37.1879 47.9845 36.4858 48.6858 36.4858 49.5509C36.4858 50.4161 37.1879 51.1174 38.054 51.1174H79.6403C80.5063 51.1174 81.2084 50.4161 81.2084 49.5509C81.2084 48.6858 80.5063 47.9845 79.6403 47.9845Z" fill="url(#paint2_linear_466_5015)"/>
<path id="Vector_6" d="M79.6403 61.2949H38.054C37.1879 61.2949 36.4858 61.9962 36.4858 62.8614C36.4858 63.7265 37.1879 64.4278 38.054 64.4278H79.6403C80.5063 64.4278 81.2084 63.7265 81.2084 62.8614C81.2084 61.9962 80.5063 61.2949 79.6403 61.2949Z" fill="url(#paint3_linear_466_5015)"/>
<path id="Vector_7" d="M79.6403 74.6053H38.054C37.1879 74.6053 36.4858 75.3066 36.4858 76.1717C36.4858 77.0369 37.1879 77.7382 38.054 77.7382H79.6403C80.5063 77.7382 81.2084 77.0369 81.2084 76.1717C81.2084 75.3066 80.5063 74.6053 79.6403 74.6053Z" fill="url(#paint4_linear_466_5015)"/>
<g id="Vector_8" filter="url(#filter0_d_466_5015)">
<path d="M37.7722 58.44H15.6281C13.8491 58.44 12.407 59.8822 12.407 61.6611V93.3125C12.407 95.0914 13.8491 96.5336 15.6281 96.5336H37.7722C39.5512 96.5336 40.9933 95.0914 40.9933 93.3125V61.6611C40.9933 59.8822 39.5512 58.44 37.7722 58.44Z" fill="url(#paint5_linear_466_5015)" fill-opacity="0.8" shape-rendering="crispEdges"/>
</g>
<g id="Vector_9" filter="url(#filter1_d_466_5015)">
<path d="M100.809 9H76.3503C75.2106 9 74.2866 9.92395 74.2866 11.0637V22.56C74.2866 23.6998 75.2106 24.6237 76.3503 24.6237H100.809C101.949 24.6237 102.873 23.6998 102.873 22.56V11.0637C102.873 9.92395 101.949 9 100.809 9Z" fill="white" fill-opacity="0.5" shape-rendering="crispEdges"/>
</g>
<path id="Vector_10" d="M35.3011 74.2741H18.0991C17.5199 74.2741 17.0503 74.7437 17.0503 75.3229V75.3263C17.0503 75.9056 17.5199 76.3751 18.0991 76.3751H35.3011C35.8804 76.3751 36.35 75.9056 36.35 75.3263V75.3229C36.35 74.7437 35.8804 74.2741 35.3011 74.2741Z" fill="url(#paint6_linear_466_5015)"/>
<path id="Vector_11" d="M35.311 89.058H18.2568C17.6826 89.058 17.217 89.513 17.217 90.0742V90.0774C17.217 90.6386 17.6826 91.0936 18.2568 91.0936H35.311C35.8853 91.0936 36.3509 90.6386 36.3509 90.0774V90.0742C36.3509 89.513 35.8853 89.058 35.311 89.058Z" fill="url(#paint7_linear_466_5015)"/>
<path id="Vector_12" d="M35.311 81.3231H18.2568C17.6826 81.3231 17.217 81.7781 17.217 82.3392V82.3425C17.217 82.9037 17.6826 83.3586 18.2568 83.3586H35.311C35.8853 83.3586 36.3509 82.9037 36.3509 82.3425V82.3392C36.3509 81.7781 35.8853 81.3231 35.311 81.3231Z" fill="url(#paint8_linear_466_5015)"/>
<path id="Vector_13" d="M24.3888 63.3277H19.3619C18.2484 63.3277 17.3457 64.2304 17.3457 65.3439V66.7389C17.3457 67.8524 18.2484 68.7551 19.3619 68.7551H24.3888C25.5023 68.7551 26.4049 67.8524 26.4049 66.7389V65.3439C26.4049 64.2304 25.5023 63.3277 24.3888 63.3277Z" fill="url(#paint9_linear_466_5015)"/>
<g id="Group 24">
<g id="Group 23">
<path id="Vector_14" d="M80.323 19.1827C81.6334 19.1827 82.6956 18.1205 82.6956 16.8101C82.6956 15.4998 81.6334 14.4376 80.323 14.4376C79.0127 14.4376 77.9504 15.4998 77.9504 16.8101C77.9504 18.1205 79.0127 19.1827 80.323 19.1827Z" fill="#252F69"/>
<path id="Vector_15" d="M88.8018 19.1827C90.1121 19.1827 91.1744 18.1205 91.1744 16.8101C91.1744 15.4998 90.1121 14.4376 88.8018 14.4376C87.4914 14.4376 86.4292 15.4998 86.4292 16.8101C86.4292 18.1205 87.4914 19.1827 88.8018 19.1827Z" fill="#252F69"/>
<path id="Vector_16" d="M97.2805 19.1827C98.5909 19.1827 99.6531 18.1205 99.6531 16.8101C99.6531 15.4998 98.5909 14.4376 97.2805 14.4376C95.9702 14.4376 94.908 15.4998 94.908 16.8101C94.908 18.1205 95.9702 19.1827 97.2805 19.1827Z" fill="#252F69"/>
</g>
</g>
<path id="Vector_17" d="M90.8478 75.7715L84.8389 82.3961L101.776 97.7593L107.785 91.1347L90.8478 75.7715Z" fill="#858BB0"/>
<path id="Subtract" fill-rule="evenodd" clip-rule="evenodd" d="M97.198 64.8069C97.198 78.6657 85.9632 89.9005 72.1044 89.9005C58.2456 89.9005 47.0107 78.6657 47.0107 64.8069C47.0107 50.9481 58.2456 39.7133 72.1044 39.7133C85.9632 39.7133 97.198 50.9481 97.198 64.8069ZM93.3489 64.8069C93.3489 76.54 83.8374 86.0515 72.1043 86.0515C60.3713 86.0515 50.8597 76.54 50.8597 64.8069C50.8597 53.0739 60.3713 43.5624 72.1043 43.5624C83.8374 43.5624 93.3489 53.0739 93.3489 64.8069Z" fill="#848AB0"/>
<g id="Vector_18" opacity="0.6" filter="url(#filter2_b_466_5015)">
<path d="M72.1044 86.0515C83.8375 86.0515 93.349 76.54 93.349 64.807C93.349 53.0739 83.8375 43.5624 72.1044 43.5624C60.3714 43.5624 50.8599 53.0739 50.8599 64.807C50.8599 76.54 60.3714 86.0515 72.1044 86.0515Z" fill="url(#paint10_linear_466_5015)" fill-opacity="0.2"/>
</g>
<g id="Ellipse 61" filter="url(#filter3_f_466_5015)">
<ellipse cx="72.807" cy="76.5409" rx="14.9347" ry="2.20626" fill="#CDB2B8" fill-opacity="0.56"/>
</g>
<path id="Star 1" d="M54.9289 93.7559C55.2962 92.2343 57.4605 92.2343 57.8278 93.7559C57.959 94.2996 58.3836 94.7242 58.9273 94.8554C60.4489 95.2227 60.4489 97.387 58.9273 97.7543C58.3836 97.8855 57.959 98.3101 57.8278 98.8538C57.4605 100.375 55.2962 100.375 54.9289 98.8538C54.7976 98.3101 54.3731 97.8855 53.8294 97.7543C52.3078 97.387 52.3078 95.2227 53.8294 94.8554C54.3731 94.7242 54.7976 94.2996 54.9289 93.7559Z" fill="#38406B"/>
<path id="Star 2" d="M21.1393 15.5921C21.5066 14.0705 23.6709 14.0705 24.0382 15.5921C24.1695 16.1359 24.594 16.5604 25.1378 16.6917C26.6593 17.059 26.6593 19.2232 25.1378 19.5905C24.594 19.7218 24.1695 20.1463 24.0382 20.6901C23.6709 22.2116 21.5066 22.2116 21.1393 20.6901C21.0081 20.1463 20.5835 19.7218 20.0398 19.5905C18.5182 19.2232 18.5182 17.059 20.0398 16.6917C20.5835 16.5604 21.0081 16.1359 21.1393 15.5921Z" fill="#38406B"/>
<path id="Ellipse 59 (Stroke)" fill-rule="evenodd" clip-rule="evenodd" d="M57.6476 13.508C58.4349 13.508 59.0731 12.8698 59.0731 12.0824C59.0731 11.2951 58.4349 10.6569 57.6476 10.6569C56.8603 10.6569 56.222 11.2951 56.222 12.0824C56.222 12.8698 56.8603 13.508 57.6476 13.508ZM57.6476 14.5772C59.0254 14.5772 60.1423 13.4602 60.1423 12.0824C60.1423 10.7046 59.0254 9.58771 57.6476 9.58771C56.2698 9.58771 55.1528 10.7046 55.1528 12.0824C55.1528 13.4602 56.2698 14.5772 57.6476 14.5772Z" fill="#38406B"/>
<path id="Polygon 2" d="M102.42 54.5045C102.087 53.1985 103.292 52.0217 104.59 52.3863L104.694 52.4155C105.991 52.7801 106.407 54.4127 105.443 55.3541L105.366 55.4293C104.401 56.3707 102.779 55.9149 102.446 54.6088L102.42 54.5045Z" fill="#38406B"/>
<path id="Polygon 3" d="M16.6538 47.0835C17.9603 46.7521 19.1355 47.9594 18.7692 49.2565L18.7399 49.3601C18.3736 50.6572 16.7405 51.0713 15.8004 50.1055L15.7252 50.0284C14.7851 49.0626 15.243 47.4412 16.5494 47.1099L16.6538 47.0835Z" fill="#38406B"/>
<path id="Polygon 4" d="M84.6399 96.3429C85.9464 96.0116 87.1216 97.2188 86.7553 98.5159L86.726 98.6196C86.3597 99.9166 84.7266 100.331 83.7865 99.365L83.7113 99.2878C82.7712 98.322 83.2291 96.7007 84.5355 96.3694L84.6399 96.3429Z" fill="#38406B"/>
<path id="Ellipse 60 (Stroke)" fill-rule="evenodd" clip-rule="evenodd" d="M105.279 34.2702C106.066 34.2702 106.704 33.632 106.704 32.8446C106.704 32.0573 106.066 31.4191 105.279 31.4191C104.491 31.4191 103.853 32.0573 103.853 32.8446C103.853 33.632 104.491 34.2702 105.279 34.2702ZM105.279 35.3394C106.656 35.3394 107.773 34.2225 107.773 32.8446C107.773 31.4668 106.656 30.3499 105.279 30.3499C103.901 30.3499 102.784 31.4668 102.784 32.8446C102.784 34.2225 103.901 35.3394 105.279 35.3394Z" fill="#38406B"/>
<path id="Vector_19" d="M101.775 97.7601L107.784 91.1355L108.689 91.9564C109.567 92.753 110.093 93.8657 110.15 95.0499C110.208 96.2341 109.793 97.3926 108.997 98.2708C108.2 99.1489 107.087 99.6747 105.903 99.7324C104.719 99.7901 103.56 99.375 102.682 98.5785L101.777 97.7576L101.775 97.7601Z" fill="#868BB0"/>
</g>
<defs>
<filter id="filter0_d_466_5015" x="0.406982" y="50.44" width="58.5864" height="68.0936" filterUnits="userSpaceOnUse" color-interpolation-filters="sRGB">
<feFlood flood-opacity="0" result="BackgroundImageFix"/>
<feColorMatrix in="SourceAlpha" type="matrix" values="0 0 0 0 0 0 0 0 0 0 0 0 0 0 0 0 0 0 127 0" result="hardAlpha"/>
<feOffset dx="3" dy="7"/>
<feGaussianBlur stdDeviation="7.5"/>
<feComposite in2="hardAlpha" operator="out"/>
<feColorMatrix type="matrix" values="0 0 0 0 0.104618 0 0 0 0 0.465612 0 0 0 0 0.545833 0 0 0 0.15 0"/>
<feBlend mode="normal" in2="BackgroundImageFix" result="effect1_dropShadow_466_5015"/>
<feBlend mode="normal" in="SourceGraphic" in2="effect1_dropShadow_466_5015" result="shape"/>
</filter>
<filter id="filter1_d_466_5015" x="67.2866" y="0" width="54.5864" height="41.6237" filterUnits="userSpaceOnUse" color-interpolation-filters="sRGB">
<feFlood flood-opacity="0" result="BackgroundImageFix"/>
<feColorMatrix in="SourceAlpha" type="matrix" values="0 0 0 0 0 0 0 0 0 0 0 0 0 0 0 0 0 0 127 0" result="hardAlpha"/>
<feOffset dx="6" dy="4"/>
<feGaussianBlur stdDeviation="6.5"/>
<feComposite in2="hardAlpha" operator="out"/>
<feColorMatrix type="matrix" values="0 0 0 0 0.104618 0 0 0 0 0.465612 0 0 0 0 0.545833 0 0 0 0.09 0"/>
<feBlend mode="normal" in2="BackgroundImageFix" result="effect1_dropShadow_466_5015"/>
<feBlend mode="normal" in="SourceGraphic" in2="effect1_dropShadow_466_5015" result="shape"/>
</filter>
<filter id="filter2_b_466_5015" x="34.1847" y="26.8872" width="75.8395" height="75.8394" filterUnits="userSpaceOnUse" color-interpolation-filters="sRGB">
<feFlood flood-opacity="0" result="BackgroundImageFix"/>
<feGaussianBlur in="BackgroundImageFix" stdDeviation="8.33757"/>
<feComposite in2="SourceAlpha" operator="in" result="effect1_backgroundBlur_466_5015"/>
<feBlend mode="normal" in="SourceGraphic" in2="effect1_backgroundBlur_466_5015" result="shape"/>
</filter>
<filter id="filter3_f_466_5015" x="37.0284" y="53.4907" width="71.5572" height="46.1004" filterUnits="userSpaceOnUse" color-interpolation-filters="sRGB">
<feFlood flood-opacity="0" result="BackgroundImageFix"/>
<feBlend mode="normal" in="SourceGraphic" in2="BackgroundImageFix" result="shape"/>
<feGaussianBlur stdDeviation="10.422" result="effect1_foregroundBlur_466_5015"/>
</filter>
<linearGradient id="paint0_linear_466_5015" x1="59.1493" y1="-3.17472" x2="60.1059" y2="160.811" gradientUnits="userSpaceOnUse">
<stop stop-color="white" stop-opacity="0"/>
<stop offset="1" stop-color="#252F69"/>
</linearGradient>
<linearGradient id="paint1_linear_466_5015" x1="34.5943" y1="37.6778" x2="83.8537" y2="37.6778" gradientUnits="userSpaceOnUse">
<stop stop-color="#252F69"/>
<stop offset="1" stop-color="#D5E9F9"/>
</linearGradient>
<linearGradient id="paint2_linear_466_5015" x1="34.5943" y1="50.9882" x2="83.8537" y2="50.9882" gradientUnits="userSpaceOnUse">
<stop stop-color="#252F69"/>
<stop offset="1" stop-color="#D5E9F9"/>
</linearGradient>
<linearGradient id="paint3_linear_466_5015" x1="34.5943" y1="64.2986" x2="83.8537" y2="64.2986" gradientUnits="userSpaceOnUse">
<stop stop-color="#252F69"/>
<stop offset="1" stop-color="#D5E9F9"/>
</linearGradient>
<linearGradient id="paint4_linear_466_5015" x1="34.5943" y1="77.609" x2="83.8537" y2="77.609" gradientUnits="userSpaceOnUse">
<stop stop-color="#252F69"/>
<stop offset="1" stop-color="#D5E9F9"/>
</linearGradient>
<linearGradient id="paint5_linear_466_5015" x1="11.5487" y1="87.0056" x2="122.047" y2="56.3679" gradientUnits="userSpaceOnUse">
<stop stop-color="white"/>
<stop offset="1" stop-color="#43627B" stop-opacity="0.86"/>
</linearGradient>
<linearGradient id="paint6_linear_466_5015" x1="38.5897" y1="76.4378" x2="15.3849" y2="76.4378" gradientUnits="userSpaceOnUse">
<stop stop-color="#8D98D3"/>
<stop offset="1" stop-color="#252F69"/>
</linearGradient>
<linearGradient id="paint7_linear_466_5015" x1="38.5714" y1="91.1542" x2="15.566" y2="91.1542" gradientUnits="userSpaceOnUse">
<stop stop-color="#8D98D3"/>
<stop offset="1" stop-color="#252F69"/>
</linearGradient>
<linearGradient id="paint8_linear_466_5015" x1="38.5714" y1="83.4193" x2="15.566" y2="83.4193" gradientUnits="userSpaceOnUse">
<stop stop-color="#8D98D3"/>
<stop offset="1" stop-color="#252F69"/>
</linearGradient>
<linearGradient id="paint9_linear_466_5015" x1="32.6868" y1="68.7029" x2="16.1992" y2="68.7029" gradientUnits="userSpaceOnUse">
<stop offset="0.243799" stop-color="#6B79C7"/>
<stop offset="1" stop-color="#252F69"/>
</linearGradient>
<linearGradient id="paint10_linear_466_5015" x1="72.1044" y1="43.5624" x2="93.5119" y2="99.1126" gradientUnits="userSpaceOnUse">
<stop stop-color="white"/>
<stop offset="1" stop-color="#797979"/>
</linearGradient>
</defs>
</svg>
