<svg width="938" height="938" viewBox="0 0 938 938" fill="none" xmlns="http://www.w3.org/2000/svg">
<path d="M332.197 488.519L605.78 488.519" stroke="#242E42" stroke-width="72.1538" stroke-linecap="round"/>
<path d="M332.197 605.769L488.53 605.769" stroke="#242E42" stroke-width="72.1538" stroke-linecap="round"/>
<path d="M214.947 230.569C214.947 197.735 214.947 181.319 221.337 168.778C226.957 157.747 235.926 148.779 246.957 143.158C259.497 136.769 275.914 136.769 308.747 136.769H488.76C503.099 136.769 510.269 136.769 517.016 138.388C522.998 139.824 528.716 142.193 533.962 145.408C539.878 149.033 544.948 154.103 555.087 164.242L695.557 304.712C705.696 314.851 710.766 319.921 714.391 325.837C717.605 331.082 719.974 336.801 721.41 342.783C723.03 349.53 723.03 356.699 723.03 371.038V707.385C723.03 740.218 723.03 756.635 716.64 769.175C711.02 780.206 702.051 789.175 691.02 794.795C678.48 801.185 662.063 801.185 629.23 801.185H308.747C275.914 801.185 259.497 801.185 246.957 794.795C235.926 789.175 226.957 780.206 221.337 769.175C214.947 756.635 214.947 740.218 214.947 707.385V230.569Z" stroke="#242E42" stroke-width="72.1538"/>
<path d="M488.553 136.769V277.469C488.553 310.302 488.553 326.718 494.943 339.259C500.564 350.29 509.532 359.258 520.563 364.879C533.104 371.269 549.52 371.269 582.353 371.269H723.053" stroke="#242E42" stroke-width="72.1538"/>
</svg>
