<svg width="1488" height="1669" viewBox="0 0 1488 1669" fill="none" xmlns="http://www.w3.org/2000/svg">
<path d="M521.207 240.954C521.207 374.03 404.521 481.921 260.597 481.921C116.672 481.921 0 374.03 0 240.954C0 107.878 116.672 0 260.597 0C404.521 0 521.207 107.878 521.207 240.954Z" fill="#242E42"/>
<path d="M1134.13 692.265L1179.79 581.457C1189.3 558.589 1170.28 532.211 1143.65 532.211H588.204L468.362 810.103L443.63 614.875H458.862C468.376 614.875 477.89 607.845 477.89 597.281V544.514C477.89 535.717 470.287 526.921 458.862 526.921H365.651C356.138 526.921 346.624 533.951 346.624 544.514V597.281C346.624 606.078 354.227 614.875 365.651 614.875H382.781L358.049 810.103L240.116 537.484C131.684 560.352 46.0885 643.019 34.6787 748.538L0.446028 1045.78C-3.3621 1075.68 17.5627 1102.07 49.8997 1107.34C84.1324 1114.37 131.687 1119.66 179.242 1124.94L209.68 1598.06C211.578 1638.51 247.721 1668.4 291.468 1668.4H538.757C582.504 1668.4 616.75 1636.75 620.544 1598.06L662.393 787.246C662.393 746.797 698.538 715.132 742.285 715.132H1099.9C1115.12 715.132 1128.44 706.335 1134.14 692.264L1134.13 692.265Z" fill="#242E42"/>
<path d="M1083.87 548.812C1051.54 506.598 998.275 532.986 998.275 564.639C998.275 596.292 1021.1 649.059 1045.83 698.305C1089.58 703.581 1135.23 707.102 1184.69 707.102C1232.24 707.102 1275.99 703.581 1317.84 700.072C1344.47 647.304 1369.2 591.029 1369.2 566.406C1369.2 529.464 1319.75 511.886 1289.31 550.579C1249.36 601.578 1234.15 527.711 1188.49 527.711C1142.84 527.711 1118.11 594.549 1083.87 548.813L1083.87 548.812Z" fill="#242E42"/>
<path d="M1267.35 985.018C1223.6 990.017 1174.14 993.354 1124.68 993.354C1075.23 993.354 1025.77 990.017 982.02 985.018C877.396 1063.35 761.362 1193.36 761.362 1310.03C761.362 1495.03 923.055 1583.37 1124.68 1583.37C1324.41 1583.37 1488 1496.7 1488 1310.03C1488 1193.36 1371.97 1063.36 1267.34 985.018H1267.35ZM1151.32 1421.7V1456.71C1151.32 1460.04 1147.51 1463.37 1143.71 1463.37H1105.67C1101.86 1463.37 1098.07 1460.03 1098.07 1456.71V1423.37C1058.12 1421.71 1027.69 1395.04 1023.88 1360.04C1023.88 1356.7 1027.69 1353.37 1031.49 1353.37H1071.44C1075.25 1353.37 1079.04 1355.04 1079.04 1358.37C1080.94 1368.37 1092.36 1376.71 1105.67 1376.71H1139.9C1160.83 1376.71 1177.95 1363.37 1179.86 1346.71C1181.76 1326.72 1164.64 1310.04 1141.82 1310.04H1117.08C1069.53 1310.04 1025.78 1278.37 1021.97 1236.71C1016.27 1193.37 1054.31 1155.03 1101.87 1148.37V1113.36C1101.87 1110.03 1105.68 1106.7 1109.47 1106.7H1147.51C1151.32 1106.7 1155.11 1110.04 1155.11 1113.36V1146.69C1195.07 1148.36 1225.49 1175.03 1229.3 1210.03C1229.3 1213.37 1225.49 1216.69 1221.7 1216.69H1183.66C1179.85 1216.69 1176.05 1215.03 1176.05 1211.69C1174.16 1201.7 1162.73 1193.36 1149.42 1193.36H1115.19C1094.27 1193.36 1077.15 1206.7 1075.24 1223.36C1073.34 1243.35 1090.46 1261.69 1113.28 1261.69H1141.8C1195.07 1261.69 1238.81 1301.69 1233.11 1350.02C1227.4 1386.7 1193.17 1415.04 1151.32 1421.7H1151.32Z" fill="#242E42"/>
</svg>
