<svg width="35" height="33" viewBox="0 0 35 33" fill="none" xmlns="http://www.w3.org/2000/svg">
<path d="M34.4764 20.4914C32.1389 29.3308 22.6424 34.7103 13.2651 32.506C3.89176 30.3023 -1.81438 21.3489 0.524158 12.5103C2.86065 3.66991 12.3572 -1.70996 21.7315 0.493736C31.1081 2.69743 36.8139 11.6518 34.4761 20.4916L34.4763 20.4914H34.4764Z" fill="#F7931A"/>
<path fill-rule="evenodd" clip-rule="evenodd" d="M25.2175 14.1492C25.5659 11.9534 23.7927 10.773 21.3679 9.98566L22.1545 7.01127L20.2339 6.56011L19.4682 9.45619C18.9633 9.33747 18.4448 9.22561 17.9294 9.11471L18.7007 6.19952L16.7814 5.74836L15.9943 8.72178C15.5765 8.6321 15.1662 8.54346 14.768 8.45007L14.7702 8.44071L12.1218 7.81721L11.6109 9.75104C11.6109 9.75104 13.0358 10.059 13.0057 10.0779C13.7834 10.2609 13.9241 10.7463 13.9007 11.131L13.0047 14.5195C13.0583 14.5323 13.1277 14.5509 13.2044 14.5799L13.1486 14.5668C13.1012 14.5556 13.0519 14.544 13.0014 14.5326L11.7454 19.2794C11.6504 19.5022 11.4091 19.8365 10.8654 19.7095C10.8846 19.7358 9.46951 19.3811 9.46951 19.3811L8.51599 21.4537L11.0153 22.041C11.2889 22.1058 11.5594 22.1722 11.8271 22.238C12.0142 22.284 12.2 22.3296 12.3846 22.3741L11.5898 25.3826L13.5081 25.8338L14.2952 22.8572C14.8193 22.9914 15.3278 23.1151 15.8257 23.2317L15.0413 26.1942L16.962 26.6454L17.7566 23.6425C21.0316 24.2268 23.4941 23.9913 24.5306 21.1987C25.3658 18.9503 24.489 17.6534 22.7661 16.8077C24.021 16.5349 24.9662 15.7568 25.2182 14.1494L25.2176 14.149L25.2175 14.1492ZM20.8295 19.95C20.285 22.0128 16.86 21.16 15.293 20.7698C15.152 20.7347 15.0261 20.7034 14.9187 20.6782L15.9733 16.6925C16.1042 16.7233 16.2642 16.7571 16.4455 16.7955L16.4455 16.7955C18.0664 17.1384 21.3874 17.8411 20.8296 19.95H20.8295ZM16.7706 14.9456C18.0771 15.2743 20.9271 15.9914 21.4234 14.1166H21.4236C21.9304 12.1991 19.1607 11.621 17.8079 11.3386C17.6558 11.3069 17.5215 11.2788 17.4119 11.2531L16.4557 14.8679C16.546 14.8891 16.6519 14.9158 16.7706 14.9456Z" fill="white"/>
</svg>
