<svg width="37" height="37" viewBox="0 0 37 37" fill="none" xmlns="http://www.w3.org/2000/svg">
<path d="M11.1565 11.5455L10.005 15H15.5V9.75H13.6485C13.0972 9.74968 12.5598 9.92295 12.1125 10.2452C11.6652 10.5675 11.3307 11.0224 11.1565 11.5455ZM9.424 16.75L9.417 16.7675L8.9515 16.883L8.738 16.9355C8.1699 17.0776 7.66563 17.4056 7.3054 17.8673C6.94517 18.329 6.74967 18.8979 6.75 19.4835V22.4375C6.75 22.7175 6.8375 22.98 6.98975 23.1935C7.30403 22.2876 7.9071 21.51 8.70627 20.9802C9.50545 20.4503 10.4565 20.1976 11.4133 20.2608C12.37 20.324 13.2796 20.6997 14.0021 21.3301C14.7246 21.9604 15.2201 22.8106 15.4125 23.75H22.5875C22.7786 22.8097 23.2736 21.9582 23.9962 21.3269C24.7188 20.6955 25.6289 20.3192 26.5864 20.2559C27.5439 20.1927 28.4956 20.446 29.295 20.9768C30.0944 21.5076 30.6971 22.2865 31.0103 23.1935C31.1666 22.9725 31.2504 22.7083 31.25 22.4375V20.3147C31.2502 19.7361 31.0592 19.1735 30.7066 18.7146C30.354 18.2557 29.8597 17.9262 29.3005 17.7772L25.4488 16.75H9.424ZM24.0278 15L21.8595 11.101C21.6324 10.6919 21.3002 10.351 20.8971 10.1135C20.4941 9.87596 20.0348 9.75047 19.567 9.75H17.25V15H24.0278ZM33 22.4375C33.0001 23.0246 32.8313 23.5994 32.5139 24.0934C32.1965 24.5873 31.7438 24.9796 31.2097 25.2235C31.0696 26.2474 30.5715 27.1886 29.8038 27.8804C29.0361 28.5721 28.0483 28.9698 27.0154 29.003C25.9825 29.0361 24.9712 28.7025 24.1608 28.0613C23.3503 27.4202 22.793 26.5128 22.5875 25.5H15.4125C15.207 26.5128 14.6497 27.4202 13.8392 28.0613C13.0288 28.7025 12.0175 29.0361 10.9846 29.003C9.95172 28.9698 8.9639 28.5721 8.19617 27.8804C7.42845 27.1886 6.93039 26.2474 6.79025 25.2235C6.25618 24.9796 5.80348 24.5873 5.48608 24.0934C5.16867 23.5994 4.99995 23.0246 5 22.4375V19.4835C4.99996 18.5534 5.29633 17.6475 5.84608 16.8973C6.39584 16.1471 7.17037 15.5916 8.05725 15.3115L9.4975 10.9908C9.78803 10.1197 10.3453 9.36213 11.0903 8.82536C11.8353 8.28859 12.7303 7.99984 13.6485 8H19.5652C20.3457 7.99983 21.1119 8.20841 21.7846 8.60413C22.4572 8.99984 23.0118 9.56828 23.3907 10.2505L26.0892 15.1102L29.752 16.0868C30.6836 16.3351 31.5071 16.8843 32.0944 17.6488C32.6818 18.4134 33.0001 19.3506 33 20.3147V22.4375ZM11.125 22C10.4288 22 9.76113 22.2766 9.26884 22.7688C8.77656 23.2611 8.5 23.9288 8.5 24.625C8.5 25.3212 8.77656 25.9889 9.26884 26.4812C9.76113 26.9734 10.4288 27.25 11.125 27.25C11.8212 27.25 12.4889 26.9734 12.9812 26.4812C13.4734 25.9889 13.75 25.3212 13.75 24.625C13.75 23.9288 13.4734 23.2611 12.9812 22.7688C12.4889 22.2766 11.8212 22 11.125 22ZM26.875 22C26.1788 22 25.5111 22.2766 25.0188 22.7688C24.5266 23.2611 24.25 23.9288 24.25 24.625C24.25 25.3212 24.5266 25.9889 25.0188 26.4812C25.5111 26.9734 26.1788 27.25 26.875 27.25C27.5712 27.25 28.2389 26.9734 28.7312 26.4812C29.2234 25.9889 29.5 25.3212 29.5 24.625C29.5 23.9288 29.2234 23.2611 28.7312 22.7688C28.2389 22.2766 27.5712 22 26.875 22Z" fill="#484F76"/>
</svg>
