<svg width="37" height="37" viewBox="0 0 37 37" fill="none" xmlns="http://www.w3.org/2000/svg">
<g clip-path="url(#clip0_437_4562)">
<path d="M10.937 15.3926C9.79793 15.3926 8.87451 16.0082 8.87451 16.7676C8.87451 17.527 9.79793 18.1426 10.937 18.1426C12.0761 18.1426 12.9996 18.7582 12.9996 19.5176C12.9996 20.277 12.0761 20.8926 10.937 20.8926M10.937 15.3926C11.7005 15.3926 12.367 15.6691 12.7236 16.0801M10.937 15.3926V14.7051M10.937 15.3926L10.937 20.8926M10.937 20.8926L10.937 21.5802M10.937 20.8926C10.1736 20.8926 9.50707 20.6161 9.15045 20.2051" stroke="#484F76" stroke-width="0.825" stroke-linecap="round"/>
<path d="M7.67187 28.2969C5.96324 28.2969 4.57812 26.8605 4.57812 25.0885L4.57812 12.2552C4.57812 10.4833 5.96324 9.04687 7.67187 9.04687L29.3281 9.04687C31.0368 9.04687 32.4219 10.4833 32.4219 12.2552L32.4219 18.6719L32.4219 25.0885C32.4219 26.8605 31.0368 28.2969 29.3281 28.2969L7.67187 28.2969Z" stroke="#484F76" stroke-width="1.65" stroke-linecap="round" stroke-linejoin="round"/>
<line x1="16.5755" y1="17.0148" x2="27.3005" y2="17.0148" stroke="#484F76" stroke-width="1.65" stroke-linecap="round"/>
<line x1="16.5755" y1="20.425" x2="27.3005" y2="20.425" stroke="#484F76" stroke-width="1.65" stroke-linecap="round"/>
</g>
<defs>
<clipPath id="clip0_437_4562">
<rect width="33" height="33" fill="white" transform="translate(2 2)"/>
</clipPath>
</defs>
</svg>
