<svg width="37" height="37" viewBox="0 0 37 37" fill="none" xmlns="http://www.w3.org/2000/svg">
<path d="M8 18.0379C8 15.9447 8 14.8981 8.42313 13.9781C8.84626 13.0582 9.6409 12.377 11.2302 11.0148L12.7718 9.69336C15.6445 7.23112 17.0808 6 18.7917 6C20.5026 6 21.9389 7.23112 24.8115 9.69336L26.3532 11.0148C27.9424 12.377 28.7371 13.0582 29.1602 13.9781C29.5833 14.8981 29.5833 15.9447 29.5833 18.0379V24.5752C29.5833 27.4822 29.5833 28.9357 28.6802 29.8388C27.7772 30.7418 26.3237 30.7418 23.4167 30.7418H14.1667C11.2597 30.7418 9.80618 30.7418 8.90309 29.8388C8 28.9357 8 27.4822 8 24.5752V18.0379Z" stroke="#484F76" stroke-width="2.3125"/>
<path d="M22.6458 30.7422V23.4385C22.6458 22.3636 21.7744 21.4922 20.6995 21.4922H16.8839C15.8089 21.4922 14.9375 22.3636 14.9375 23.4385V30.7422" stroke="#484F76" stroke-width="2.3125" stroke-linecap="round" stroke-linejoin="round"/>
</svg>
