<svg width="18" height="19" viewBox="0 0 18 19" fill="none" xmlns="http://www.w3.org/2000/svg">
<g id="ph:key-fill">
<path id="Vector" d="M10.9496 1.92383C10.091 1.9246 9.24476 2.12841 8.47998 2.51863C7.7152 2.90885 7.05355 3.47441 6.54905 4.16913C6.04455 4.86385 5.71151 5.66804 5.57711 6.51604C5.44271 7.36404 5.51078 8.23179 5.77574 9.04847L1.8612 12.9623C1.8107 13.0129 1.77066 13.0729 1.74336 13.1389C1.71605 13.205 1.70203 13.2757 1.70209 13.3472V16.067C1.70209 16.2113 1.7594 16.3497 1.86141 16.4517C1.96343 16.5537 2.10179 16.611 2.24606 16.611H4.9659C5.11017 16.611 5.24853 16.5537 5.35055 16.4517C5.45256 16.3497 5.50987 16.2113 5.50987 16.067V14.9791H6.59781C6.74208 14.9791 6.88044 14.9218 6.98246 14.8198C7.08447 14.7178 7.14178 14.5794 7.14178 14.4351V13.3472H8.22972C8.30118 13.3472 8.37194 13.3332 8.43798 13.3059C8.50401 13.2786 8.56402 13.2386 8.61458 13.1881L9.26462 12.5374C10.0123 12.7801 10.8036 12.8579 11.5842 12.7655C12.3648 12.673 13.1161 12.4125 13.7863 12.0018C14.4566 11.5912 15.0299 11.0401 15.4667 10.3866C15.9036 9.73314 16.1936 8.99274 16.3168 8.21641C16.4401 7.44009 16.3936 6.64627 16.1806 5.88962C15.9677 5.13297 15.5932 4.43147 15.0831 3.83342C14.573 3.23537 13.9393 2.75498 13.2258 2.42532C12.5122 2.09566 11.7356 1.92457 10.9496 1.92383ZM12.3095 7.09154C12.0943 7.09154 11.884 7.02773 11.7051 6.90819C11.5262 6.78864 11.3867 6.61873 11.3044 6.41993C11.222 6.22114 11.2005 6.00239 11.2425 5.79135C11.2844 5.58031 11.3881 5.38646 11.5402 5.23431C11.6924 5.08216 11.8862 4.97854 12.0972 4.93656C12.3083 4.89459 12.527 4.91613 12.7258 4.99847C12.9246 5.08082 13.0945 5.22026 13.2141 5.39917C13.3336 5.57808 13.3974 5.78842 13.3974 6.0036C13.3974 6.29214 13.2828 6.56886 13.0788 6.77289C12.8748 6.97692 12.598 7.09154 12.3095 7.09154Z" fill="#122A3F"/>
</g>
</svg>
