<svg width="37" height="37" viewBox="0 0 37 37" fill="none" xmlns="http://www.w3.org/2000/svg">
<path d="M28.4346 14.4759V17.5905H20.6443C19.7892 17.5905 19.0831 18.2966 19.0831 19.1517V22.4522C19.0831 23.3073 19.7892 24.0134 20.6443 24.0134H28.4346V27.128C28.4346 27.4919 28.1594 27.7672 27.7955 27.7672H9.09232C8.72838 27.7672 8.45315 27.4919 8.45315 27.128V13.6504C8.73452 13.7692 9.04339 13.8367 9.36736 13.8367H9.36753C13.5937 13.833 18.1515 13.8343 22.3123 13.8356C24.2508 13.8362 26.1031 13.8367 27.7955 13.8367C28.1594 13.8367 28.4346 14.1119 28.4346 14.4759ZM20.6439 19.0626H20.6443H28.4346V22.5413H20.6443C20.6078 22.5413 20.5879 22.5293 20.5775 22.519C20.5672 22.5086 20.5552 22.4887 20.5552 22.4522V19.1517C20.5552 19.1152 20.5672 19.0952 20.5776 19.0848C20.5879 19.0744 20.6077 19.0625 20.6439 19.0626ZM20.6443 18.8766H28.4346H20.6443ZM9.36736 9.06403C8.05516 9.06403 6.98102 10.1382 6.98102 11.4504V27.128C6.98102 28.2878 7.93249 29.2393 9.09232 29.2393H27.7955C28.9553 29.2393 29.9068 28.2878 29.9068 27.128V14.4759C29.9068 13.3161 28.9553 12.3646 27.7955 12.3646H26.6062V9.80009C26.6062 9.40935 26.2609 9.06407 25.8702 9.06403H9.36736ZM9.36736 10.5362H25.1341V12.3646H9.36736C8.85105 12.3646 8.45315 11.9667 8.45315 11.4504C8.45315 10.9341 8.85105 10.5362 9.36736 10.5362ZM23.3947 19.5158C22.6844 19.5158 22.1086 20.0916 22.1086 20.8019C22.1086 21.5123 22.6844 22.0881 23.3947 22.0881C24.105 22.0881 24.6809 21.5123 24.6809 20.8019C24.6809 20.0916 24.105 19.5158 23.3947 19.5158Z" fill="#484F76" stroke="#484F76" stroke-width="0.371944"/>
</svg>
