<svg width="24" height="24" viewBox="0 0 24 24" fill="none" xmlns="http://www.w3.org/2000/svg">
<g id="Bank-26 1">
<g id="Group">
<g id="Group_2">
<g id="Group_3">
<g id="Group_4">
<g id="Group_5">
<path id="Vector" d="M5.23214 20.1598H3.00014C2.80814 20.1598 2.64014 19.9918 2.64014 19.7998V13.7038C2.64014 13.5117 2.80814 13.3438 3.00014 13.3438H5.23214C5.42414 13.3438 5.59214 13.5117 5.59214 13.7038V19.7998C5.59214 19.9918 5.42414 20.1598 5.23214 20.1598ZM3.36014 19.4398H4.87214V14.0638H3.36014V19.4398Z" fill="#615959"/>
</g>
<g id="Group_6">
<g id="Group_7">
<path id="Vector_2" d="M12.9121 17.4473H9.48007C9.28807 17.4473 9.12007 17.2793 9.12007 17.0873C9.12007 16.8953 9.28807 16.7273 9.48007 16.7273H12.5521V16.5593C12.5521 16.3433 12.4801 16.1273 12.3121 15.9833C12.1681 15.8153 11.9521 15.7433 11.7361 15.7433H9.09607C8.59207 15.7433 8.13607 15.5273 7.80007 15.1673C7.60807 14.9513 7.32007 14.8313 7.03207 14.8313H5.23207C5.04007 14.8313 4.87207 14.6633 4.87207 14.4713C4.87207 14.2793 5.04007 14.1113 5.23207 14.1113H7.03207C7.53607 14.1113 7.99207 14.3273 8.32807 14.6873C8.52007 14.9033 8.80807 15.0233 9.09607 15.0233H11.7601C12.1681 15.0233 12.5521 15.1913 12.8641 15.4793C13.1521 15.7673 13.3201 16.1753 13.3201 16.5833V17.1113C13.2721 17.2793 13.1041 17.4473 12.9121 17.4473Z" fill="#615959"/>
</g>
<g id="Group_8">
<path id="Vector_3" d="M15.216 19.632H5.42396C5.23196 19.632 5.06396 19.464 5.06396 19.272C5.06396 19.08 5.23196 18.912 5.42396 18.912H15.192C15.624 18.912 16.008 18.672 16.2 18.288L18.096 14.64L18.048 14.616C17.688 14.496 17.304 14.64 17.112 14.952L15.792 17.256C15.72 17.376 15.6 17.448 15.48 17.448H12.912C12.72 17.448 12.552 17.28 12.552 17.088C12.552 16.896 12.72 16.728 12.912 16.728H15.264L16.464 14.616C16.824 13.992 17.592 13.704 18.264 13.968L18.696 14.136C18.792 14.16 18.864 14.256 18.912 14.352C18.96 14.448 18.936 14.544 18.888 14.64L16.824 18.672C16.56 19.248 15.912 19.632 15.216 19.632Z" fill="#615959"/>
</g>
</g>
</g>
<g id="Group_9">
<g id="Group_10">
<path id="Vector_4" d="M10.8004 13.8961C8.08837 13.8961 5.88037 11.6881 5.88037 8.97608C5.88037 6.28808 8.08837 4.08008 10.8004 4.08008C13.5124 4.08008 15.7204 6.28808 15.7204 9.00008C15.7204 11.6881 13.5124 13.8961 10.8004 13.8961ZM10.8004 4.80008C8.49637 4.80008 6.60037 6.67208 6.60037 9.00008C6.60037 11.3041 8.47237 13.2001 10.8004 13.2001C13.1284 13.2001 15.0004 11.3281 15.0004 9.00008C15.0004 6.67208 13.1044 4.80008 10.8004 4.80008Z" fill="#615959"/>
</g>
<g id="Group_11">
<g id="Group_12">
<path id="Vector_5" d="M10.9927 11.376H10.6087C9.86472 11.376 9.24072 10.752 9.24072 10.008C9.24072 9.81602 9.40872 9.64802 9.60072 9.64802C9.79272 9.64802 9.96072 9.81602 9.96072 10.008C9.96072 10.368 10.2487 10.656 10.6087 10.656H10.9927C11.3287 10.656 11.6167 10.368 11.6167 10.032V9.93602C11.6167 9.60002 11.3287 9.31202 10.9927 9.31202H10.5847C9.84072 9.31202 9.24072 8.71202 9.24072 7.96802C9.24072 7.22402 9.84072 6.62402 10.5847 6.62402H11.0647C11.7607 6.62402 12.3367 7.20002 12.3367 7.89602C12.3367 8.08802 12.1687 8.25602 11.9767 8.25602C11.7847 8.25602 11.6167 8.08802 11.6167 7.89602C11.6167 7.58402 11.3767 7.34402 11.0647 7.34402H10.5847C10.2487 7.34402 9.96072 7.63202 9.96072 7.96802C9.96072 8.30402 10.2487 8.59202 10.5847 8.59202H10.9927C11.7367 8.59202 12.3367 9.19202 12.3367 9.93602V10.032C12.3367 10.776 11.7367 11.376 10.9927 11.376Z" fill="#615959"/>
</g>
<g id="Group_13">
<path id="Vector_6" d="M10.8009 7.32033C10.6089 7.32033 10.4409 7.15233 10.4409 6.96033V6.09633C10.4409 5.90433 10.6089 5.73633 10.8009 5.73633C10.9929 5.73633 11.1609 5.90433 11.1609 6.09633V6.96033C11.1609 7.17633 10.9929 7.32033 10.8009 7.32033Z" fill="#615959"/>
</g>
<g id="Group_14">
<path id="Vector_7" d="M10.8009 12.2168C10.6089 12.2168 10.4409 12.0488 10.4409 11.8568V10.9928C10.4409 10.8008 10.6089 10.6328 10.8009 10.6328C10.9929 10.6328 11.1609 10.8008 11.1609 10.9928V11.8568C11.1609 12.0728 10.9929 12.2168 10.8009 12.2168Z" fill="#615959"/>
</g>
</g>
</g>
</g>
</g>
</g>
</g>
</svg>
