<svg width="24" height="24" viewBox="0 0 24 24" fill="none" xmlns="http://www.w3.org/2000/svg">
<g id="Bank-14 1">
<g id="Group">
<g id="Group_2">
<g id="Group_3">
<g id="Group_4">
<path id="Vector" d="M19.7998 9.91184H16.7278C16.5358 9.91184 16.3678 9.74384 16.3678 9.55184C16.3678 9.35984 16.5358 9.19184 16.7278 9.19184H19.4398V4.55984H4.55984V9.19184H7.27184C7.46384 9.19184 7.63184 9.35984 7.63184 9.55184C7.63184 9.74384 7.46384 9.91184 7.27184 9.91184H4.19984C4.00784 9.91184 3.83984 9.74384 3.83984 9.55184V4.19984C3.83984 4.00784 4.00784 3.83984 4.19984 3.83984H19.7998C19.9918 3.83984 20.1598 4.00784 20.1598 4.19984V9.55184C20.1598 9.74384 19.9918 9.91184 19.7998 9.91184Z" fill="#615959"/>
</g>
<g id="Group_5">
<path id="Vector_2" d="M18.5037 6.95926H5.49574C5.30374 6.95926 5.13574 6.79126 5.13574 6.59926C5.13574 6.40726 5.30374 6.23926 5.49574 6.23926H18.5037C18.6957 6.23926 18.8637 6.40726 18.8637 6.59926C18.8637 6.79126 18.6957 6.95926 18.5037 6.95926Z" fill="#615959"/>
</g>
<g id="Group_6">
<g id="Group_7">
<path id="Vector_3" d="M16.7276 20.0642H7.27162C7.07962 20.0642 6.91162 19.8962 6.91162 19.7042V6.60023C6.91162 6.40823 7.07962 6.24023 7.27162 6.24023C7.46362 6.24023 7.63162 6.40823 7.63162 6.60023V19.3442H16.3436V6.60023C16.3436 6.40823 16.5116 6.24023 16.7036 6.24023C16.8956 6.24023 17.0636 6.40823 17.0636 6.60023V19.7042C17.0876 19.8962 16.9196 20.0642 16.7276 20.0642Z" fill="#615959"/>
</g>
<g id="Group_8">
<path id="Vector_4" d="M13.4398 18.2642H10.5598C10.3678 18.2642 10.1998 18.0962 10.1998 17.9042C10.1998 17.2802 9.69584 16.8002 9.09584 16.8002C8.90384 16.8002 8.73584 16.6322 8.73584 16.4402V6.60023C8.73584 6.40823 8.90384 6.24023 9.09584 6.24023C9.28784 6.24023 9.45584 6.40823 9.45584 6.60023V16.1042C10.1758 16.2482 10.7518 16.8242 10.8958 17.5442H13.1518C13.2958 16.8242 13.8718 16.2482 14.5918 16.1042V6.60023C14.5918 6.40823 14.7598 6.24023 14.9518 6.24023C15.1438 6.24023 15.3118 6.40823 15.3118 6.60023V16.4402C15.3118 16.6322 15.1438 16.8002 14.9518 16.8002C14.3278 16.8002 13.8478 17.3042 13.8478 17.9042C13.7998 18.0962 13.6558 18.2642 13.4398 18.2642Z" fill="#615959"/>
</g>
<g id="Group_9">
<g id="Group_10">
<path id="Vector_5" d="M13.248 12.4559C13.056 12.4559 12.888 12.2879 12.888 12.0959V11.2559C12.888 11.1119 12.768 11.0159 12.648 11.0159C12.504 11.0159 12.408 11.1359 12.408 11.2559V11.4959C12.408 12.0239 11.976 12.4559 11.448 12.4559H11.376C10.848 12.4559 10.416 12.0239 10.416 11.4959V10.6559C10.416 10.4639 10.584 10.2959 10.776 10.2959C10.968 10.2959 11.136 10.4639 11.136 10.6559V11.4959C11.136 11.6399 11.256 11.7359 11.376 11.7359H11.448C11.592 11.7359 11.688 11.6159 11.688 11.4959V11.2559C11.688 10.7279 12.12 10.2959 12.648 10.2959C13.176 10.2959 13.608 10.7279 13.608 11.2559V12.0959C13.608 12.2879 13.44 12.4559 13.248 12.4559Z" fill="#615959"/>
</g>
<g id="Group_11">
<path id="Vector_6" d="M13.7518 11.8323H13.2238C13.0318 11.8323 12.8638 11.6643 12.8638 11.4723C12.8638 11.2803 13.0318 11.1123 13.2238 11.1123H13.7518C13.9438 11.1123 14.1118 11.2803 14.1118 11.4723C14.1118 11.6643 13.9678 11.8323 13.7518 11.8323Z" fill="#615959"/>
</g>
<g id="Group_12">
<path id="Vector_7" d="M10.7518 11.8323H10.2238C10.0318 11.8323 9.86377 11.6643 9.86377 11.4723C9.86377 11.2803 10.0318 11.1123 10.2238 11.1123H10.7518C10.9438 11.1123 11.1118 11.2803 11.1118 11.4723C11.1118 11.6643 10.9678 11.8323 10.7518 11.8323Z" fill="#615959"/>
</g>
</g>
<g id="Group_13">
<path id="Vector_8" d="M11.9994 14.6405C10.1994 14.6405 8.71143 13.1765 8.71143 11.3525C8.71143 9.55245 10.1754 8.06445 11.9994 8.06445C13.8234 8.06445 15.2874 9.52845 15.2874 11.3525C15.2874 13.1765 13.7994 14.6405 11.9994 14.6405ZM11.9994 8.80845C10.5834 8.80845 9.43143 9.96045 9.43143 11.3765C9.43143 12.7685 10.5834 13.9205 11.9994 13.9205C13.4154 13.9205 14.5674 12.7685 14.5674 11.3525C14.5674 9.96045 13.4154 8.80845 11.9994 8.80845Z" fill="#615959"/>
</g>
</g>
</g>
</g>
</g>
</g>
</svg>
