<svg width="17" height="17" viewBox="0 0 17 17" fill="none" xmlns="http://www.w3.org/2000/svg">
<path d="M6.90625 2.78906H3.71875C3.47218 2.78906 3.23571 2.88701 3.06136 3.06136C2.88701 3.23571 2.78906 3.47218 2.78906 3.71875V6.90625C2.78906 7.02834 2.81311 7.14923 2.85983 7.26203C2.90655 7.37482 2.97503 7.47731 3.06136 7.56364C3.14769 7.64997 3.25018 7.71845 3.36297 7.76517C3.47577 7.81189 3.59666 7.83594 3.71875 7.83594H6.90625C7.02834 7.83594 7.14923 7.81189 7.26203 7.76517C7.37482 7.71845 7.47731 7.64997 7.56364 7.56364C7.64997 7.47731 7.71845 7.37482 7.76517 7.26203C7.81189 7.14923 7.83594 7.02834 7.83594 6.90625V3.71875C7.83594 3.59666 7.81189 3.47577 7.76517 3.36297C7.71845 3.25018 7.64997 3.14769 7.56364 3.06136C7.47731 2.97503 7.37482 2.90655 7.26203 2.85983C7.14923 2.81311 7.02834 2.78906 6.90625 2.78906ZM7.03906 6.90625C7.03906 6.94147 7.02507 6.97526 7.00016 7.00016C6.97526 7.02507 6.94147 7.03906 6.90625 7.03906H3.71875C3.68353 7.03906 3.64974 7.02507 3.62484 7.00016C3.59993 6.97526 3.58594 6.94147 3.58594 6.90625V3.71875C3.58594 3.68353 3.59993 3.64974 3.62484 3.62484C3.64974 3.59993 3.68353 3.58594 3.71875 3.58594H6.90625C6.94147 3.58594 6.97526 3.59993 7.00016 3.62484C7.02507 3.64974 7.03906 3.68353 7.03906 3.71875V6.90625ZM6.90625 9.16406H3.71875C3.47218 9.16406 3.23571 9.26201 3.06136 9.43636C2.88701 9.61071 2.78906 9.84718 2.78906 10.0938V13.2812C2.78906 13.5278 2.88701 13.7643 3.06136 13.9386C3.23571 14.113 3.47218 14.2109 3.71875 14.2109H6.90625C7.02834 14.2109 7.14923 14.1869 7.26203 14.1402C7.37482 14.0934 7.47731 14.025 7.56364 13.9386C7.64997 13.8523 7.71845 13.7498 7.76517 13.637C7.81189 13.5242 7.83594 13.4033 7.83594 13.2812V10.0938C7.83594 9.97166 7.81189 9.85077 7.76517 9.73797C7.71845 9.62518 7.64997 9.52269 7.56364 9.43636C7.47731 9.35003 7.37482 9.28155 7.26203 9.23483C7.14923 9.18811 7.02834 9.16406 6.90625 9.16406ZM7.03906 13.2812C7.03906 13.3165 7.02507 13.3503 7.00016 13.3752C6.97526 13.4001 6.94147 13.4141 6.90625 13.4141H3.71875C3.68353 13.4141 3.64974 13.4001 3.62484 13.3752C3.59993 13.3503 3.58594 13.3165 3.58594 13.2812V10.0938C3.58594 10.0585 3.59993 10.0247 3.62484 9.99984C3.64974 9.97493 3.68353 9.96094 3.71875 9.96094H6.90625C6.94147 9.96094 6.97526 9.97493 7.00016 9.99984C7.02507 10.0247 7.03906 10.0585 7.03906 10.0938V13.2812ZM13.2812 2.78906H10.0938C9.84718 2.78906 9.61071 2.88701 9.43636 3.06136C9.26201 3.23571 9.16406 3.47218 9.16406 3.71875V6.90625C9.16406 7.02834 9.18811 7.14923 9.23483 7.26203C9.28155 7.37482 9.35003 7.47731 9.43636 7.56364C9.52269 7.64997 9.62518 7.71845 9.73797 7.76517C9.85077 7.81189 9.97166 7.83594 10.0938 7.83594H13.2812C13.4033 7.83594 13.5242 7.81189 13.637 7.76517C13.7498 7.71845 13.8523 7.64997 13.9386 7.56364C14.025 7.47731 14.0934 7.37482 14.1402 7.26203C14.1869 7.14923 14.2109 7.02834 14.2109 6.90625V3.71875C14.2109 3.47218 14.113 3.23571 13.9386 3.06136C13.7643 2.88701 13.5278 2.78906 13.2812 2.78906ZM13.4141 6.90625C13.4141 6.94147 13.4001 6.97526 13.3752 7.00016C13.3503 7.02507 13.3165 7.03906 13.2812 7.03906H10.0938C10.0585 7.03906 10.0247 7.02507 9.99984 7.00016C9.97493 6.97526 9.96094 6.94147 9.96094 6.90625V3.71875C9.96094 3.68353 9.97493 3.64974 9.99984 3.62484C10.0247 3.59993 10.0585 3.58594 10.0938 3.58594H13.2812C13.3165 3.58594 13.3503 3.59993 13.3752 3.62484C13.4001 3.64974 13.4141 3.68353 13.4141 3.71875V6.90625ZM9.16406 11.6875V9.5625C9.16406 9.45683 9.20604 9.35548 9.28076 9.28076C9.35548 9.20604 9.45683 9.16406 9.5625 9.16406C9.66817 9.16406 9.76952 9.20604 9.84424 9.28076C9.91896 9.35548 9.96094 9.45683 9.96094 9.5625V11.6875C9.96094 11.7932 9.91896 11.8945 9.84424 11.9692C9.76952 12.044 9.66817 12.0859 9.5625 12.0859C9.45683 12.0859 9.35548 12.044 9.28076 11.9692C9.20604 11.8945 9.16406 11.7932 9.16406 11.6875ZM14.2109 10.625C14.2109 10.7307 14.169 10.832 14.0942 10.9067C14.0195 10.9815 13.9182 11.0234 13.8125 11.0234H12.0859V13.8125C12.0859 13.9182 12.044 14.0195 11.9692 14.0942C11.8945 14.169 11.7932 14.2109 11.6875 14.2109H9.5625C9.45683 14.2109 9.35548 14.169 9.28076 14.0942C9.20604 14.0195 9.16406 13.9182 9.16406 13.8125C9.16406 13.7068 9.20604 13.6055 9.28076 13.5308C9.35548 13.456 9.45683 13.4141 9.5625 13.4141H11.2891V9.5625C11.2891 9.45683 11.331 9.35548 11.4058 9.28076C11.4805 9.20604 11.5818 9.16406 11.6875 9.16406C11.7932 9.16406 11.8945 9.20604 11.9692 9.28076C12.044 9.35548 12.0859 9.45683 12.0859 9.5625V10.2266H13.8125C13.9182 10.2266 14.0195 10.2685 14.0942 10.3433C14.169 10.418 14.2109 10.5193 14.2109 10.625ZM14.2109 12.75V13.8125C14.2109 13.9182 14.169 14.0195 14.0942 14.0942C14.0195 14.169 13.9182 14.2109 13.8125 14.2109C13.7068 14.2109 13.6055 14.169 13.5308 14.0942C13.456 14.0195 13.4141 13.9182 13.4141 13.8125V12.75C13.4141 12.6443 13.456 12.543 13.5308 12.4683C13.6055 12.3935 13.7068 12.3516 13.8125 12.3516C13.9182 12.3516 14.0195 12.3935 14.0942 12.4683C14.169 12.543 14.2109 12.6443 14.2109 12.75Z" fill="#615959"/>
</svg>
