<svg width="18" height="18" viewBox="0 0 18 18" fill="none" xmlns="http://www.w3.org/2000/svg">
<g id="solar:share-linear">
<g id="Group">
<path id="Vector" d="M6.75 9C6.75 9.49728 6.55246 9.97419 6.20083 10.3258C5.84919 10.6775 5.37228 10.875 4.875 10.875C4.37772 10.875 3.90081 10.6775 3.54917 10.3258C3.19754 9.97419 3 9.49728 3 9C3 8.50272 3.19754 8.02581 3.54917 7.67417C3.90081 7.32254 4.37772 7.125 4.875 7.125C5.37228 7.125 5.84919 7.32254 6.20083 7.67417C6.55246 8.02581 6.75 8.50272 6.75 9Z" stroke="#615959" stroke-width="1.125"/>
<path id="Vector_2" d="M10.5 4.875L6.75 7.5M10.5 13.125L6.75 10.5" stroke="#615959" stroke-width="1.125" stroke-linecap="round"/>
<path id="Vector_3" d="M14.25 13.875C14.25 14.3723 14.0525 14.8492 13.7008 15.2008C13.3492 15.5525 12.8723 15.75 12.375 15.75C11.8777 15.75 11.4008 15.5525 11.0492 15.2008C10.6975 14.8492 10.5 14.3723 10.5 13.875C10.5 13.3777 10.6975 12.9008 11.0492 12.5492C11.4008 12.1975 11.8777 12 12.375 12C12.8723 12 13.3492 12.1975 13.7008 12.5492C14.0525 12.9008 14.25 13.3777 14.25 13.875ZM14.25 4.125C14.25 4.62228 14.0525 5.09919 13.7008 5.45083C13.3492 5.80246 12.8723 6 12.375 6C11.8777 6 11.4008 5.80246 11.0492 5.45083C10.6975 5.09919 10.5 4.62228 10.5 4.125C10.5 3.62772 10.6975 3.15081 11.0492 2.79917C11.4008 2.44754 11.8777 2.25 12.375 2.25C12.8723 2.25 13.3492 2.44754 13.7008 2.79917C14.0525 3.15081 14.25 3.62772 14.25 4.125Z" stroke="#615959" stroke-width="1.125"/>
</g>
</g>
</svg>
