<svg width="19" height="25" viewBox="0 0 19 25" fill="none" xmlns="http://www.w3.org/2000/svg">
<path fill-rule="evenodd" clip-rule="evenodd" d="M11.1757 11.8541C11.3744 11.6554 11.6967 11.6554 11.8954 11.8541L15.9668 15.9256C16.1656 16.1243 16.1656 16.4466 15.9668 16.6453L11.8954 20.7167C11.6967 20.9155 11.3744 20.9155 11.1757 20.7167C10.9769 20.518 10.9769 20.1957 11.1757 19.997L14.3783 16.7944H6.10697C5.82589 16.7944 5.59804 16.5665 5.59804 16.2854C5.59804 16.0044 5.82589 15.7765 6.10697 15.7765H14.3783L11.1757 12.5739C10.9769 12.3751 10.9769 12.0529 11.1757 11.8541Z" fill="#615959"/>
<path fill-rule="evenodd" clip-rule="evenodd" d="M7.82391 3.71156C8.02266 3.91031 8.02266 4.23255 7.82391 4.4313L4.62128 7.63393H12.8926C13.1737 7.63393 13.4015 7.86178 13.4015 8.14286C13.4015 8.42393 13.1737 8.65179 12.8926 8.65179H4.62128L7.82391 11.8544C8.02266 12.0532 8.02266 12.3754 7.82391 12.5742C7.62516 12.7729 7.30292 12.7729 7.10417 12.5742L3.03275 8.50272C2.834 8.30397 2.834 7.98174 3.03275 7.78299L7.10417 3.71156C7.30292 3.51281 7.62516 3.51281 7.82391 3.71156Z" fill="#615959"/>
</svg>
