<svg width="16" height="19" viewBox="0 0 16 19" fill="none" xmlns="http://www.w3.org/2000/svg">
<g id="Group">
<path id="Vector" d="M11.7363 7.75579L12.2088 6.51564C12.3073 6.2597 12.1104 5.96447 11.8348 5.96447H6.0869L4.84675 9.07461L4.59081 6.88964H4.74844C4.84689 6.88964 4.94534 6.81096 4.94534 6.69274V6.10217C4.94534 6.00372 4.86666 5.90527 4.74844 5.90527H3.78386C3.68541 5.90527 3.58696 5.98395 3.58696 6.10217V6.69274C3.58696 6.79119 3.66564 6.88964 3.78386 6.88964H3.96113L3.70519 9.07461L2.48479 6.02349C1.3627 6.27943 0.476937 7.20463 0.358865 8.38559L0.00461562 11.7123C-0.034792 12.0469 0.181744 12.3423 0.516376 12.4013C0.870626 12.48 1.36274 12.5392 1.85485 12.5982L2.16983 17.8933C2.18947 18.346 2.56349 18.6806 3.01619 18.6806H5.57521C6.02792 18.6806 6.38231 18.3264 6.42157 17.8933L6.85463 8.81881C6.85463 8.3661 7.22867 8.01171 7.68137 8.01171H11.3821C11.5395 8.01171 11.6774 7.91326 11.7364 7.75577L11.7363 7.75579Z" fill="#33A3AA"/>
<path id="Vector_2" d="M6.97331 2.69673C6.97331 4.1861 5.76581 5.3936 4.27644 5.3936C2.78707 5.3936 1.57971 4.1861 1.57971 2.69673C1.57971 1.20736 2.78707 0 4.27644 0C5.76581 0 6.97331 1.20736 6.97331 2.69673Z" fill="#33A3AA"/>
<path id="Vector_3" d="M10.6148 9.36903C10.2802 8.89657 9.729 9.1919 9.729 9.54616C9.729 9.90041 9.96518 10.491 10.2211 11.0421C10.6738 11.1012 11.1463 11.1406 11.6581 11.1406C12.1502 11.1406 12.6029 11.1012 13.0359 11.0619C13.3115 10.4713 13.5675 9.84151 13.5675 9.56593C13.5675 9.15249 13.0557 8.95575 12.7407 9.3888C12.3273 9.95958 12.1699 9.13286 11.6974 9.13286C11.225 9.13286 10.9691 9.88091 10.6147 9.36903L10.6148 9.36903Z" fill="#33A3AA"/>
<path id="Vector_4" d="M13.1146 11.6338C12.6619 11.6928 12.1501 11.7322 11.6383 11.7322C11.1265 11.7322 10.6147 11.6928 10.162 11.6338C9.07929 12.559 7.87854 14.0943 7.87854 15.4722C7.87854 17.6572 9.55179 18.7005 11.6383 18.7005C13.7052 18.7005 15.398 17.6769 15.398 15.4722C15.398 14.0944 14.1972 12.559 13.1146 11.6338H13.1146ZM11.9139 16.7911V17.2045C11.9139 17.2439 11.8745 17.2832 11.8352 17.2832H11.4416C11.4021 17.2832 11.3629 17.2438 11.3629 17.2045V16.8109C10.9494 16.7913 10.6346 16.4763 10.5952 16.0628C10.5952 16.0234 10.6346 15.9842 10.6739 15.9842H11.0873C11.1267 15.9842 11.166 16.0038 11.166 16.0432C11.1856 16.1613 11.3038 16.2597 11.4416 16.2597H11.7958C12.0123 16.2597 12.1895 16.1023 12.2092 15.9055C12.2289 15.6693 12.0518 15.4724 11.8156 15.4724H11.5597C11.0675 15.4724 10.6148 15.0984 10.5754 14.6063C10.5164 14.0945 10.9101 13.6417 11.4022 13.563V13.1496C11.4022 13.1102 11.4416 13.0709 11.4809 13.0709H11.8745C11.9139 13.0709 11.9532 13.1103 11.9532 13.1496V13.5432C12.3666 13.5629 12.6815 13.8778 12.7209 14.2913C12.7209 14.3307 12.6815 14.3699 12.6422 14.3699H12.2485C12.2091 14.3699 12.1699 14.3503 12.1699 14.3109C12.1502 14.1928 12.032 14.0944 11.8943 14.0944H11.54C11.3235 14.0944 11.1464 14.2519 11.1266 14.4486C11.107 14.6848 11.2841 14.9013 11.5203 14.9013H11.8155C12.3666 14.9013 12.8193 15.3738 12.7603 15.9446C12.7012 16.3778 12.347 16.7124 11.9139 16.7911H11.9139Z" fill="#33A3AA"/>
</g>
</svg>
