<svg width="26" height="24" viewBox="0 0 26 24" fill="none" xmlns="http://www.w3.org/2000/svg">
<g id="material-symbols:arrow-back-ios-rounded">
<path id="Vector" d="M9.83256 21.1L0.75433 12.7C0.646576 12.6 0.570431 12.4917 0.525893 12.375C0.480636 12.2584 0.458008 12.1334 0.458008 12C0.458008 11.8667 0.480636 11.7417 0.525893 11.625C0.570431 11.5084 0.646576 11.4 0.75433 11.3L9.83256 2.87502C10.084 2.64169 10.3983 2.52502 10.7754 2.52502C11.1525 2.52502 11.4758 2.65002 11.7452 2.90002C12.0146 3.15002 12.1493 3.44169 12.1493 3.77502C12.1493 4.10836 12.0146 4.40002 11.7452 4.65002L3.8253 12L11.7452 19.35C11.9966 19.5834 12.1223 19.8707 12.1223 20.212C12.1223 20.554 11.9876 20.85 11.7182 21.1C11.4489 21.35 11.1346 21.475 10.7754 21.475C10.4162 21.475 10.1019 21.35 9.83256 21.1Z" fill="black"/>
</g>
</svg>
