<svg width="19" height="19" viewBox="0 0 19 19" fill="none" xmlns="http://www.w3.org/2000/svg">
<path d="M10.8154 2.38269H10.3154V2.40763L10.3178 2.43244L10.8154 2.38269ZM10.8154 2.38268H11.3154V2.35774L11.3129 2.33293L10.8154 2.38268ZM10.8747 2.97631L10.3772 3.02606V3.02606L10.8747 2.97631ZM11.251 4.24007L11.4424 3.77813L11.4424 3.77813L11.251 4.24007ZM12.4108 3.61256L12.7274 3.99954L12.4108 3.61256ZM12.8723 3.23496L12.5556 2.84799V2.84799L12.8723 3.23496ZM13.5248 2.85863L13.4999 3.358L13.5248 2.85863ZM14.1367 3.29803L13.7831 3.65158V3.65158L14.1367 3.29803ZM15.0973 4.2586L14.7437 4.61215L14.7437 4.61215L15.0973 4.2586ZM15.5367 4.87047L16.036 4.84556V4.84556L15.5367 4.87047ZM15.1603 5.52301L15.5139 5.87657L15.5315 5.85893L15.5473 5.83963L15.1603 5.52301ZM15.1603 5.52302L14.8068 5.16946L14.7891 5.1871L14.7733 5.2064L15.1603 5.52302ZM14.7825 5.98475L15.1695 6.30136H15.1695L14.7825 5.98475ZM16.0127 7.58018L16.0625 7.08266L16.0127 7.58018ZM16.0127 10.816L15.963 10.3185H15.963L16.0127 10.816ZM15.4191 10.8753L15.4688 11.3729H15.4688L15.4191 10.8753ZM14.1553 11.2517L13.6934 11.0603V11.0603L14.1553 11.2517ZM14.7828 12.4114L15.1698 12.0948L14.7828 12.4114ZM15.1604 12.8728L15.5474 12.5562H15.5474L15.1604 12.8728ZM15.5367 13.5254L15.0373 13.5005V13.5005L15.5367 13.5254ZM15.0973 14.1372L15.4509 14.4908L15.4509 14.4908L15.0973 14.1372ZM14.1367 15.0978L13.7832 14.7443H13.7832L14.1367 15.0978ZM14.1367 15.0978L14.4903 15.4514H14.4903L14.1367 15.0978ZM13.5249 15.5372L13.5498 16.0366H13.5498L13.5249 15.5372ZM12.8723 15.1609L12.5557 15.5479V15.5479L12.8723 15.1609ZM12.4108 14.7832L12.7274 14.3963L12.7274 14.3963L12.4108 14.7832ZM11.2511 14.1557L11.4424 14.6177H11.4424L11.2511 14.1557ZM10.8747 15.4195L10.3772 15.3697V15.3697L10.8747 15.4195ZM10.8154 16.0132L10.3178 15.9635L10.3154 15.9883V16.0132H10.8154ZM10.8154 16.0132L11.3129 16.063L11.3154 16.0382V16.0132H10.8154ZM10.62 16.7408L10.2845 16.37L10.2845 16.37L10.62 16.7408ZM7.77487 16.7408L8.11037 16.37L8.11037 16.37L7.77487 16.7408ZM7.57956 16.0132L8.07708 15.9635L7.57956 16.0132ZM7.52018 15.4195L7.02266 15.4692L7.52018 15.4195ZM7.14386 14.1557L7.3352 13.6938H7.3352L7.14386 14.1557ZM5.98414 14.7832L6.30076 15.1702H6.30076L5.98414 14.7832ZM5.52208 15.1613L5.20546 14.7743L5.20546 14.7743L5.52208 15.1613ZM4.25766 15.0982L3.9041 15.4517H3.9041L4.25766 15.0982ZM3.29709 14.1376L3.65064 13.7841H3.65064L3.29709 14.1376ZM3.23402 12.8732L3.621 13.1898H3.621L3.23402 12.8732ZM3.61189 12.4114L3.22492 12.0947L3.61189 12.4114ZM4.2394 11.2516L4.70134 11.0603L4.70134 11.0603L4.2394 11.2516ZM2.97564 10.8753L3.0254 10.3778H3.0254L2.97564 10.8753ZM2.3822 10.816L2.43195 10.3185H2.43195L2.3822 10.816ZM1.65467 10.6207L1.28394 10.9562H1.28394L1.65467 10.6207ZM1.65467 7.77549L2.02539 8.11099H2.02539L1.65467 7.77549ZM2.3822 7.58018L2.33245 7.08266H2.33245L2.3822 7.58018ZM2.97594 7.52081L3.02569 8.01832L2.97594 7.52081ZM4.2397 7.14448L4.70164 7.33582L4.70164 7.33582L4.2397 7.14448ZM3.61219 5.98477L3.99917 5.66815L3.61219 5.98477ZM3.23408 5.52264L2.8471 5.83925L3.23408 5.52264ZM3.29714 4.25822L2.94359 3.90466L3.29714 4.25822ZM4.25772 3.29764L4.61127 3.6512L4.25772 3.29764ZM4.86958 2.85824L4.84468 2.35886H4.84468L4.86958 2.85824ZM5.52213 3.23458L5.83875 2.8476V2.8476L5.52213 3.23458ZM5.98415 3.6126L5.66753 3.99957L5.98415 3.6126ZM7.14387 4.24011L6.95253 3.77817L6.95253 3.77817L7.14387 4.24011ZM7.52019 2.97635L8.01771 3.0261L7.52019 2.97635ZM7.57956 2.38269L7.08204 2.33294L7.57956 2.38269ZM10.62 1.65515L10.9555 1.28443L10.9555 1.28443L10.62 1.65515ZM11.3154 2.38269V2.38268H10.3154V2.38269H11.3154ZM11.3722 2.92656L11.3129 2.33294L10.3178 2.43244L10.3772 3.02606L11.3722 2.92656ZM11.4424 3.77813C11.5372 3.81738 11.5194 3.8956 11.4789 3.73464C11.4382 3.57297 11.4125 3.32871 11.3722 2.92656L10.3772 3.02606C10.414 3.39441 10.4461 3.72802 10.5091 3.97861C10.5723 4.22991 10.7042 4.55475 11.0597 4.70201L11.4424 3.77813ZM12.0941 3.22558C11.7813 3.48151 11.5904 3.63601 11.4473 3.72157C11.3049 3.80675 11.3476 3.73887 11.4424 3.77813L11.0597 4.70201C11.4152 4.84927 11.7382 4.71281 11.9606 4.57982C12.1823 4.44721 12.4409 4.23395 12.7274 3.99954L12.0941 3.22558ZM12.5556 2.84799L12.0941 3.22558L12.7274 3.99954L13.1889 3.62194L12.5556 2.84799ZM13.5497 2.35925C13.3178 2.34768 13.1307 2.43112 12.9837 2.52278C12.8488 2.60687 12.7023 2.72799 12.5556 2.84799L13.1889 3.62194C13.3562 3.48501 13.4453 3.41343 13.5128 3.37133C13.5682 3.33678 13.5503 3.36052 13.4999 3.358L13.5497 2.35925ZM14.4902 2.94447C14.3562 2.81048 14.2225 2.67539 14.0967 2.57829C13.9596 2.47247 13.7817 2.37081 13.5497 2.35925L13.4999 3.358C13.4495 3.35549 13.4341 3.33009 13.4858 3.36998C13.5488 3.41859 13.6302 3.49868 13.7831 3.65158L14.4902 2.94447ZM15.4508 3.90505L14.4902 2.94447L13.7831 3.65158L14.7437 4.61215L15.4508 3.90505ZM16.036 4.84556C16.0245 4.61363 15.9228 4.43572 15.817 4.29859C15.7199 4.17276 15.5848 4.03904 15.4508 3.90505L14.7437 4.61215C14.8966 4.76505 14.9767 4.84652 15.0253 4.90951C15.0652 4.96121 15.0398 4.94578 15.0373 4.89537L16.036 4.84556ZM15.5473 5.83963C15.6673 5.69297 15.7884 5.54648 15.8725 5.41161C15.9642 5.26462 16.0476 5.07749 16.036 4.84556L15.0373 4.89537C15.0348 4.84496 15.0585 4.82709 15.024 4.88249C14.9819 4.95001 14.9103 5.03904 14.7733 5.20639L15.5473 5.83963ZM15.5139 5.87657L15.5139 5.87657L14.8068 5.16946L14.8068 5.16946L15.5139 5.87657ZM15.1695 6.30136L15.5473 5.83964L14.7733 5.2064L14.3956 5.66813L15.1695 6.30136ZM14.617 6.95312C14.6562 7.04789 14.5883 7.09062 14.6735 6.94818C14.7591 6.8051 14.9136 6.61417 15.1695 6.30136L14.3956 5.66813C14.1611 5.95463 13.9479 6.21318 13.8153 6.43495C13.6823 6.65735 13.5458 6.98028 13.6931 7.3358L14.617 6.95312ZM15.4685 7.02327C15.0664 6.98305 14.8221 6.95729 14.6605 6.91662C14.4995 6.87613 14.5777 6.85835 14.617 6.95312L13.6931 7.3358C13.8404 7.69132 14.1652 7.82318 14.4165 7.8864C14.6671 7.94944 15.0007 7.98147 15.369 8.0183L15.4685 7.02327ZM16.0625 7.08266L15.4685 7.02327L15.369 8.0183L15.963 8.0777L16.0625 7.08266ZM17.111 7.43999C16.9552 7.26781 16.7638 7.19449 16.5951 7.15537C16.4403 7.11946 16.251 7.10152 16.0625 7.08266L15.963 8.0777C16.1781 8.09922 16.2917 8.11155 16.3692 8.12952C16.4328 8.14427 16.4034 8.14842 16.3695 8.111L17.111 7.43999ZM17.3622 8.51885C17.3622 8.32935 17.3632 8.13928 17.3429 7.98164C17.3207 7.80985 17.2668 7.61217 17.111 7.43999L16.3695 8.111C16.3357 8.07357 16.3427 8.04471 16.3511 8.10947C16.3612 8.18838 16.3622 8.30262 16.3622 8.51885H17.3622ZM17.3622 9.87731V8.51885H16.3622V9.87731H17.3622ZM17.111 10.9562C17.2668 10.784 17.3207 10.5863 17.3429 10.4145C17.3632 10.2569 17.3622 10.0668 17.3622 9.87731H16.3622C16.3622 10.0935 16.3612 10.2078 16.3511 10.2867C16.3427 10.3515 16.3357 10.3226 16.3695 10.2852L17.111 10.9562ZM16.0625 11.3135C16.251 11.2946 16.4403 11.2767 16.5951 11.2408C16.7638 11.2017 16.9552 11.1283 17.111 10.9562L16.3695 10.2852C16.4034 10.2477 16.4328 10.2519 16.3692 10.2666C16.2917 10.2846 16.1781 10.2969 15.963 10.3185L16.0625 11.3135ZM15.4688 11.3729L16.0625 11.3135L15.963 10.3185L15.3693 10.3778L15.4688 11.3729ZM14.6173 11.443C14.578 11.5378 14.4998 11.52 14.6608 11.4795C14.8224 11.4388 15.0667 11.4131 15.4688 11.3729L15.3693 10.3778C15.001 10.4147 14.6674 10.4467 14.4168 10.5097C14.1655 10.5729 13.8406 10.7048 13.6934 11.0603L14.6173 11.443ZM15.1698 12.0948C14.9139 11.782 14.7594 11.591 14.6738 11.448C14.5886 11.3055 14.6565 11.3482 14.6173 11.443L13.6934 11.0603C13.5461 11.4158 13.6826 11.7388 13.8156 11.9612C13.9482 12.1829 14.1614 12.4415 14.3959 12.728L15.1698 12.0948ZM15.5474 12.5562L15.1698 12.0948L14.3959 12.728L14.7734 13.1894L15.5474 12.5562ZM16.0361 13.5503C16.0477 13.3184 15.9642 13.1312 15.8726 12.9842C15.7885 12.8494 15.6674 12.7029 15.5474 12.5562L14.7734 13.1894C14.9103 13.3568 14.9819 13.4458 15.024 13.5133C15.0586 13.5687 15.0348 13.5509 15.0373 13.5005L16.0361 13.5503ZM15.4509 14.4908C15.5849 14.3568 15.7199 14.2231 15.817 14.0972C15.9229 13.9601 16.0245 13.7822 16.0361 13.5503L15.0373 13.5005C15.0398 13.4501 15.0652 13.4346 15.0254 13.4863C14.9767 13.5493 14.8967 13.6308 14.7438 13.7837L15.4509 14.4908ZM14.4903 15.4514L15.4509 14.4908L14.7438 13.7837L13.7832 14.7443L14.4903 15.4514ZM14.4903 15.4514L14.4903 15.4514L13.7832 14.7443L13.7832 14.7443L14.4903 15.4514ZM13.5498 16.0366C13.7817 16.025 13.9596 15.9234 14.0967 15.8176C14.2226 15.7204 14.3563 15.5854 14.4903 15.4514L13.7832 14.7443C13.6303 14.8972 13.5488 14.9772 13.4858 15.0259C13.4341 15.0657 13.4496 15.0403 13.5 15.0378L13.5498 16.0366ZM12.5557 15.5479C12.7024 15.6679 12.8489 15.789 12.9837 15.8731C13.1307 15.9647 13.3179 16.0482 13.5498 16.0366L13.5 15.0378C13.5504 15.0353 13.5682 15.0591 13.5128 15.0245C13.4453 14.9824 13.3563 14.9108 13.1889 14.7739L12.5557 15.5479ZM12.0942 15.1702L12.5557 15.5479L13.1889 14.7739L12.7274 14.3963L12.0942 15.1702ZM11.4424 14.6177C11.3476 14.6569 11.3049 14.5891 11.4473 14.6742C11.5904 14.7598 11.7813 14.9143 12.0942 15.1702L12.7274 14.3963C12.4409 14.1618 12.1823 13.9486 11.9606 13.816C11.7382 13.683 11.4152 13.5465 11.0597 13.6938L11.4424 14.6177ZM11.3722 15.4692C11.4125 15.0671 11.4382 14.8228 11.4789 14.6612C11.5194 14.5002 11.5372 14.5784 11.4424 14.6177L11.0597 13.6938C10.7042 13.8411 10.5723 14.1659 10.5091 14.4172C10.4461 14.6678 10.414 15.0014 10.3772 15.3697L11.3722 15.4692ZM11.3129 16.063L11.3722 15.4692L10.3772 15.3697L10.3178 15.9635L11.3129 16.063ZM11.3154 16.0132V16.0132H10.3154V16.0132H11.3154ZM10.9555 17.1115C11.1277 16.9557 11.201 16.7643 11.2402 16.5956C11.2761 16.4408 11.294 16.2515 11.3129 16.063L10.3178 15.9635C10.2963 16.1786 10.284 16.2922 10.266 16.3697C10.2513 16.4333 10.2471 16.4039 10.2845 16.37L10.9555 17.1115ZM9.87668 17.3627C10.0662 17.3627 10.2563 17.3637 10.4139 17.3434C10.5857 17.3212 10.7834 17.2673 10.9555 17.1115L10.2845 16.37C10.322 16.3362 10.3508 16.3432 10.2861 16.3516C10.2072 16.3617 10.0929 16.3627 9.87668 16.3627V17.3627ZM8.51823 17.3627H9.87668V16.3627H8.51823V17.3627ZM7.43937 17.1115C7.61155 17.2673 7.80922 17.3212 7.98102 17.3434C8.13866 17.3637 8.32873 17.3627 8.51823 17.3627V16.3627C8.30199 16.3627 8.18776 16.3617 8.10884 16.3516C8.04408 16.3432 8.07295 16.3362 8.11037 16.37L7.43937 17.1115ZM7.08204 16.063C7.1009 16.2515 7.11884 16.4408 7.15474 16.5956C7.19387 16.7643 7.26719 16.9557 7.43937 17.1115L8.11037 16.37C8.1478 16.4039 8.14365 16.4333 8.1289 16.3697C8.11093 16.2922 8.09859 16.1786 8.07708 15.9635L7.08204 16.063ZM7.02266 15.4692L7.08204 16.063L8.07708 15.9635L8.0177 15.3697L7.02266 15.4692ZM6.95251 14.6176C6.85774 14.5784 6.87552 14.5002 6.91602 14.6611C6.95669 14.8228 6.98245 15.0671 7.02266 15.4692L8.0177 15.3697C7.98087 15.0014 7.94884 14.6677 7.8858 14.4171C7.82258 14.1659 7.69072 13.841 7.3352 13.6938L6.95251 14.6176ZM6.30076 15.1702C6.61356 14.9143 6.8045 14.7597 6.94757 14.6742C7.09002 14.589 7.04729 14.6569 6.95252 14.6176L7.3352 13.6938C6.97968 13.5465 6.65674 13.6829 6.43435 13.8159C6.21258 13.9486 5.95403 14.1618 5.66752 14.3962L6.30076 15.1702ZM5.8387 15.5482L6.30076 15.1702L5.66752 14.3962L5.20546 14.7743L5.8387 15.5482ZM4.84462 16.037C5.07655 16.0485 5.26368 15.9651 5.41067 15.8734C5.54554 15.7893 5.69203 15.6682 5.8387 15.5482L5.20546 14.7743C5.0381 14.9112 4.94907 14.9828 4.88155 15.0249C4.82615 15.0594 4.84402 15.0357 4.89443 15.0382L4.84462 16.037ZM3.9041 15.4517C4.0381 15.5857 4.17181 15.7208 4.29765 15.8179C4.43478 15.9238 4.61269 16.0254 4.84462 16.037L4.89443 15.0382C4.94484 15.0407 4.96026 15.0661 4.90857 15.0262C4.84557 14.9776 4.76411 14.8975 4.61121 14.7446L3.9041 15.4517ZM2.94353 14.4912L3.9041 15.4517L4.61121 14.7446L3.65064 13.7841L2.94353 14.4912ZM2.3583 13.5507C2.36987 13.7826 2.47152 13.9605 2.57735 14.0976C2.67445 14.2235 2.80953 14.3572 2.94353 14.4912L3.65064 13.7841C3.49774 13.6312 3.41765 13.5497 3.36904 13.4867C3.32915 13.435 3.35455 13.4504 3.35706 13.5008L2.3583 13.5507ZM2.84704 12.5566C2.72704 12.7032 2.60593 12.8497 2.52183 12.9846C2.43018 13.1316 2.34674 13.3187 2.3583 13.5507L3.35706 13.5008C3.35958 13.5513 3.33584 13.5691 3.37039 13.5137C3.41249 13.4462 3.48407 13.3572 3.621 13.1898L2.84704 12.5566ZM3.22492 12.0947L2.84704 12.5566L3.621 13.1898L3.99887 12.728L3.22492 12.0947ZM3.77746 11.443C3.73821 11.3482 3.80608 11.3055 3.7209 11.4479C3.63535 11.591 3.48084 11.7819 3.22492 12.0947L3.99887 12.728C4.23329 12.4415 4.44654 12.1829 4.57916 11.9612C4.71215 11.7388 4.84861 11.4158 4.70134 11.0603L3.77746 11.443ZM2.92589 11.3728C3.32805 11.4131 3.57231 11.4388 3.73397 11.4795C3.89493 11.52 3.81672 11.5378 3.77746 11.443L4.70134 11.0603C4.55408 10.7048 4.22924 10.5729 3.97795 10.5097C3.72736 10.4467 3.39375 10.4146 3.0254 10.3778L2.92589 11.3728ZM2.33245 11.3135L2.92589 11.3728L3.0254 10.3778L2.43195 10.3185L2.33245 11.3135ZM1.28394 10.9562C1.43976 11.1283 1.63109 11.2017 1.79983 11.2408C1.95467 11.2767 2.14389 11.2946 2.33245 11.3135L2.43195 10.3185C2.21679 10.2969 2.10322 10.2846 2.02571 10.2666C1.9621 10.2519 1.99152 10.2477 2.02539 10.2852L1.28394 10.9562ZM1.03271 9.8773C1.03271 10.0668 1.03174 10.2569 1.05206 10.4145C1.0742 10.5863 1.12812 10.784 1.28394 10.9562L2.02539 10.2852C2.05926 10.3226 2.0522 10.3515 2.04386 10.2867C2.03369 10.2078 2.03271 10.0935 2.03271 9.8773H1.03271ZM1.03271 8.51885V9.8773H2.03271V8.51885H1.03271ZM1.28394 7.43999C1.12812 7.61217 1.0742 7.80984 1.05206 7.98164C1.03174 8.13928 1.03271 8.32935 1.03271 8.51885H2.03271C2.03271 8.30262 2.03369 8.18838 2.04386 8.10947C2.0522 8.0447 2.05926 8.07357 2.02539 8.11099L1.28394 7.43999ZM2.33245 7.08266C2.14389 7.10152 1.95467 7.11946 1.79983 7.15536C1.63109 7.19449 1.43976 7.26781 1.28394 7.43999L2.02539 8.11099C1.99152 8.14842 1.9621 8.14427 2.02571 8.12952C2.10322 8.11155 2.21679 8.09921 2.43195 8.0777L2.33245 7.08266ZM2.92619 7.02329L2.33245 7.08266L2.43195 8.0777L3.02569 8.01832L2.92619 7.02329ZM3.77776 6.95314C3.81701 6.85837 3.89522 6.87615 3.73427 6.91664C3.5726 6.95731 3.32834 6.98307 2.92619 7.02329L3.02569 8.01832C3.39404 7.98149 3.72765 7.94946 3.97824 7.88642C4.22954 7.8232 4.55438 7.69134 4.70164 7.33582L3.77776 6.95314ZM3.22521 6.30138C3.48114 6.61419 3.63564 6.80512 3.7212 6.9482C3.80638 7.09064 3.7385 7.04791 3.77776 6.95314L4.70164 7.33582C4.8489 6.9803 4.71244 6.65737 4.57945 6.43497C4.44684 6.2132 4.23358 5.95466 3.99917 5.66815L3.22521 6.30138ZM2.8471 5.83925L3.22521 6.30138L3.99917 5.66815L3.62106 5.20602L2.8471 5.83925ZM2.35836 4.84518C2.34679 5.07711 2.43024 5.26424 2.52189 5.41123C2.60599 5.5461 2.7271 5.69259 2.8471 5.83925L3.62106 5.20602C3.48413 5.03866 3.41255 4.94963 3.37044 4.88211C3.33589 4.82671 3.35964 4.84458 3.35712 4.89499L2.35836 4.84518ZM2.94359 3.90466C2.80959 4.03866 2.67451 4.17237 2.57741 4.29821C2.47158 4.43534 2.36993 4.61325 2.35836 4.84518L3.35712 4.89499C3.35461 4.9454 3.32921 4.96082 3.3691 4.90913C3.41771 4.84613 3.4978 4.76467 3.6507 4.61177L2.94359 3.90466ZM3.90416 2.94409L2.94359 3.90466L3.6507 4.61177L4.61127 3.6512L3.90416 2.94409ZM4.84468 2.35886C4.61275 2.37043 4.43484 2.47208 4.29771 2.57791C4.17187 2.67501 4.03816 2.81009 3.90416 2.94409L4.61127 3.6512C4.76417 3.4983 4.84563 3.41821 4.90863 3.3696C4.96032 3.32971 4.9449 3.35511 4.89449 3.35762L4.84468 2.35886ZM5.83875 2.8476C5.69209 2.7276 5.5456 2.60649 5.41073 2.52239C5.26374 2.43074 5.0766 2.3473 4.84468 2.35886L4.89449 3.35762C4.84408 3.36014 4.82621 3.3364 4.88161 3.37094C4.94913 3.41305 5.03816 3.48463 5.20552 3.62156L5.83875 2.8476ZM6.30077 3.22562L5.83875 2.8476L5.20552 3.62156L5.66753 3.99957L6.30077 3.22562ZM6.95253 3.77817C7.0473 3.73891 7.09003 3.80679 6.94758 3.72161C6.80451 3.63605 6.61357 3.48155 6.30077 3.22562L5.66753 3.99957C5.95404 4.23399 6.21259 4.44724 6.43436 4.57986C6.65675 4.71285 6.97969 4.84931 7.33521 4.70205L6.95253 3.77817ZM7.02267 2.9266C6.98246 3.32875 6.9567 3.57301 6.91603 3.73468C6.87553 3.89563 6.85775 3.81742 6.95253 3.77817L7.33521 4.70205C7.69073 4.55478 7.82259 4.22994 7.88581 3.97865C7.94885 3.72806 7.98088 3.39445 8.01771 3.0261L7.02267 2.9266ZM7.08204 2.33294L7.02267 2.9266L8.01771 3.0261L8.07708 2.43244L7.08204 2.33294ZM7.43937 1.28443C7.26719 1.44025 7.19387 1.63158 7.15474 1.80032C7.11884 1.95515 7.1009 2.14438 7.08204 2.33294L8.07708 2.43244C8.09859 2.21728 8.11093 2.10371 8.1289 2.0262C8.14365 1.96259 8.1478 1.99201 8.11037 2.02588L7.43937 1.28443ZM8.51823 1.0332C8.32873 1.0332 8.13866 1.03223 7.98102 1.05255C7.80922 1.07469 7.61155 1.12861 7.43937 1.28443L8.11037 2.02588C8.07295 2.05975 8.04408 2.05269 8.10884 2.04435C8.18776 2.03417 8.30199 2.0332 8.51823 2.0332V1.0332ZM9.87668 1.0332H8.51823V2.0332H9.87668V1.0332ZM10.9555 1.28443C10.7834 1.12861 10.5857 1.07469 10.4139 1.05255C10.2563 1.03223 10.0662 1.0332 9.87668 1.0332V2.0332C10.0929 2.0332 10.2072 2.03417 10.2861 2.04435C10.3508 2.05269 10.322 2.05975 10.2845 2.02588L10.9555 1.28443ZM11.3129 2.33293C11.294 2.14437 11.2761 1.95515 11.2402 1.80031C11.201 1.63158 11.1277 1.44025 10.9555 1.28443L10.2845 2.02588C10.2471 1.99201 10.2513 1.96259 10.266 2.02619C10.284 2.10371 10.2963 2.21727 10.3178 2.43243L11.3129 2.33293ZM11.7632 9.19784C11.7632 10.6149 10.6145 11.7637 9.19735 11.7637V12.7637C11.1667 12.7637 12.7632 11.1672 12.7632 9.19784H11.7632ZM9.19735 6.63194C10.6145 6.63194 11.7632 7.78073 11.7632 9.19784H12.7632C12.7632 7.22844 11.1667 5.63194 9.19735 5.63194V6.63194ZM6.63145 9.19784C6.63145 7.78073 7.78024 6.63194 9.19735 6.63194V5.63194C7.22796 5.63194 5.63145 7.22844 5.63145 9.19784H6.63145ZM9.19735 11.7637C7.78024 11.7637 6.63145 10.6149 6.63145 9.19784H5.63145C5.63145 11.1672 7.22796 12.7637 9.19735 12.7637V11.7637Z" fill="#252F69"/>
</svg>
