<svg width="19" height="19" viewBox="0 0 19 19" fill="none" xmlns="http://www.w3.org/2000/svg">
<g id="Setting_line_light">
<path id="Subtract" d="M10.8154 2.38269H10.3154V2.40763L10.3178 2.43244L10.8154 2.38269ZM10.8154 2.38268H11.3154V2.35774L11.3129 2.33293L10.8154 2.38268ZM10.8747 2.97631H11.3747V2.95137L11.3722 2.92656L10.8747 2.97631ZM10.8747 2.97632H10.3747V3.00126L10.3772 3.02607L10.8747 2.97632ZM11.251 4.24007L11.4424 3.77813L11.251 4.24007ZM12.4108 3.61256L12.7274 3.99954V3.99954L12.4108 3.61256ZM12.8723 3.23496L12.5723 2.83496L12.5638 2.8413L12.5556 2.84799L12.8723 3.23496ZM12.8723 3.23496L13.1723 3.63496L13.1807 3.62862L13.1889 3.62194L12.8723 3.23496ZM13.5248 2.85863L13.4999 3.358L13.5248 2.85863ZM14.1367 3.29803L13.7831 3.65158V3.65158L14.1367 3.29803ZM15.0973 4.2586L14.7437 4.61215L14.7437 4.61215L15.0973 4.2586ZM15.5367 4.87047L16.036 4.84556V4.84556L15.5367 4.87047ZM15.1603 5.52301L15.5139 5.87657L15.5315 5.85893L15.5473 5.83963L15.1603 5.52301ZM15.1603 5.52302L14.8068 5.16946L14.7891 5.1871L14.7733 5.2064L15.1603 5.52302ZM14.7825 5.98475L15.1695 6.30136H15.1695L14.7825 5.98475ZM16.0127 7.58018L16.0625 7.08266L16.0127 7.58018ZM16.0127 10.816L15.963 10.3185L16.0127 10.816ZM15.4188 10.8754L15.369 10.3779H15.369L15.4188 10.8754ZM14.155 11.2517L13.6931 11.0604V11.0604L14.155 11.2517ZM14.7825 12.4114L15.1695 12.0948L14.7825 12.4114ZM15.1604 12.8733L15.5474 12.5567H15.5474L15.1604 12.8733ZM15.5367 13.5258L16.0361 13.5507V13.5507L15.5367 13.5258ZM13.5249 15.5377L13.5498 16.037H13.5498L13.5249 15.5377ZM12.8724 15.1613L12.5557 15.5483V15.5483L12.8724 15.1613ZM12.4107 14.7836L12.0941 15.1706L12.4107 14.7836ZM11.251 14.1561L11.4424 14.6181H11.4424L11.251 14.1561ZM10.8747 15.4199L10.3772 15.3701V15.3701L10.8747 15.4199ZM10.8154 16.0132L10.3178 15.9635L10.3154 15.9883V16.0132H10.8154ZM10.8154 16.0132L11.3129 16.063L11.3154 16.0382V16.0132H10.8154ZM10.62 16.7408L10.2845 16.37L10.2845 16.37L10.62 16.7408ZM7.77487 16.7408L8.11037 16.37L8.11037 16.37L7.77487 16.7408ZM7.57956 16.0132L8.07708 15.9635L7.57956 16.0132ZM7.52018 15.4195L7.02266 15.4692L7.52018 15.4195ZM7.14386 14.1557L7.3352 13.6938H7.3352L7.14386 14.1557ZM5.98414 14.7832L6.30076 15.1702H6.30076L5.98414 14.7832ZM5.52208 15.1613L5.20546 14.7743L5.20546 14.7743L5.52208 15.1613ZM4.25766 15.0982L3.9041 15.4517H3.9041L4.25766 15.0982ZM3.29709 14.1376L3.65064 13.7841H3.65064L3.29709 14.1376ZM3.23402 12.8732L3.621 13.1898H3.621L3.23402 12.8732ZM3.61189 12.4114L3.22492 12.0947L3.61189 12.4114ZM4.2394 11.2516L4.70134 11.0603L4.70134 11.0603L4.2394 11.2516ZM2.97564 10.8753L3.0254 10.3778H3.0254L2.97564 10.8753ZM2.3822 10.816L2.43195 10.3185H2.43195L2.3822 10.816ZM1.65467 10.6207L1.28394 10.9562H1.28394L1.65467 10.6207ZM1.65467 7.77549L2.02539 8.11099H2.02539L1.65467 7.77549ZM2.3822 7.58018L2.43195 8.0777H2.43195L2.3822 7.58018ZM2.97562 7.52084L2.92587 7.02332H2.92587L2.97562 7.52084ZM4.23938 7.14451L4.70132 7.33585L4.70132 7.33585L4.23938 7.14451ZM3.61187 5.9848L3.22489 6.30142H3.22489L3.61187 5.9848ZM3.23412 5.52309L3.62109 5.20648L3.62109 5.20647L3.23412 5.52309ZM3.29718 4.25867L3.65073 4.61223L3.65073 4.61223L3.29718 4.25867ZM4.25775 3.2981L3.9042 2.94455V2.94455L4.25775 3.2981ZM4.86962 2.8587L4.89452 3.35808H4.89452L4.86962 2.8587ZM5.52217 3.23504L5.83879 2.84806L5.83879 2.84806L5.52217 3.23504ZM5.98411 3.61299L5.66749 3.99997L5.98411 3.61299ZM7.52015 2.97675L7.02263 2.92699V2.92699L7.52015 2.97675ZM7.57956 2.38269L8.07708 2.43244V2.43244L7.57956 2.38269ZM10.62 1.65515L10.2845 2.02588V2.02588L10.62 1.65515ZM11.3154 2.38269V2.38268H10.3154V2.38269H11.3154ZM11.3722 2.92656L11.3129 2.33294L10.3178 2.43244L10.3772 3.02606L11.3722 2.92656ZM11.3747 2.97632V2.97631H10.3747V2.97632H11.3747ZM11.4424 3.77813C11.5372 3.81738 11.5194 3.8956 11.4789 3.73464C11.4382 3.57298 11.4125 3.32872 11.3722 2.92657L10.3772 3.02607C10.414 3.39442 10.4461 3.72803 10.5091 3.97861C10.5723 4.22991 10.7042 4.55475 11.0597 4.70201L11.4424 3.77813ZM12.0941 3.22558C11.7813 3.48151 11.5904 3.63601 11.4473 3.72157C11.3049 3.80675 11.3476 3.73887 11.4424 3.77813L11.0597 4.70201C11.4152 4.84927 11.7382 4.71281 11.9606 4.57982C12.1823 4.44721 12.4409 4.23395 12.7274 3.99954L12.0941 3.22558ZM12.5556 2.84799L12.0941 3.22558L12.7274 3.99954L13.1889 3.62194L12.5556 2.84799ZM12.5723 2.83496L12.5723 2.83496L13.1723 3.63496L13.1723 3.63496L12.5723 2.83496ZM13.5497 2.35925C13.3178 2.34768 13.1307 2.43112 12.9837 2.52277C12.8488 2.60687 12.7023 2.72798 12.5556 2.84798L13.1889 3.62194C13.3562 3.48501 13.4453 3.41343 13.5128 3.37133C13.5682 3.33678 13.5503 3.36052 13.4999 3.358L13.5497 2.35925ZM14.4902 2.94447C14.3562 2.81048 14.2225 2.67539 14.0967 2.57829C13.9596 2.47247 13.7817 2.37081 13.5497 2.35925L13.4999 3.358C13.4495 3.35549 13.4341 3.33009 13.4858 3.36998C13.5488 3.41859 13.6302 3.49868 13.7831 3.65158L14.4902 2.94447ZM15.4508 3.90505L14.4902 2.94447L13.7831 3.65158L14.7437 4.61215L15.4508 3.90505ZM16.036 4.84556C16.0245 4.61363 15.9228 4.43572 15.817 4.29859C15.7199 4.17276 15.5848 4.03904 15.4508 3.90505L14.7437 4.61215C14.8966 4.76505 14.9767 4.84652 15.0253 4.90951C15.0652 4.96121 15.0398 4.94578 15.0373 4.89537L16.036 4.84556ZM15.5473 5.83963C15.6673 5.69297 15.7884 5.54648 15.8725 5.41161C15.9642 5.26462 16.0476 5.07749 16.036 4.84556L15.0373 4.89537C15.0348 4.84496 15.0585 4.82709 15.024 4.88249C14.9819 4.95001 14.9103 5.03904 14.7733 5.20639L15.5473 5.83963ZM15.5139 5.87657L15.5139 5.87657L14.8068 5.16946L14.8068 5.16946L15.5139 5.87657ZM15.1695 6.30136L15.5473 5.83964L14.7733 5.2064L14.3956 5.66813L15.1695 6.30136ZM14.617 6.95312C14.6562 7.04789 14.5883 7.09062 14.6735 6.94818C14.7591 6.8051 14.9136 6.61417 15.1695 6.30136L14.3956 5.66813C14.1611 5.95463 13.9479 6.21318 13.8153 6.43495C13.6823 6.65735 13.5458 6.98028 13.6931 7.3358L14.617 6.95312ZM15.4685 7.02327C15.0664 6.98305 14.8221 6.95729 14.6605 6.91662C14.4995 6.87613 14.5777 6.85835 14.617 6.95312L13.6931 7.3358C13.8404 7.69132 14.1652 7.82318 14.4165 7.8864C14.6671 7.94944 15.0007 7.98147 15.369 8.0183L15.4685 7.02327ZM16.0625 7.08266L15.4685 7.02327L15.369 8.0183L15.963 8.0777L16.0625 7.08266ZM17.111 7.43999C16.9552 7.26781 16.7638 7.19449 16.5951 7.15537C16.4403 7.11946 16.251 7.10152 16.0625 7.08266L15.963 8.0777C16.1781 8.09922 16.2917 8.11155 16.3692 8.12952C16.4328 8.14427 16.4034 8.14842 16.3695 8.111L17.111 7.43999ZM17.3622 8.51885C17.3622 8.32935 17.3632 8.13928 17.3429 7.98164C17.3207 7.80985 17.2668 7.61217 17.111 7.43999L16.3695 8.111C16.3357 8.07357 16.3427 8.04471 16.3511 8.10947C16.3612 8.18838 16.3622 8.30262 16.3622 8.51885H17.3622ZM17.3622 9.87731V8.51885H16.3622V9.87731H17.3622ZM17.111 10.9562C17.2668 10.784 17.3207 10.5863 17.3429 10.4145C17.3632 10.2569 17.3622 10.0668 17.3622 9.87731H16.3622C16.3622 10.0935 16.3612 10.2078 16.3511 10.2867C16.3427 10.3515 16.3357 10.3226 16.3695 10.2852L17.111 10.9562ZM16.0625 11.3135C16.251 11.2946 16.4403 11.2767 16.5951 11.2408C16.7638 11.2017 16.9552 11.1283 17.111 10.9562L16.3695 10.2852C16.4034 10.2477 16.4328 10.2519 16.3692 10.2666C16.2917 10.2846 16.1781 10.2969 15.963 10.3185L16.0625 11.3135ZM15.4685 11.3729L16.0625 11.3135L15.963 10.3185L15.369 10.3779L15.4685 11.3729ZM14.6169 11.443C14.5777 11.5378 14.4995 11.52 14.6604 11.4795C14.8221 11.4389 15.0664 11.4131 15.4685 11.3729L15.369 10.3779C15.0007 10.4147 14.6671 10.4467 14.4165 10.5098C14.1652 10.573 13.8403 10.7048 13.6931 11.0604L14.6169 11.443ZM15.1695 12.0948C14.9136 11.782 14.7591 11.5911 14.6735 11.448C14.5883 11.3055 14.6562 11.3483 14.6169 11.443L13.6931 11.0604C13.5458 11.4159 13.6823 11.7388 13.8153 11.9612C13.9479 12.183 14.1611 12.4415 14.3955 12.728L15.1695 12.0948ZM15.5474 12.5567L15.1695 12.0948L14.3955 12.728L14.7734 13.1899L15.5474 12.5567ZM16.0361 13.5507C16.0477 13.3188 15.9642 13.1317 15.8726 12.9847C15.7885 12.8498 15.6674 12.7033 15.5474 12.5567L14.7734 13.1899C14.9104 13.3573 14.9819 13.4463 15.024 13.5138C15.0586 13.5692 15.0349 13.5513 15.0374 13.5009L16.0361 13.5507ZM15.4509 14.4913C15.5849 14.3573 15.72 14.2235 15.8171 14.0977C15.9229 13.9606 16.0246 13.7827 16.0361 13.5507L15.0374 13.5009C15.0399 13.4505 15.0653 13.4351 15.0254 13.4868C14.9768 13.5498 14.8967 13.6312 14.7438 13.7841L15.4509 14.4913ZM14.4903 15.4518L15.4509 14.4913L14.7438 13.7841L13.7832 14.7447L14.4903 15.4518ZM13.5498 16.037C13.7817 16.0255 13.9596 15.9238 14.0968 15.818C14.2226 15.7209 14.3563 15.5858 14.4903 15.4518L13.7832 14.7447C13.6303 14.8976 13.5489 14.9777 13.4859 15.0263C13.4342 15.0662 13.4496 15.0408 13.5 15.0383L13.5498 16.037ZM12.5557 15.5483C12.7024 15.6683 12.8489 15.7894 12.9838 15.8735C13.1307 15.9652 13.3179 16.0486 13.5498 16.037L13.5 15.0383C13.5504 15.0358 13.5683 15.0595 13.5129 15.025C13.4454 14.9829 13.3563 14.9113 13.189 14.7744L12.5557 15.5483ZM12.0941 15.1706L12.5557 15.5483L13.189 14.7744L12.7273 14.3967L12.0941 15.1706ZM11.4424 14.6181C11.3476 14.6573 11.3049 14.5894 11.4473 14.6746C11.5904 14.7602 11.7813 14.9147 12.0941 15.1706L12.7273 14.3967C12.4408 14.1622 12.1823 13.949 11.9605 13.8164C11.7381 13.6834 11.4152 13.5469 11.0597 13.6942L11.4424 14.6181ZM11.3722 15.4696C11.4124 15.0675 11.4382 14.8232 11.4789 14.6616C11.5193 14.5006 11.5371 14.5788 11.4424 14.6181L11.0597 13.6942C10.7041 13.8414 10.5723 14.1663 10.5091 14.4176C10.446 14.6682 10.414 15.0018 10.3772 15.3701L11.3722 15.4696ZM11.3129 16.063L11.3722 15.4696L10.3772 15.3701L10.3178 15.9635L11.3129 16.063ZM11.3154 16.0132V16.0132H10.3154V16.0132H11.3154ZM10.9555 17.1115C11.1277 16.9557 11.201 16.7643 11.2402 16.5956C11.2761 16.4408 11.294 16.2515 11.3129 16.063L10.3178 15.9635C10.2963 16.1786 10.284 16.2922 10.266 16.3697C10.2513 16.4333 10.2471 16.4039 10.2845 16.37L10.9555 17.1115ZM9.87668 17.3627C10.0662 17.3627 10.2563 17.3637 10.4139 17.3434C10.5857 17.3212 10.7834 17.2673 10.9555 17.1115L10.2845 16.37C10.322 16.3362 10.3508 16.3432 10.2861 16.3516C10.2072 16.3617 10.0929 16.3627 9.87668 16.3627V17.3627ZM8.51823 17.3627H9.87668V16.3627H8.51823V17.3627ZM7.43937 17.1115C7.61155 17.2673 7.80922 17.3212 7.98102 17.3434C8.13866 17.3637 8.32873 17.3627 8.51823 17.3627V16.3627C8.30199 16.3627 8.18776 16.3617 8.10884 16.3516C8.04408 16.3432 8.07295 16.3362 8.11037 16.37L7.43937 17.1115ZM7.08204 16.063C7.1009 16.2515 7.11884 16.4408 7.15474 16.5956C7.19387 16.7643 7.26719 16.9557 7.43937 17.1115L8.11037 16.37C8.1478 16.4039 8.14365 16.4333 8.1289 16.3697C8.11093 16.2922 8.09859 16.1786 8.07708 15.9635L7.08204 16.063ZM7.02266 15.4692L7.08204 16.063L8.07708 15.9635L8.0177 15.3697L7.02266 15.4692ZM6.95251 14.6176C6.85774 14.5784 6.87552 14.5002 6.91602 14.6611C6.95669 14.8228 6.98245 15.0671 7.02266 15.4692L8.0177 15.3697C7.98087 15.0014 7.94884 14.6677 7.8858 14.4171C7.82258 14.1659 7.69072 13.841 7.3352 13.6938L6.95251 14.6176ZM6.30076 15.1702C6.61356 14.9143 6.8045 14.7597 6.94757 14.6742C7.09002 14.589 7.04729 14.6569 6.95252 14.6176L7.3352 13.6938C6.97968 13.5465 6.65674 13.6829 6.43435 13.8159C6.21258 13.9486 5.95403 14.1618 5.66752 14.3962L6.30076 15.1702ZM5.8387 15.5482L6.30076 15.1702L5.66752 14.3962L5.20546 14.7743L5.8387 15.5482ZM4.84462 16.037C5.07655 16.0485 5.26368 15.9651 5.41067 15.8734C5.54554 15.7893 5.69203 15.6682 5.8387 15.5482L5.20546 14.7743C5.0381 14.9112 4.94907 14.9828 4.88155 15.0249C4.82615 15.0594 4.84402 15.0357 4.89443 15.0382L4.84462 16.037ZM3.9041 15.4517C4.0381 15.5857 4.17181 15.7208 4.29765 15.8179C4.43478 15.9238 4.61269 16.0254 4.84462 16.037L4.89443 15.0382C4.94484 15.0407 4.96026 15.0661 4.90857 15.0262C4.84557 14.9776 4.76411 14.8975 4.61121 14.7446L3.9041 15.4517ZM2.94353 14.4912L3.9041 15.4517L4.61121 14.7446L3.65064 13.7841L2.94353 14.4912ZM2.3583 13.5507C2.36987 13.7826 2.47152 13.9605 2.57735 14.0976C2.67445 14.2235 2.80953 14.3572 2.94353 14.4912L3.65064 13.7841C3.49774 13.6312 3.41765 13.5497 3.36904 13.4867C3.32915 13.435 3.35455 13.4504 3.35706 13.5008L2.3583 13.5507ZM2.84704 12.5566C2.72704 12.7032 2.60593 12.8497 2.52183 12.9846C2.43018 13.1316 2.34674 13.3187 2.3583 13.5507L3.35706 13.5008C3.35958 13.5513 3.33584 13.5691 3.37039 13.5137C3.41249 13.4462 3.48407 13.3572 3.621 13.1898L2.84704 12.5566ZM3.22492 12.0947L2.84704 12.5566L3.621 13.1898L3.99887 12.728L3.22492 12.0947ZM3.77746 11.443C3.73821 11.3482 3.80608 11.3055 3.7209 11.4479C3.63535 11.591 3.48084 11.7819 3.22492 12.0947L3.99887 12.728C4.23329 12.4415 4.44654 12.1829 4.57916 11.9612C4.71215 11.7388 4.84861 11.4158 4.70134 11.0603L3.77746 11.443ZM2.92589 11.3728C3.32805 11.4131 3.57231 11.4388 3.73397 11.4795C3.89493 11.52 3.81672 11.5378 3.77746 11.443L4.70134 11.0603C4.55408 10.7048 4.22924 10.5729 3.97795 10.5097C3.72736 10.4467 3.39375 10.4146 3.0254 10.3778L2.92589 11.3728ZM2.33245 11.3135L2.92589 11.3728L3.0254 10.3778L2.43195 10.3185L2.33245 11.3135ZM1.28394 10.9562C1.43976 11.1283 1.63109 11.2017 1.79983 11.2408C1.95467 11.2767 2.14389 11.2946 2.33245 11.3135L2.43195 10.3185C2.21679 10.2969 2.10322 10.2846 2.02571 10.2666C1.9621 10.2519 1.99152 10.2477 2.02539 10.2852L1.28394 10.9562ZM1.03271 9.8773C1.03271 10.0668 1.03174 10.2569 1.05206 10.4145C1.0742 10.5863 1.12812 10.784 1.28394 10.9562L2.02539 10.2852C2.05926 10.3226 2.0522 10.3515 2.04386 10.2867C2.03369 10.2078 2.03271 10.0935 2.03271 9.8773H1.03271ZM1.03271 8.51885V9.8773H2.03271V8.51885H1.03271ZM1.28394 7.43999C1.12812 7.61217 1.0742 7.80984 1.05206 7.98164C1.03174 8.13928 1.03271 8.32935 1.03271 8.51885H2.03271C2.03271 8.30262 2.03369 8.18838 2.04386 8.10947C2.0522 8.0447 2.05926 8.07357 2.02539 8.11099L1.28394 7.43999ZM2.33245 7.08266C2.14389 7.10152 1.95467 7.11946 1.79983 7.15536C1.63109 7.19449 1.43976 7.26781 1.28394 7.43999L2.02539 8.11099C1.99152 8.14842 1.9621 8.14427 2.02571 8.12952C2.10322 8.11155 2.21679 8.09921 2.43195 8.0777L2.33245 7.08266ZM2.92587 7.02332L2.33245 7.08266L2.43195 8.0777L3.02538 8.01836L2.92587 7.02332ZM3.77744 6.95317C3.8167 6.8584 3.89491 6.87618 3.73395 6.91667C3.57229 6.95734 3.32803 6.9831 2.92587 7.02332L3.02538 8.01836C3.39372 7.98152 3.72734 7.94949 3.97793 7.88645C4.22922 7.82323 4.55406 7.69138 4.70132 7.33585L3.77744 6.95317ZM3.22489 6.30142C3.48082 6.61422 3.63533 6.80515 3.72088 6.94823C3.80606 7.09067 3.73819 7.04794 3.77744 6.95317L4.70132 7.33585C4.84859 6.98033 4.71213 6.6574 4.57914 6.435C4.44652 6.21323 4.23327 5.95469 3.99885 5.66818L3.22489 6.30142ZM2.84714 5.83971L3.22489 6.30142L3.99885 5.66818L3.62109 5.20648L2.84714 5.83971ZM2.3584 4.84563C2.34683 5.07756 2.43028 5.2647 2.52193 5.41168C2.60603 5.54656 2.72714 5.69305 2.84714 5.83971L3.62109 5.20647C3.48416 5.03912 3.41258 4.95009 3.37048 4.88257C3.33593 4.82716 3.35967 4.84504 3.35716 4.89545L2.3584 4.84563ZM2.94363 3.90512C2.80963 4.03912 2.67454 4.17283 2.57744 4.29867C2.47162 4.4358 2.36996 4.61371 2.3584 4.84563L3.35716 4.89545C3.35464 4.94586 3.32924 4.96128 3.36913 4.90959C3.41774 4.84659 3.49783 4.76513 3.65073 4.61223L2.94363 3.90512ZM3.9042 2.94455L2.94363 3.90512L3.65073 4.61223L4.6113 3.65166L3.9042 2.94455ZM4.84471 2.35932C4.61278 2.37089 4.43488 2.47254 4.29774 2.57836C4.17191 2.67547 4.03819 2.81055 3.9042 2.94455L4.6113 3.65166C4.76421 3.49875 4.84567 3.41867 4.90866 3.37006C4.96036 3.33016 4.94493 3.35557 4.89452 3.35808L4.84471 2.35932ZM5.83879 2.84806C5.69212 2.72806 5.54563 2.60695 5.41076 2.52285C5.26378 2.4312 5.07664 2.34775 4.84471 2.35932L4.89452 3.35808C4.84411 3.36059 4.82624 3.33685 4.88165 3.3714C4.94917 3.4135 5.03819 3.48509 5.20555 3.62202L5.83879 2.84806ZM6.30073 3.22602L5.83879 2.84806L5.20555 3.62202L5.66749 3.99997L6.30073 3.22602ZM6.95249 3.77856C7.04726 3.73931 7.08999 3.80718 6.94754 3.722C6.80447 3.63645 6.61353 3.48194 6.30073 3.22602L5.66749 3.99997C5.954 4.23439 6.21255 4.44764 6.43432 4.58026C6.65671 4.71325 6.97965 4.84971 7.33517 4.70244L6.95249 3.77856ZM7.02263 2.92699C6.98242 3.32915 6.95666 3.57341 6.91599 3.73507C6.87549 3.89603 6.85771 3.81782 6.95249 3.77856L7.33517 4.70244C7.69069 4.55518 7.82255 4.23034 7.88577 3.97905C7.94881 3.72846 7.98084 3.39485 8.01767 3.0265L7.02263 2.92699ZM7.08204 2.33294L7.02263 2.92699L8.01767 3.0265L8.07708 2.43244L7.08204 2.33294ZM7.43937 1.28443C7.26719 1.44025 7.19387 1.63158 7.15474 1.80032C7.11884 1.95516 7.1009 2.14438 7.08204 2.33294L8.07708 2.43244C8.09859 2.21728 8.11093 2.10371 8.1289 2.0262C8.14365 1.96259 8.1478 1.99201 8.11037 2.02588L7.43937 1.28443ZM8.51823 1.0332C8.32873 1.0332 8.13866 1.03223 7.98102 1.05255C7.80922 1.07469 7.61155 1.12861 7.43937 1.28443L8.11037 2.02588C8.07295 2.05975 8.04408 2.05269 8.10884 2.04435C8.18776 2.03417 8.30199 2.0332 8.51823 2.0332V1.0332ZM9.87668 1.0332H8.51823V2.0332H9.87668V1.0332ZM10.9555 1.28443C10.7834 1.12861 10.5857 1.07469 10.4139 1.05255C10.2563 1.03223 10.0662 1.0332 9.87668 1.0332V2.0332C10.0929 2.0332 10.2072 2.03417 10.2861 2.04435C10.3508 2.05269 10.322 2.05975 10.2845 2.02588L10.9555 1.28443ZM11.3129 2.33293C11.294 2.14437 11.2761 1.95515 11.2402 1.80031C11.201 1.63158 11.1277 1.44025 10.9555 1.28443L10.2845 2.02588C10.2471 1.99201 10.2513 1.96259 10.266 2.02619C10.284 2.10371 10.2963 2.21727 10.3178 2.43243L11.3129 2.33293ZM11.7632 9.19784C11.7632 10.6149 10.6145 11.7637 9.19735 11.7637V12.7637C11.1667 12.7637 12.7632 11.1672 12.7632 9.19784H11.7632ZM9.19735 6.63194C10.6145 6.63194 11.7632 7.78073 11.7632 9.19784H12.7632C12.7632 7.22844 11.1667 5.63194 9.19735 5.63194V6.63194ZM6.63145 9.19784C6.63145 7.78073 7.78024 6.63194 9.19735 6.63194V5.63194C7.22796 5.63194 5.63145 7.22844 5.63145 9.19784H6.63145ZM9.19735 11.7637C7.78024 11.7637 6.63145 10.6149 6.63145 9.19784H5.63145C5.63145 11.1672 7.22796 12.7637 9.19735 12.7637V11.7637Z" fill="#615959"/>
</g>
</svg>
