<svg width="27" height="21" viewBox="0 0 27 21" fill="none" xmlns="http://www.w3.org/2000/svg">
<path d="M9.65679 15.507H9.66484M6.43784 18.0141H12.8757C13.7646 18.0141 14.4852 17.2658 14.4852 16.3427V4.64306C14.4852 3.71998 13.7646 2.97168 12.8757 2.97168H6.43784C5.54896 2.97168 4.82837 3.71998 4.82837 4.64306V16.3427C4.82837 17.2658 5.54896 18.0141 6.43784 18.0141Z" stroke="#615959" stroke-linecap="round" stroke-linejoin="round"/>
<rect x="12.6284" y="5.2002" width="5.19984" height="11.1425" fill="white"/>
<path d="M13.3718 9.60382H26M15.2289 12.5221H21.543M15.4765 14.8567H23.8953C25.0577 14.8567 26 14.0728 26 13.1058V8.43651C26 7.46948 25.0577 6.68555 23.8953 6.68555H15.4765C14.3141 6.68555 13.3718 7.46948 13.3718 8.43651V13.1058C13.3718 14.0728 14.3141 14.8567 15.4765 14.8567Z" stroke="#615959" stroke-linecap="round" stroke-linejoin="round"/>
</svg>
