<svg width="19" height="19" viewBox="0 0 19 19" fill="none" xmlns="http://www.w3.org/2000/svg">
<path d="M15.8333 6.33317L16.1868 6.68672L16.5404 6.33317L16.1868 5.97962L15.8333 6.33317ZM11.8749 15.5415C12.1511 15.5415 12.3749 15.3176 12.3749 15.0415C12.3749 14.7654 12.1511 14.5415 11.8749 14.5415L11.8749 15.5415ZM12.2285 10.6451L16.1868 6.68672L15.4797 5.97962L11.5214 9.93795L12.2285 10.6451ZM16.1868 5.97962L12.2285 2.02128L11.5214 2.72839L15.4797 6.68672L16.1868 5.97962ZM15.8333 5.83317L7.52076 5.83317L7.52076 6.83317L15.8333 6.83317L15.8333 5.83317ZM7.52075 15.5415L11.8749 15.5415L11.8749 14.5415L7.52075 14.5415L7.52075 15.5415ZM2.66659 10.6873C2.66659 13.3682 4.83987 15.5415 7.52075 15.5415L7.52075 14.5415C5.39215 14.5415 3.66659 12.8159 3.66659 10.6873L2.66659 10.6873ZM7.52076 5.83317C4.83988 5.83317 2.66659 8.00645 2.66659 10.6873L3.66659 10.6873C3.66659 8.55874 5.39216 6.83317 7.52076 6.83317L7.52076 5.83317Z" fill="#252F69"/>
</svg>
