<svg width="19" height="19" viewBox="0 0 19 19" fill="none" xmlns="http://www.w3.org/2000/svg">
<g id="Refund_Forward_light">
<path id="Vector 10" d="M15.8335 6.33366L16.1871 6.68721L16.5406 6.33366L16.1871 5.98011L15.8335 6.33366ZM11.8752 15.542C12.1513 15.542 12.3752 15.3181 12.3752 15.042C12.3752 14.7658 12.1513 14.542 11.8752 14.542L11.8752 15.542ZM12.2287 10.6455L16.1871 6.68721L15.4799 5.98011L11.5216 9.93844L12.2287 10.6455ZM16.1871 5.98011L12.2287 2.02177L11.5216 2.72888L15.4799 6.68721L16.1871 5.98011ZM15.8335 5.83366L7.521 5.83366L7.521 6.83366L15.8335 6.83366L15.8335 5.83366ZM7.521 15.542L11.8752 15.542L11.8752 14.542L7.521 14.542L7.521 15.542ZM2.66683 10.6878C2.66683 13.3687 4.84011 15.542 7.521 15.542L7.521 14.542C5.3924 14.542 3.66683 12.8164 3.66683 10.6878L2.66683 10.6878ZM7.521 5.83366C4.84012 5.83366 2.66683 8.00694 2.66683 10.6878L3.66683 10.6878C3.66683 8.55923 5.3924 6.83366 7.521 6.83366L7.521 5.83366Z" fill="#615959"/>
</g>
</svg>
