<svg width="24" height="25" viewBox="0 0 24 25" fill="none" xmlns="http://www.w3.org/2000/svg">
<g id="mdi:contract-outline">
<path id="Vector" d="M8 12.8057H16V14.8057H8V12.8057ZM10 20.8057H6V4.80566H13V9.80566H18V12.9057L20 10.9057V8.80566L14 2.80566H6C5.46957 2.80566 4.96086 3.01638 4.58579 3.39145C4.21071 3.76652 4 4.27523 4 4.80566V20.8057C4 21.3361 4.21071 21.8448 4.58579 22.2199C4.96086 22.5949 5.46957 22.8057 6 22.8057H10V20.8057ZM8 18.8057H12.1L13 17.9057V16.8057H8V18.8057ZM20.2 13.8057C20.3 13.8057 20.5 13.9057 20.6 14.0057L21.9 15.3057C22.1 15.5057 22.1 15.9057 21.9 16.1057L20.9 17.1057L18.8 15.0057L19.8 14.0057C19.9 13.9057 20 13.8057 20.2 13.8057ZM20.2 17.7057L14.1 23.8057H12V21.7057L18.1 15.6057L20.2 17.7057Z" fill="#D5D6D7"/>
</g>
</svg>
