<svg width="24" height="25" viewBox="0 0 24 25" fill="none" xmlns="http://www.w3.org/2000/svg">
<path d="M12 17.8057C12.2833 17.8057 12.521 17.7097 12.713 17.5177C12.905 17.3257 13.0007 17.0883 13 16.8057C13 16.5223 12.904 16.2847 12.712 16.0927C12.52 15.9007 12.2827 15.805 12 15.8057C11.7167 15.8057 11.479 15.9017 11.287 16.0937C11.095 16.2857 10.9993 16.523 11 16.8057C11 17.089 11.096 17.3267 11.288 17.5187C11.48 17.7107 11.7173 17.8063 12 17.8057ZM11 13.8057H13V7.80566H11V13.8057ZM8.25 21.8057L3 16.5557V9.05566L8.25 3.80566H15.75L21 9.05566V16.5557L15.75 21.8057H8.25ZM9.1 19.8057H14.9L19 15.7057V9.90566L14.9 5.80566H9.1L5 9.90566V15.7057L9.1 19.8057Z" fill="#D0D1D2"/>
</svg>
