<svg xmlns="http://www.w3.org/2000/svg" width="24" height="25" viewBox="0 0 24 25" fill="none">
  <path d="M5 17.8057H9C10.6569 17.8057 12 19.1488 12 20.8057V10.8057C12 7.97724 12 6.56302 11.1213 5.68434C10.2426 4.80566 8.82843 4.80566 6 4.80566H5C4.05719 4.80566 3.58579 4.80566 3.29289 5.09856C3 5.39145 3 5.86285 3 6.80566V15.8057C3 16.7485 3 17.2199 3.29289 17.5128C3.58579 17.8057 4.05719 17.8057 5 17.8057Z" stroke="#424242" stroke-width="2"/>
  <path d="M19 17.8057H15C13.3431 17.8057 12 19.1488 12 20.8057V10.8057C12 7.97724 12 6.56302 12.8787 5.68434C13.7574 4.80566 15.1716 4.80566 18 4.80566H19C19.9428 4.80566 20.4142 4.80566 20.7071 5.09856C21 5.39145 21 5.86285 21 6.80566V15.8057C21 16.7485 21 17.2199 20.7071 17.5128C20.4142 17.8057 19.9428 17.8057 19 17.8057Z" stroke="#424242" stroke-width="2"/>
</svg>