<svg width="20" height="20" viewBox="0 0 20 20" fill="none" xmlns="http://www.w3.org/2000/svg">
<g id="Sign_in_squre_light">
<path id="Rectangle 21" d="M5.8335 5.94312V5.94312C5.8335 4.11853 5.8335 3.20623 6.34553 2.63613C6.45665 2.5124 6.58277 2.40302 6.72096 2.31052C7.35775 1.88425 8.26088 2.01327 10.0671 2.27131L12.3487 2.59725C14.8048 2.94812 16.0329 3.12356 16.7665 3.96945C17.5002 4.81534 17.5002 6.05588 17.5002 8.53694V11.4627C17.5002 13.9438 17.5002 15.1843 16.7665 16.0302C16.0329 16.8761 14.8048 17.0516 12.3487 17.4024L9.90386 17.7517C8.25228 17.9876 7.42649 18.1056 6.82477 17.7541C6.61023 17.6288 6.42092 17.4646 6.26653 17.27C5.8335 16.724 5.8335 15.8898 5.8335 14.2215V14.2215" stroke="#8E8EA1"/>
<path id="Vector 9" d="M13.3335 10.0002L13.7239 9.68782L13.9738 10.0002L13.7239 10.3125L13.3335 10.0002ZM3.3335 10.5002C3.05735 10.5002 2.8335 10.2763 2.8335 10.0002C2.8335 9.72402 3.05735 9.50016 3.3335 9.50016V10.5002ZM10.3906 5.52115L13.7239 9.68782L12.9431 10.3125L9.60973 6.14584L10.3906 5.52115ZM13.7239 10.3125L10.3906 14.4792L9.60973 13.8545L12.9431 9.68782L13.7239 10.3125ZM13.3335 10.5002H3.3335V9.50016H13.3335V10.5002Z" fill="#8E8EA1"/>
</g>
</svg>
