<svg width="22" height="25" viewBox="0 0 22 25" fill="none" xmlns="http://www.w3.org/2000/svg">
<path d="M7.65039 13.3057L13.9504 13.3057" stroke="#D0D1D2" stroke-width="1.06579" stroke-linecap="round"/>
<path d="M7.65039 16.3057L11.2504 16.3057" stroke="#D0D1D2" stroke-width="1.06579" stroke-linecap="round"/>
<path d="M4.9502 6.86356C4.9502 5.96821 4.9502 5.52054 5.12444 5.17856C5.27771 4.87775 5.52228 4.63318 5.82309 4.47991C6.16507 4.30566 6.61274 4.30566 7.50809 4.30566H11.011C11.4305 4.30566 11.6402 4.30566 11.8359 4.35592C12.0093 4.40045 12.174 4.4738 12.3231 4.57291C12.4914 4.68473 12.6317 4.84062 12.9123 5.15242L15.9936 8.57608C16.2364 8.84591 16.3578 8.98082 16.4444 9.13455C16.5212 9.2709 16.5776 9.41778 16.6117 9.5705C16.6502 9.74269 16.6502 9.9242 16.6502 10.2872V18.7478C16.6502 19.6431 16.6502 20.0908 16.4759 20.4328C16.3227 20.7336 16.0781 20.9781 15.7773 21.1314C15.4353 21.3057 14.9876 21.3057 14.0923 21.3057H7.50809C6.61274 21.3057 6.16507 21.3057 5.82309 21.1314C5.52228 20.9781 5.27771 20.7336 5.12444 20.4328C4.9502 20.0908 4.9502 19.6431 4.9502 18.7478V6.86356Z" stroke="#D0D1D2" stroke-width="1.5"/>
<path d="M11.25 4.30566V7.74777C11.25 8.64312 11.25 9.09079 11.4242 9.43277C11.5775 9.73358 11.8221 9.97815 12.1229 10.1314C12.4649 10.3057 12.9125 10.3057 13.8079 10.3057H16.65" stroke="#D0D1D2" stroke-width="1.5"/>
</svg>
