<svg width="24" height="25" viewBox="0 0 24 25" fill="none" xmlns="http://www.w3.org/2000/svg">
<g clip-path="url(#clip0_181_3078)">
<path d="M21.7404 13.9118C20.3958 13.4245 18.9042 13.5328 17.643 14.2081L15.5871 15.1329C15.421 14.1861 14.6938 13.4745 13.7962 13.4472C13.7909 13.447 10.7136 13.4123 10.7136 13.4123C8.25057 12.7367 6.65016 13.6048 5.73718 14.4604C5.55047 14.6354 5.38626 14.8156 5.24175 14.9933C4.99539 14.7279 4.56052 14.657 4.24339 14.8314L1.45 16.3669C1.0877 16.5661 0.930055 17.003 1.082 17.3872L3.81195 24.2883C3.99134 24.7417 4.54262 24.9421 4.97277 24.7057L7.76616 23.1702C8.028 23.0262 8.18216 22.758 8.19062 22.4754H12.3597C13.0398 22.4754 13.7112 22.2968 14.3013 21.9588C14.3013 21.9588 22.1424 17.461 22.1866 17.4208C23.2847 16.4219 23.3185 14.4836 21.7404 13.9118C22.3699 14.1399 20.3958 13.4245 21.7404 13.9118ZM4.99775 22.8185L2.87652 17.4561L4.21826 16.7186L6.33949 22.0809L4.99775 22.8185ZM21.1374 16.152L13.4833 20.5353C13.1417 20.7309 12.7531 20.8343 12.3596 20.8343H7.61359L6.02006 16.8059C6.15657 16.5277 6.42544 16.0662 6.86211 15.657C7.75641 14.8189 8.93518 14.6045 10.3659 15.0196C10.4374 15.0403 10.5115 15.0513 10.586 15.0521L13.7492 15.0877C13.83 15.0947 13.9791 15.2742 13.9791 15.5464C13.9791 15.8266 13.8251 16.0053 13.7446 16.0053H10.6366V17.6464H13.7446C14.1296 17.6464 14.488 17.5162 14.7862 17.2932L18.3452 15.6922C18.3641 15.6837 18.3825 15.6746 18.4007 15.6647C19.2544 15.2005 20.2673 15.1238 21.1795 15.4544C21.5405 15.5853 21.2797 16.0075 21.1374 16.152ZM16.1984 12.6304C12.9386 12.6304 10.2865 9.97813 10.2865 6.71802C10.2865 3.45797 12.9385 0.805664 16.1984 0.805664C19.4583 0.805664 22.1104 3.45797 22.1104 6.71802C22.1104 9.97813 19.4583 12.6304 16.1984 12.6304ZM16.1984 2.44679C13.8449 2.44679 11.9303 4.36284 11.9303 6.71802C11.9303 9.0732 13.845 10.9893 16.1984 10.9893C18.552 10.9893 20.4666 9.07315 20.4666 6.71802C20.4666 4.3629 18.5519 2.44679 16.1984 2.44679Z" fill="#D0D1D2"/>
<path d="M16.5806 6.04871C15.927 5.7803 15.8764 5.66497 15.8764 5.53127C15.8764 5.44589 15.9188 5.24738 16.3114 5.24738C16.6705 5.24738 17.118 5.44897 17.4336 5.65671L17.8726 4.50594C17.5592 4.3064 17.1783 4.13497 16.8221 4.08015V3.33179H15.6515V4.15297C14.9562 4.37215 14.5277 4.92804 14.5277 5.62004C14.5277 6.53656 15.2609 6.94574 15.9771 7.22466C16.5493 7.45486 16.5972 7.63107 16.5972 7.7782C16.5972 8.00451 16.3887 8.15071 16.0659 8.15071C15.645 8.15071 15.1557 7.90794 14.813 7.6423L14.3906 8.81153C14.74 9.0824 15.1444 9.26117 15.5994 9.32789V10.1033H16.7772V9.25922C17.4944 9.03086 17.9533 8.43676 17.9533 7.7264C17.9533 6.73204 17.2198 6.30753 16.5806 6.04871Z" fill="#D0D1D2"/>
</g>
<defs>
<clipPath id="clip0_181_3078">
<rect width="24" height="24" fill="white" transform="translate(0 0.805664)"/>
</clipPath>
</defs>
</svg>
