<svg width="21" height="20" viewBox="0 0 21 20" fill="none" xmlns="http://www.w3.org/2000/svg">
<g clip-path="url(#clip0_451_12182)">
<path d="M19.4243 7.42426C19.6586 7.18995 19.6586 6.81005 19.4243 6.57574L15.6059 2.75736C15.3716 2.52304 14.9917 2.52304 14.7574 2.75736C14.523 2.99167 14.523 3.37157 14.7574 3.60589L18.1515 7L14.7574 10.3941C14.523 10.6284 14.523 11.0083 14.7574 11.2426C14.9917 11.477 15.3716 11.477 15.6059 11.2426L19.4243 7.42426ZM5 7.6L19 7.6V6.4L5 6.4V7.6Z" fill="#A7A8AB"/>
<path d="M4.57574 15.5757C4.34142 15.8101 4.34142 16.1899 4.57574 16.4243L8.39411 20.2426C8.62843 20.477 9.00833 20.477 9.24264 20.2426C9.47695 20.0083 9.47695 19.6284 9.24264 19.3941L5.84853 16L9.24264 12.6059C9.47695 12.3716 9.47695 11.9917 9.24264 11.7574C9.00833 11.523 8.62843 11.523 8.39411 11.7574L4.57574 15.5757ZM19 15.4L5 15.4V16.6H19V15.4Z" fill="#A7A8AB"/>
</g>
<defs>
<clipPath id="clip0_451_12182">
<rect width="20.8696" height="20" fill="white"/>
</clipPath>
</defs>
</svg>
