<svg width="20" height="20" viewBox="0 0 20 20" fill="none" xmlns="http://www.w3.org/2000/svg">
<path d="M15.3473 10.7639V14.4306C15.3473 15.5829 15.3473 16.159 14.9893 16.517C14.6313 16.875 14.0552 16.875 12.9028 16.875H7.09727C5.94495 16.875 5.36879 16.875 5.01081 16.517C4.65283 16.159 4.65283 15.5829 4.65283 14.4306V5.56944C4.65283 4.41712 4.65283 3.84096 5.01081 3.48298C5.36879 3.125 5.94495 3.125 7.09728 3.125H10.0001" stroke="#A7A8AB" stroke-width="1.2" stroke-linecap="round"/>
<path d="M14.5835 3.125L14.5835 7.70833" stroke="#A7A8AB" stroke-width="1.2" stroke-linecap="round"/>
<path d="M16.875 5.41699L12.2917 5.41699" stroke="#A7A8AB" stroke-width="1.2" stroke-linecap="round"/>
<path d="M7.7085 10.7642L12.2918 10.7642" stroke="#A7A8AB" stroke-width="1.2" stroke-linecap="round"/>
<path d="M7.7085 7.7085L10.7641 7.7085" stroke="#A7A8AB" stroke-width="1.2" stroke-linecap="round"/>
<path d="M7.7085 13.8198L10.7641 13.8198" stroke="#A7A8AB" stroke-width="1.2" stroke-linecap="round"/>
</svg>
