<svg width="20" height="20" viewBox="0 0 20 20" fill="none" xmlns="http://www.w3.org/2000/svg">
<path d="M5.41652 7.91667C4.72615 7.91667 4.1665 8.28977 4.1665 8.75001C4.1665 9.21026 4.72615 9.58335 5.41652 9.58335C6.10688 9.58335 6.66654 9.95645 6.66654 10.4167C6.66654 10.8769 6.10689 11.25 5.41653 11.25M5.41652 7.91667C5.8792 7.91667 6.28317 8.08426 6.4993 8.33334M5.41652 7.91667V7.5M5.41652 7.91667L5.41653 11.25M5.41653 11.25L5.41652 11.6667M5.41653 11.25C4.95385 11.25 4.54987 11.0825 4.33374 10.8334" stroke="#8E8EA1" stroke-width="0.500005" stroke-linecap="round"/>
<path d="M3.4375 15.9375C2.40197 15.9375 1.5625 15.0669 1.5625 13.9931L1.5625 6.21528C1.5625 5.14139 2.40197 4.27083 3.4375 4.27083L16.5625 4.27083C17.598 4.27083 18.4375 5.14139 18.4375 6.21528L18.4375 10.1042L18.4375 13.9931C18.4375 15.0669 17.598 15.9375 16.5625 15.9375L3.4375 15.9375Z" stroke="#8E8EA1" stroke-linecap="round" stroke-linejoin="round"/>
<line x1="8.8335" y1="8.6665" x2="15.3335" y2="8.6665" stroke="#8E8EA1" stroke-linecap="round"/>
<line x1="8.8335" y1="11.1665" x2="15.3335" y2="11.1665" stroke="#8E8EA1" stroke-linecap="round"/>
</svg>
