<svg width="20" height="20" viewBox="0 0 20 20" fill="none" xmlns="http://www.w3.org/2000/svg">
<g id="Gift_light">
<path id="Rectangle 1" d="M2.5 8.6665C2.5 7.7237 2.5 7.25229 2.79289 6.9594C3.08579 6.6665 3.55719 6.6665 4.5 6.6665H15.5C16.4428 6.6665 16.9142 6.6665 17.2071 6.9594C17.5 7.25229 17.5 7.72369 17.5 8.6665V9.58317C17.5 9.8155 17.5 9.93166 17.4808 10.0283C17.4019 10.425 17.0918 10.735 16.6951 10.814C16.5985 10.8332 16.4823 10.8332 16.25 10.8332V10.8332C16.0177 10.8332 15.9015 10.8332 15.8049 10.8524C15.4082 10.9313 15.0981 11.2414 15.0192 11.6381C15 11.7347 15 11.8508 15 12.0832V14.6665C15 15.6093 15 16.0807 14.7071 16.3736C14.4142 16.6665 13.9428 16.6665 13 16.6665H7C6.05719 16.6665 5.58579 16.6665 5.29289 16.3736C5 16.0807 5 15.6093 5 14.6665V12.0832C5 11.8508 5 11.7347 4.98079 11.6381C4.90188 11.2414 4.59178 10.9313 4.19509 10.8524C4.09849 10.8332 3.98233 10.8332 3.75 10.8332V10.8332C3.51767 10.8332 3.40151 10.8332 3.30491 10.814C2.90822 10.735 2.59812 10.425 2.51921 10.0283C2.5 9.93166 2.5 9.8155 2.5 9.58317V8.6665Z" stroke="#A7A8AB" stroke-width="1.2"/>
<path id="Vector 3" d="M4.1665 10.8335H15.8332" stroke="#A7A8AB" stroke-linecap="round"/>
<path id="Vector 4" d="M10 5.8335L10 16.6668" stroke="#A7A8AB" stroke-width="1.2" stroke-linecap="round"/>
<path id="Vector 208" d="M9.99984 5.83333L9.26771 5.1012C8.37912 4.21261 7.29584 3.54311 6.10367 3.14572V3.14572C5.15066 2.82805 4.1665 3.5374 4.1665 4.54196V4.69371C4.1665 5.37428 4.602 5.9785 5.24764 6.19371L6.6665 6.66667" stroke="#A7A8AB" stroke-width="1.2" stroke-linecap="round"/>
<path id="Vector 209" d="M10.0002 5.83333L10.7323 5.1012C11.6209 4.21261 12.7042 3.54311 13.8963 3.14572V3.14572C14.8493 2.82805 15.8335 3.5374 15.8335 4.54196V4.69371C15.8335 5.37428 15.398 5.9785 14.7524 6.19371L13.3335 6.66667" stroke="#A7A8AB" stroke-width="1.2" stroke-linecap="round"/>
</g>
</svg>
