<svg width="20" height="20" viewBox="0 0 20 20" fill="none" xmlns="http://www.w3.org/2000/svg">
<g id="layers 1">
<path id="Vector" d="M18.1193 6.51991V9.0088H12.0336C11.4273 9.0088 10.9258 9.51031 10.9258 10.1167V12.6556C10.9258 13.2619 11.4273 13.7634 12.0336 13.7634H18.1193V16.2523C18.1193 16.5837 17.8659 16.837 17.5346 16.837H3.14752C2.81618 16.837 2.5628 16.5837 2.5628 16.2523V5.73838C2.80163 5.86263 3.07244 5.93519 3.3591 5.93519H3.35914C6.61007 5.9323 10.1162 5.93335 13.3168 5.93431C14.808 5.93476 16.2328 5.93519 17.5346 5.93519C17.8659 5.93519 18.1193 6.18857 18.1193 6.51991ZM12.0335 9.95509H12.0336H18.1193V12.8171H12.0336C11.9833 12.8171 11.9436 12.7998 11.9165 12.7727C11.8894 12.7456 11.8721 12.7059 11.8721 12.6556V10.1167C11.8721 10.0663 11.8894 10.0265 11.9165 9.99943C11.9436 9.97234 11.9833 9.95499 12.0335 9.95509ZM3.3591 2.45C2.40111 2.45 1.6165 3.2346 1.6165 4.19259V16.2523C1.6165 17.0931 2.30674 17.7833 3.14752 17.7833H17.5346C18.3753 17.7833 19.0656 17.0931 19.0656 16.2523V6.51991C19.0656 5.67913 18.3753 4.98889 17.5346 4.98889H16.5267V2.92315C16.5267 2.67397 16.3027 2.45002 16.0535 2.45H3.3591ZM3.3591 3.3963H15.5804V4.98889H3.3591C2.91054 4.98889 2.5628 4.64115 2.5628 4.19259C2.5628 3.74404 2.91054 3.3963 3.3591 3.3963ZM14.1494 10.4898C13.6544 10.4898 13.2531 10.8911 13.2531 11.3861C13.2531 11.8811 13.6544 12.2824 14.1494 12.2824C14.6444 12.2824 15.0457 11.8811 15.0457 11.3861C15.0457 10.8911 14.6444 10.4898 14.1494 10.4898Z" fill="#8E8EA1" stroke="#8E8EA1" stroke-width="0.1"/>
</g>
</svg>
