<svg width="20" height="20" viewBox="0 0 20 20" fill="none" xmlns="http://www.w3.org/2000/svg">
<g id="arcticons:offerup">
<path id="Vector" d="M2.81641 10.6762C2.95712 11.4169 3.66795 11.9061 4.40999 11.773L15.2628 9.82652C15.6577 9.75569 16.002 9.51591 16.2054 9.17005L17.4908 6.98393C17.8503 6.3725 17.6858 5.58795 17.1109 5.17252L15.1629 3.76486C14.8604 3.5463 14.4821 3.46005 14.1148 3.52592L3.24243 5.47556C2.48951 5.61057 1.99152 6.33411 2.13428 7.0856L2.81641 10.6762Z" stroke="#A7A8AB" stroke-width="1.2" stroke-linecap="round" stroke-linejoin="round"/>
<path id="Vector_2" d="M4.37256 11.7799L6.93396 15.4674C7.36178 16.0833 8.20423 16.2428 8.82761 15.826L17.0005 10.3605C17.3222 10.1454 17.5383 9.8047 17.5959 9.42208L18.1251 5.90527" stroke="#A7A8AB" stroke-width="1.2" stroke-linecap="round" stroke-linejoin="round"/>
<path id="Vector_3" d="M16.3916 6.52588C16.5642 6.52588 16.7041 6.38597 16.7041 6.21338C16.7041 6.04079 16.5642 5.90088 16.3916 5.90088C16.219 5.90088 16.0791 6.04079 16.0791 6.21338C16.0791 6.38597 16.219 6.52588 16.3916 6.52588Z" fill="#A7A8AB"/>
</g>
</svg>
