<svg width="24" height="25" viewBox="0 0 24 25" fill="none" xmlns="http://www.w3.org/2000/svg">
<g id="Ticket_alt_light">
<path id="Vector 335" d="M19 20.5673V3.4327C19 2.80662 18.3133 2.42318 17.7803 2.75164L15.6423 4.06918C15.3641 4.2406 15.0096 4.22562 14.7469 4.03134L12.4757 2.35175C12.193 2.14272 11.807 2.14272 11.5243 2.35175L9.25308 4.03134C8.99035 4.22562 8.63588 4.2406 8.35771 4.06918L6.2197 2.75164C5.6867 2.42318 5 2.80662 5 3.4327V20.5673C5 21.1934 5.6867 21.5768 6.2197 21.2484L8.35771 19.9308C8.63588 19.7594 8.99035 19.7744 9.25308 19.9687L11.5243 21.6482C11.807 21.8573 12.193 21.8573 12.4757 21.6482L14.7469 19.9687C15.0096 19.7744 15.3641 19.7594 15.6423 19.9308L17.7803 21.2484C18.3133 21.5768 19 21.1934 19 20.5673Z" stroke="#D5D6D7" stroke-width="2"/>
<path id="Vector 336" d="M9.5 10.3057H14.5" stroke="#D5D6D7" stroke-width="1.5" stroke-linecap="round"/>
<path id="Vector 337" d="M9.5 13.3057H14.5" stroke="#D5D6D7" stroke-width="1.5" stroke-linecap="round"/>
<path id="Vector 338" d="M9.5 16.3057H13.5" stroke="#D5D6D7" stroke-width="1.5" stroke-linecap="round"/>
</g>
</svg>
