<svg width="24" height="25" viewBox="0 0 24 25" fill="none" xmlns="http://www.w3.org/2000/svg">
<path d="M17 8.80566C17 9.79457 16.7068 10.7613 16.1573 11.5835C15.6079 12.4058 14.827 13.0466 13.9134 13.4251C12.9998 13.8035 11.9945 13.9025 11.0245 13.7096C10.0546 13.5167 9.16373 13.0405 8.46447 12.3412C7.7652 11.6419 7.289 10.751 7.09607 9.78112C6.90315 8.81121 7.00216 7.80588 7.3806 6.89225C7.75904 5.97862 8.3999 5.19772 9.22215 4.64832C10.0444 4.09891 11.0111 3.80566 12 3.80566C13.3261 3.80566 14.5979 4.33245 15.5355 5.27013C16.4732 6.20781 17 7.47958 17 8.80566ZM13 13.8057H11C9.14348 13.8057 7.36301 14.5432 6.05025 15.8559C4.7375 17.1687 4 18.9491 4 20.8057V20.8057C4 21.0709 4.10536 21.3252 4.29289 21.5128C4.48043 21.7003 4.73478 21.8057 5 21.8057H19C19.2652 21.8057 19.5196 21.7003 19.7071 21.5128C19.8946 21.3252 20 21.0709 20 20.8057C20 18.9491 19.2625 17.1687 17.9497 15.8559C16.637 14.5432 14.8565 13.8057 13 13.8057V13.8057Z" stroke="#D0D1D2" stroke-width="1.5" stroke-linecap="round" stroke-linejoin="round"/>
</svg>
