<svg xmlns="http://www.w3.org/2000/svg" width="14" height="14" viewBox="0 0 14 14" fill="none">
  <path fill-rule="evenodd" clip-rule="evenodd" d="M4.6665 1.8335L4.63049 1.8335C3.83616 1.83348 3.18958 1.83347 2.67966 1.90203C2.14766 1.97355 1.69018 2.12784 1.32551 2.49251C0.960849 2.85717 0.806559 3.31465 0.735034 3.84665C0.666476 4.35657 0.666489 5.00315 0.666504 5.79748L0.666505 5.8335V10.5002C0.666505 10.6846 0.767997 10.854 0.930576 10.941C1.09315 11.028 1.29043 11.0185 1.44385 10.9162L2.31212 10.3373C2.77402 10.0294 2.92328 9.93583 3.08413 9.88713C3.24499 9.83843 3.42108 9.8335 3.97622 9.8335H4.08317C4.35931 9.8335 4.58317 9.60964 4.58317 9.3335C4.58317 9.05735 4.35931 8.8335 4.08317 8.8335H3.97622L3.91021 8.83348H3.91021C3.44801 8.83327 3.11446 8.83312 2.79435 8.93004C2.47424 9.02696 2.19678 9.21211 1.81233 9.46867L1.75742 9.5053L1.6665 9.56591V5.8335C1.6665 4.9944 1.66757 4.41538 1.72612 3.9799C1.78273 3.55879 1.88472 3.34751 2.03262 3.19961C2.18052 3.05172 2.3918 2.94972 2.8129 2.89311C3.24839 2.83456 3.82741 2.8335 4.6665 2.8335H7.58317C8.13757 2.8335 8.51993 2.83398 8.81548 2.86076C9.10416 2.88693 9.26058 2.935 9.37484 3.00097C9.56486 3.11068 9.72266 3.26847 9.83237 3.4585C9.89834 3.57276 9.94641 3.72917 9.97257 4.01785C9.99043 4.21493 9.9966 4.45061 9.99872 4.75016H8.16651L8.13261 4.75016C7.61158 4.75014 7.1709 4.75012 6.81973 4.79734C6.44659 4.8475 6.10057 4.95908 5.82133 5.23832C5.54209 5.51756 5.43051 5.86358 5.38034 6.23672C5.33313 6.58789 5.33315 7.02857 5.33317 7.5496L5.33317 7.5835V8.16683L5.33317 8.20073C5.33315 8.72176 5.33313 9.16243 5.38034 9.5136C5.43051 9.88675 5.54209 10.2328 5.82133 10.512C6.10057 10.7912 6.44659 10.9028 6.81973 10.953C7.1709 11.0002 7.61157 11.0002 8.13259 11.0002H8.13261L8.16651 11.0002H10.9318L12.5558 12.0829C12.7092 12.1851 12.9065 12.1947 13.0691 12.1077C13.2317 12.0207 13.3332 11.8512 13.3332 11.6668V7.5835V7.54961C13.3332 7.02858 13.3332 6.5879 13.286 6.23672C13.2358 5.86358 13.1243 5.51756 12.845 5.23832C12.5658 4.95908 12.2198 4.8475 11.8466 4.79734C11.6053 4.76489 11.3217 4.75475 10.9988 4.75159C10.9966 4.43585 10.9898 4.16281 10.9685 3.92759C10.936 3.56955 10.8669 3.25033 10.6984 2.9585C10.5009 2.61645 10.2169 2.33242 9.87484 2.13494C9.58301 1.96645 9.26378 1.89729 8.90575 1.86484C8.55973 1.83348 8.1319 1.83349 7.60667 1.8335L7.58317 1.8335H4.6665ZM10.4991 5.75016C10.4994 5.75016 10.4996 5.75016 10.4998 5.75016C11.0639 5.75016 11.4367 5.75123 11.7134 5.78842C11.9756 5.82368 12.0754 5.88296 12.1379 5.94543C12.2004 6.0079 12.2597 6.10772 12.2949 6.36997C12.3321 6.64661 12.3332 7.01939 12.3332 7.5835V10.7326L11.3605 10.0841C11.2784 10.0294 11.1819 10.0002 11.0832 10.0002H8.16651C7.6024 10.0002 7.22962 9.9991 6.95298 9.96191C6.69072 9.92665 6.5909 9.86737 6.52843 9.8049C6.46596 9.74243 6.40669 9.64261 6.37143 9.38036C6.33423 9.10372 6.33317 8.73094 6.33317 8.16683V7.5835C6.33317 7.01939 6.33423 6.64661 6.37143 6.36997C6.40669 6.10772 6.46596 6.0079 6.52843 5.94543C6.5909 5.88296 6.69072 5.82368 6.95298 5.78842C7.22962 5.75123 7.6024 5.75016 8.16651 5.75016H10.4991Z" fill="#54617A"/>
</svg>