<svg width="14" height="14" viewBox="0 0 14 14" fill="none" xmlns="http://www.w3.org/2000/svg">
<g clip-path="url(#clip0_38_267)">
<path d="M12.6829 7.64523C11.8986 7.36101 11.0285 7.42419 10.2928 7.8181L9.09355 8.35758C8.99666 7.80524 8.57244 7.39018 8.04885 7.37423C8.04576 7.37414 6.25068 7.35389 6.25068 7.35389C4.81389 6.95977 3.88032 7.46619 3.34775 7.96528C3.23883 8.06735 3.14304 8.17244 3.05874 8.27609C2.91503 8.12132 2.66136 8.07998 2.47637 8.18168L0.846893 9.07738C0.635547 9.19357 0.54359 9.44847 0.632227 9.67253L2.2247 13.6982C2.32934 13.9627 2.65092 14.0796 2.90184 13.9417L4.53132 13.046C4.68406 12.962 4.77398 12.8055 4.77892 12.6407H7.21091C7.60761 12.6407 7.99925 12.5365 8.3435 12.3394C8.3435 12.3394 12.9174 9.71561 12.9433 9.69216C13.5838 9.10945 13.6035 7.9788 12.6829 7.64523C13.0502 7.77829 11.8986 7.36101 12.6829 7.64523ZM2.91641 12.8408L1.67903 9.71277L2.46171 9.28257L3.69909 12.4106L2.91641 12.8408ZM12.3312 8.95204L7.86631 11.5089C7.66705 11.6231 7.44038 11.6834 7.21082 11.6834H4.44232L3.51276 9.33345C3.59239 9.1712 3.74923 8.90197 4.00395 8.66328C4.52563 8.17442 5.21325 8.04931 6.04783 8.29144C6.08956 8.30356 6.13276 8.30993 6.1762 8.31044L8.02144 8.3312C8.06856 8.33527 8.15552 8.44 8.15552 8.59878C8.15552 8.76224 8.06572 8.86646 8.01875 8.86646H6.20572V9.82378H8.01875C8.24335 9.82378 8.45236 9.74783 8.62635 9.6177L10.7024 8.68383C10.7134 8.67886 10.7242 8.67354 10.7348 8.66777C11.2328 8.39698 11.8237 8.35226 12.3558 8.54509C12.5664 8.62143 12.4142 8.86774 12.3312 8.95204ZM9.45013 6.89778C7.54855 6.89778 6.0015 5.3506 6.0015 3.44888C6.0015 1.54718 7.54853 0 9.45013 0C11.3517 0 12.8988 1.54718 12.8988 3.44888C12.8988 5.3506 11.3517 6.89778 9.45013 6.89778ZM9.45013 0.957325C8.07726 0.957325 6.96038 2.07502 6.96038 3.44888C6.96038 4.82273 8.07729 5.94043 9.45013 5.94043C10.823 5.94043 11.9399 4.8227 11.9399 3.44888C11.9399 2.07505 10.823 0.957325 9.45013 0.957325Z" fill="#54617A"/>
<path d="M9.67298 3.0585C9.29172 2.90193 9.26222 2.83465 9.26222 2.75667C9.26222 2.70686 9.28696 2.59106 9.51596 2.59106C9.72545 2.59106 9.98648 2.70865 10.1706 2.82984L10.4267 2.15856C10.2438 2.04216 10.0216 1.94215 9.81388 1.91018V1.47363H9.13105V1.95265C8.7254 2.08051 8.47544 2.40478 8.47544 2.80845C8.47544 3.34308 8.90316 3.58177 9.32094 3.74447C9.65473 3.87876 9.6827 3.98155 9.6827 4.06737C9.6827 4.19938 9.56104 4.28467 9.37276 4.28467C9.12725 4.28467 8.84177 4.14306 8.64191 3.9881L8.39551 4.67015C8.59929 4.82816 8.83519 4.93244 9.10062 4.97136V5.4237H9.7877V4.9313C10.206 4.79809 10.4738 4.45153 10.4738 4.03716C10.4738 3.45712 10.0458 3.20948 9.67298 3.0585Z" fill="#54617A"/>
</g>
<defs>
<clipPath id="clip0_38_267">
<rect width="14" height="14" fill="white"/>
</clipPath>
</defs>
</svg>
