<svg width="14" height="14" viewBox="0 0 14 14" fill="none" xmlns="http://www.w3.org/2000/svg">
<path d="M7.00065 8.1665L6.54848 8.61868L7.00065 9.07086L7.45283 8.61868L7.00065 8.1665ZM7.64012 2.9165C7.64012 2.56333 7.35382 2.27703 7.00065 2.27703C6.64748 2.27703 6.36118 2.56333 6.36118 2.9165L7.64012 2.9165ZM3.63181 5.70201L6.54848 8.61868L7.45283 7.71433L4.53616 4.79766L3.63181 5.70201ZM7.45283 8.61868L10.3695 5.70201L9.46514 4.79766L6.54848 7.71433L7.45283 8.61868ZM7.64012 8.1665L7.64012 2.9165L6.36118 2.9165L6.36118 8.1665L7.64012 8.1665Z" fill="#54617A"/>
<path d="M2.91699 9.3335L2.91699 9.91683C2.91699 10.5612 3.43933 11.0835 4.08366 11.0835L9.91699 11.0835C10.5613 11.0835 11.0837 10.5612 11.0837 9.91683V9.3335" stroke="#54617A" stroke-width="1.27895"/>
</svg>
